<?xml version="1.0" standalone="no"?>
<!DOCTYPE svg PUBLIC "-//W3C//DTD SVG 1.1//EN" "http://www.w3.org/Graphics/SVG/1.1/DTD/svg11.dtd" >
<svg>
<metadata>
Created by FontForge 20090914 at Thu Jun  9 07:05:02 2016
 By www-data
Web use only; not licensed for further use or distribution by website users.
</metadata>
<defs>
<font id="Munged-YABdqpLxJV" horiz-adv-x="1270" >
  <font-face 
    font-family="Munged-YABdqpLxJV"
    font-weight="700"
    font-stretch="normal"
    units-per-em="2048"
    panose-1="2 0 8 3 3 0 0 2 0 4"
    ascent="1638"
    descent="-410"
    x-height="1075"
    cap-height="1434"
    bbox="-515 -491.001 2837 2201"
    underline-thickness="41"
    underline-position="-232"
    unicode-range="U+0020-U+FB02"
  />
<missing-glyph horiz-adv-x="1024" 
 />
    <glyph glyph-name="fi" unicode="fi" horiz-adv-x="1321" 
d="M1194 1325c0 -22 -4.33301 -42.833 -13 -62.5s-20.334 -36.834 -35.001 -51.501s-31.834 -26.334 -51.501 -35.001s-40.5 -13 -62.5 -13s-42.833 4.33301 -62.5 13s-36.834 20.334 -51.501 35.001s-26.334 31.834 -35.001 51.501s-13 40.5 -13 62.5
s4.33301 42.833 13 62.5s20.334 36.834 35.001 51.501s31.834 26.334 51.501 35.001s40.5 13 62.5 13s42.833 -4.33301 62.5 -13s36.834 -20.334 51.501 -35.001s26.334 -31.834 35.001 -51.501s13 -40.5 13 -62.5zM692 1229c-14 7.33301 -28.666 12.832 -43.999 16.499
s-33.333 5.5 -54 5.5c-42 0 -70 -6.83301 -84 -20.5s-21 -35.5 -21 -65.5v-90h183v-266h-183v-809h-282v809h-129v266h129v129c0 50 6.83301 93 20.5 129s33.5 65.333 59.5 88s58 39.334 96 50.001s81.667 16 131 16c37.333 0 70.666 -2.66699 99.999 -8s55.333 -13 78 -23
v-227zM891.001 -0.000976562v1075h283v-1075h-283z" />
    <glyph glyph-name="fl" unicode="fl" horiz-adv-x="1321" 
d="M891 0v1352l283 141v-1493h-283zM692 1229c-14 7.33301 -28.667 12.832 -44 16.499s-33.333 5.5 -54 5.5c-42 0 -70 -6.83301 -84 -20.5s-21 -35.5 -21 -65.5v-90h183v-266h-183v-809h-282v809h-129v266h129v129c0 50 6.83301 93 20.5 129s33.5 65.333 59.5 88
s58 39.334 96 50.001s81.667 16 131 16c38 0 71.5 -2.66699 100.5 -8s54.833 -13 77.5 -23v-227z" />
    <glyph glyph-name=".notdef" horiz-adv-x="1024" 
 />
    <glyph glyph-name="space" unicode=" " horiz-adv-x="594" 
 />
    <glyph glyph-name="space" unicode="&#xa0;" horiz-adv-x="594" 
 />
    <glyph glyph-name="exclam" unicode="!" horiz-adv-x="696" 
d="M444 451h-192l-47 393v590h287v-590zM522 152c0 -24 -4.66699 -46.5 -14 -67.5s-22 -39.5 -38 -55.5s-34.5 -28.667 -55.5 -38s-43.167 -14 -66.5 -14s-45.5 4.66699 -66.5 14s-39.5 22 -55.5 38s-28.667 34.5 -38 55.5s-14 43.5 -14 67.5c0 23.333 4.66699 45.5 14 66.5
s22 39.5 38 55.5s34.5 28.667 55.5 38s43.167 14 66.5 14s45.5 -4.66699 66.5 -14s39.5 -22 55.5 -38s28.667 -34.5 38 -55.5s14 -43.167 14 -66.5z" />
    <glyph glyph-name="quotedbl" unicode="&#x22;" horiz-adv-x="1081" 
d="M893 764h-195l-71 670h338zM383 764h-195l-71 670h338z" />
    <glyph glyph-name="numbersign" unicode="#" 
d="M1001 311v-311h-243v311h-246v-311h-244v311h-182v213h182v385h-182v213h182v312h244v-312h246v312h243v-312h183v-213h-183v-385h183v-213h-183zM766 915h-260v-397h260v397z" />
    <glyph glyph-name="dollar" unicode="$" 
d="M1159 416c0 -57.333 -8.83691 -109.171 -26.5039 -155.504s-43.167 -86.666 -76.5 -120.999s-73.666 -62.5 -120.999 -84.5s-100.333 -37.667 -159 -47v-207h-287v203c-40 6.66699 -77.5 15 -112.5 25s-70.667 23.333 -107 40s-69.666 34.5 -99.999 53.5
s-58.833 39.5 -85.5 61.5l162 215c27.333 -22 56.833 -42.5 88.5 -61.5s64.334 -35.333 98.001 -49s67.5 -24.5 101.5 -32.5s67 -12 99 -12c76.667 0 134.334 12.5 173.001 37.5s58 63.5 58 115.5c0 22 -4.16699 41.667 -12.5 59s-23 33.833 -44 49.5
s-49.333 30.834 -85 45.501s-81.167 30.334 -136.5 47.001c-82 24.667 -152.167 49.667 -210.5 75s-106 54.5 -143 87.5s-64.167 71.667 -81.5 116s-26 97.5 -26 159.5c0 52 8.5 99.833 25.5 143.5s41.333 82 73 115s70.167 60.833 115.5 83.5s96.333 39 153 49v205h284
v-202c37.333 -5.33301 72.333 -12.666 105 -21.999s64.5 -21.166 95.5 -35.499s58.333 -28.833 82 -43.5s49.834 -33 78.501 -55l-160 -217c-30 22 -59.167 41.333 -87.5 58s-57 30.5 -86 41.5s-58.833 19.333 -89.5 25s-63.334 8.5 -98.001 8.5
c-36 0 -66.667 -3.5 -92 -10.5s-45.833 -16.667 -61.5 -29s-27 -26.666 -34 -42.999s-10.5 -33.833 -10.5 -52.5c0 -20.667 3.83301 -39 11.5 -55s21.667 -31.333 42 -46s48.5 -29.167 84.5 -43.5s82 -29.833 138 -46.5c84.667 -25.333 156.5 -51.5 215.5 -78.5
s107 -57.833 144 -92.5s63.833 -74.334 80.5 -119.001s25 -97.334 25 -158.001z" />
    <glyph glyph-name="percent" unicode="%" 
d="M537 1063c0 -122.667 -22.167 -219.5 -66.5 -290.5s-103.5 -106.5 -177.5 -106.5c-72.667 0 -131.167 34.167 -175.5 102.5s-66.5 165.166 -66.5 290.499s22.833 222.833 68.5 292.5s104.834 104.5 177.501 104.5c73.333 0 131.666 -34.167 174.999 -102.5
s65 -165.166 65 -290.499zM365 1059c0 83.333 -6.16797 144.332 -18.501 182.999s-30.166 58 -53.499 58c-25.333 0 -43.333 -19.167 -54 -57.5s-16 -98.166 -16 -179.499c0 -84 6.33301 -145.333 19 -184s31 -58 55 -58c24.667 0 42.167 19.333 52.5 58
s15.5 98.667 15.5 180zM359.999 -0.000976562h-165l714 1434h166zM1219 374.999c0 -122.667 -22.167 -219.5 -66.5 -290.5s-103.5 -106.5 -177.5 -106.5c-72.667 0 -131.167 34.167 -175.5 102.5s-66.5 165.166 -66.5 290.499s22.833 222.833 68.5 292.5
s104.834 104.5 177.501 104.5c73.333 0 131.666 -34.167 174.999 -102.5s65 -165.166 65 -290.499zM1047 370.999c0 83.333 -6.16797 144.332 -18.501 182.999s-30.166 58 -53.499 58c-25.333 0 -43.333 -19.167 -54 -57.5s-16 -98.166 -16 -179.499
c0 -84 6.33301 -145.333 19 -184s31 -58 55 -58c24.667 0 42.167 19.333 52.5 58s15.5 98.667 15.5 180z" />
    <glyph glyph-name="ampersand" unicode="&#x26;" horiz-adv-x="1434" 
d="M1409 0l-328 -0.00292969l-108 117c-56.667 -46 -119.334 -80.833 -188.001 -104.5s-145.334 -35.5 -230.001 -35.5c-73.333 0 -139.166 7.66699 -197.499 23s-107.666 38.833 -147.999 70.5s-71.333 71.334 -93 119.001s-32.5 103.834 -32.5 168.501
c0 50 6.66699 95.5 20 136.5s32.666 78.167 57.999 111.5s56.166 63.333 92.499 90s77.166 51.334 122.499 74.001l-37 41c-38 42 -68.333 86.5 -91 133.5s-34 99.5 -34 157.5s10.833 109.167 32.5 153.5s51.5 81.333 89.5 111s83 52 135 67s108.333 22.5 169 22.5
c44 0 84.667 -3.33301 122 -10s73 -16.167 107 -28.5s67.167 -27.833 99.5 -46.5s65.5 -40 99.5 -64l-137 -207c-47.333 36 -96.166 62 -146.499 78s-101.166 24 -152.499 24c-42 0 -75 -8.16699 -99 -24.5s-36 -39.5 -36 -69.5c0 -30.667 6.83301 -57.5 20.5 -80.5
s31.834 -48.167 54.501 -75.5l396 -450c32 65.333 65.333 144.333 100 237l231 -73c-22.667 -70.667 -47.167 -135.667 -73.5 -195s-55.5 -114 -87.5 -164zM809 294.997l-281.001 307c-56 -29.333 -96.167 -62.5 -120.5 -99.5s-36.5 -76.833 -36.5 -119.5
c0 -46 18 -82.833 54 -110.5s90.333 -41.5 163 -41.5c88.667 0 162.334 21.333 221.001 64z" />
    <glyph glyph-name="quotesingle" unicode="'" horiz-adv-x="582" 
d="M393 764h-205l-71 670h348z" />
    <glyph glyph-name="parenleft" unicode="(" 
d="M938 -225c-83.333 44 -152.333 85.833 -207 125.5s-98.5 74.834 -131.5 105.501s-66.833 67.167 -101.5 109.5s-65.167 88.166 -91.5 137.499s-47.5 103 -63.5 161s-24 128.333 -24 211c0 65.333 7.66699 128.666 23 189.999s37 118.666 65 171.999
s58.833 100.666 92.5 141.999s67 77.5 100 108.5s76.833 66 131.5 105s123.667 80.833 207 125.5l121 -131c-68 -49.333 -127.833 -98.666 -179.5 -147.999s-94.834 -102.166 -129.501 -158.499s-60.834 -117.5 -78.501 -183.5s-26.5 -140 -26.5 -222
c0 -85.333 8.83301 -161.5 26.5 -228.5s43.834 -128.667 78.501 -185s77.834 -109.166 129.501 -158.499s111.5 -98.333 179.5 -147z" />
    <glyph glyph-name="parenright" unicode=")" 
d="M950 631c0 -74 -7.83301 -142.165 -23.5 -204.498s-37.5 -119.833 -65.5 -172.5s-58.5 -99.5 -91.5 -140.5s-66 -76.833 -99 -107.5s-76.833 -65.834 -131.5 -105.501s-123.667 -81.5 -207 -125.5l-121 131c68 48.667 127.833 97.667 179.5 147
s94.834 102.166 129.501 158.499s60.834 118 78.501 185s26.5 143.167 26.5 228.5c0 82 -8.83301 156 -26.5 222s-43.667 127.167 -78 183.5s-77.5 109.166 -129.5 158.499s-112 98.666 -180 147.999l121 131c85.333 -46 154.166 -87.833 206.499 -125.5
s95.666 -72.334 129.999 -104.001s68.333 -68.167 102 -109.5s64.5 -88.166 92.5 -140.499s49.5 -108.666 64.5 -168.999s22.5 -123.166 22.5 -188.499z" />
    <glyph glyph-name="asterisk" unicode="*" horiz-adv-x="1024" 
d="M899 926l-96 -160l-215 143l18 -260h-188l18 264l-219 -145l-92 160l252 114l-252 115l92 162l219 -148l-18 263h188l-18 -260l215 147l96 -162l-258 -115z" />
    <glyph glyph-name="plus" unicode="+" 
d="M778 569v-389h-286v389h-367v271h367v389h286v-389h367v-271h-367z" />
    <glyph glyph-name="comma" unicode="," horiz-adv-x="635" 
d="M342 -250h-199l29 604h342z" />
    <glyph glyph-name="hyphen" unicode="-" horiz-adv-x="834" 
d="M123 602v283h588v-283h-588z" />
    <glyph glyph-name="hyphen" unicode="&#xad;" horiz-adv-x="834" 
d="M123 602v283h588v-283h-588z" />
    <glyph glyph-name="period" unicode="." horiz-adv-x="635" 
d="M514 174c0 -28 -5 -54.167 -15 -78.5s-23.833 -45.166 -41.5 -62.499s-38.5 -31 -62.5 -41s-50 -15 -78 -15s-54 5 -78 15s-44.667 23.667 -62 41s-31 38.166 -41 62.499s-15 50.5 -15 78.5s5 54 15 78s23.667 44.667 41 62s38 30.833 62 40.5s50 14.5 78 14.5
s54 -4.83301 78 -14.5s44.833 -23.167 62.5 -40.5s31.5 -38 41.5 -62s15 -50 15 -78z" />
    <glyph glyph-name="slash" unicode="/" horiz-adv-x="963" 
d="M287 -184h-279l668 1802h278z" />
    <glyph glyph-name="zero" unicode="0" 
d="M1182 719c0 -120.667 -13.333 -227.166 -40 -319.499s-64.167 -169.833 -112.5 -232.5s-106.166 -110 -173.499 -142s-141.666 -48 -222.999 -48s-155.333 15.833 -222 47.5s-124 78.5 -172 140.5s-85.167 139 -111.5 231s-39.5 198.333 -39.5 319
s13.333 227.167 40 319.5s64.167 169.666 112.5 231.999s106.166 109.5 173.499 141.5s141.666 48 222.999 48c80.667 0 154.5 -15.833 221.5 -47.5s124.5 -78.5 172.5 -140.5s85.167 -139 111.5 -231s39.5 -198 39.5 -318zM891 719.001c0 92 -6.67188 169.333 -20.0049 232
s-31.666 112.5 -54.999 149.5s-50.333 64.167 -81 81.5s-64.667 26 -102 26s-71.166 -8.66699 -101.499 -26s-57 -44.5 -80 -81.5s-40.833 -86.833 -53.5 -149.5s-19 -140 -19 -232c0 -89.333 6.16699 -165.5 18.5 -228.5s29.833 -113.333 52.5 -151
s49.334 -66.167 80.001 -85.5s66.334 -29 107.001 -29c38 0 72.333 9.66699 103 29s57.334 47.833 80.001 85.5s40.167 88 52.5 151s18.5 139.167 18.5 228.5z" />
    <glyph glyph-name="one" unicode="1" 
d="M203 0l0.00195312 233.001h329v816h-301v194c54.667 2 101.667 6.83301 141 14.5s72.666 19 99.999 34s49.166 34.167 65.499 57.5s28.833 51.666 37.5 84.999h246v-1201h299v-233h-917z" />
    <glyph glyph-name="two" unicode="2" 
d="M100 0c4 106.667 18.3398 199.503 43.0068 278.503s58.667 149.167 102 210.5s95.333 116.166 156 164.499s129 94.833 205 139.5c47.333 28.667 85.833 53.667 115.5 75s52.834 41.666 69.501 60.999s28 38.5 34 57.5s9 40.5 9 64.5
c0 49.333 -17.167 87.833 -51.5 115.5s-84.833 41.5 -151.5 41.5c-34.667 0 -67.334 -3 -98.001 -9s-60.167 -15.167 -88.5 -27.5s-56.333 -27.666 -84 -45.999s-55.834 -39.833 -84.501 -64.5l-157 194c35.333 30 71.5 57.5 108.5 82.5s76.333 46.167 118 63.5
s86.5 30.833 134.5 40.5s100.333 14.5 157 14.5c74 0 140.667 -8.33301 200 -25s109.666 -41.334 150.999 -74.001s73 -72.834 95 -120.501s33 -102.834 33 -165.501c0 -48.667 -5.33301 -92.167 -16 -130.5s-28.834 -74.833 -54.501 -109.5s-59.834 -68.5 -102.501 -101.5
s-95.667 -68.5 -159 -106.5c-68 -42 -124.333 -79.833 -169 -113.5s-80.834 -65.167 -108.501 -94.5s-48.334 -57.666 -62.001 -84.999s-23.834 -55.333 -30.501 -84h712v-246h-1026z" />
    <glyph glyph-name="three" unicode="3" 
d="M1149 432c0 -75.333 -12.6689 -141.332 -38.002 -197.999s-61.833 -104 -109.5 -142s-105.5 -66.667 -173.5 -86s-144.667 -29 -230 -29c-55.333 0 -107.666 5.33301 -156.999 16s-95.833 25.667 -139.5 45s-84.167 42.5 -121.5 69.5s-72 56.833 -104 89.5l174 182
c49.333 -47.333 103 -85.166 161 -113.499s122.333 -42.5 193 -42.5c90 0 156.167 17.833 198.5 53.5s63.5 86.167 63.5 151.5c0 32 -5 61 -15 87s-25.667 47.167 -47 63.5s-48.166 28.833 -80.499 37.5s-70.833 13 -115.5 13h-143v235h137c74 0 127.333 15 160 45
s49 73.667 49 131c0 26 -4.16699 49.667 -12.5 71s-21.5 39.666 -39.5 54.999s-41.167 27.166 -69.5 35.499s-62.833 12.5 -103.5 12.5c-60 0 -114.5 -11.5 -163.5 -34.5s-95.5 -54.5 -139.5 -94.5l-160 183c26.667 24.667 56.334 48.5 89.001 71.5s68.5 43 107.5 60
s81.333 30.667 127 41s94.834 15.5 147.501 15.5c74 0 141.667 -7.5 203 -22.5s114.166 -38.167 158.499 -69.5s78.833 -71.333 103.5 -120s37 -106.334 37 -173.001c0 -42 -5 -79.167 -15 -111.5s-23.833 -61 -41.5 -86s-38.334 -46.5 -62.001 -64.5
s-49.167 -33.667 -76.5 -47c32 -8.66699 63 -21.5 93 -38.5s56.5 -38.833 79.5 -65.5s41.333 -58.667 55 -96s20.5 -80.666 20.5 -129.999z" />
    <glyph glyph-name="four" unicode="4" 
d="M1030 293v-293h-252v299h-704v209l676 926h280v-904h164v-237h-164zM778 1086l-397 -556h397v556z" />
    <glyph glyph-name="five" unicode="5" 
d="M1161 489c0 -84 -12.8311 -157.835 -38.498 -221.502s-62.5 -117 -110.5 -160s-106.333 -75.5 -175 -97.5s-146.334 -33 -233.001 -33c-102 0 -193.833 16.333 -275.5 49s-157.167 77.334 -226.5 134.001l148 200c55.333 -43.333 113.666 -77.333 174.999 -102
s124.333 -37 189 -37c48.667 0 90 6 124 18s61 28.667 81 50s35.667 47.5 47 78.5s17 68.167 17 111.5c0 77.333 -19.667 136.333 -59 177s-97.666 61 -174.999 61c-28 0 -53.5 -2.16699 -76.5 -6.5s-44.333 -10.333 -64 -18s-38 -17 -55 -28s-33.833 -23.5 -50.5 -37.5
l-249 80l45 727h886v-244h-651l-20 -309c38 22.667 79.833 40.167 125.5 52.5s98.5 18.5 158.5 18.5c74 0 139.667 -10.167 197 -30.5s105.666 -50.166 144.999 -89.499s69.333 -87.833 90 -145.5s31 -123.5 31 -197.5z" />
    <glyph glyph-name="six" unicode="6" 
d="M1188 467c0 -78.667 -13.333 -148.501 -40 -209.501s-64.334 -112.167 -113.001 -153.5s-107.334 -72.833 -176.001 -94.5s-145.334 -32.5 -230.001 -32.5c-77.333 0 -148.666 11.333 -213.999 34s-121.666 57.5 -168.999 104.5s-84.166 106.167 -110.499 177.5
s-39.5 156 -39.5 254c0 66 6.5 133.5 19.5 202.5s33.833 136.167 62.5 201.5s65.834 127.333 111.501 186s101.167 110.667 166.5 156s141.333 82.5 228 111.5s185 46.833 295 53.5l25 -237c-154.667 -12.667 -286.167 -53.667 -394.5 -123
s-185.833 -169.666 -232.5 -300.999c20.667 16.667 43 32 67 46s50.167 26 78.5 36s59.666 17.833 93.999 23.5s72.5 8.5 114.5 8.5c66 0 127 -9 183 -27s104.167 -45.167 144.5 -81.5s72 -82.333 95 -138s34.5 -121.5 34.5 -197.5zM907 448.999
c0 38 -5.66602 71.832 -16.999 101.499s-28.5 54.334 -51.5 74.001s-50.167 34.5 -81.5 44.5s-68 15 -110 15c-43.333 0 -82.166 -5 -116.499 -15s-63.333 -25.5 -87 -46.5s-41.334 -45.667 -53.001 -74s-17.5 -61.5 -17.5 -99.5c0 -35.333 5.83301 -67.5 17.5 -96.5
s29 -53.667 52 -74s51 -36 84 -47s71.167 -16.5 114.5 -16.5c44.667 0 83.667 5.5 117 16.5s61.166 27 83.499 48s38.833 45.5 49.5 73.5s16 60 16 96z" />
    <glyph glyph-name="seven" unicode="7" 
d="M1157 1206c-85.333 -89.333 -158.168 -178.5 -218.501 -267.5s-109.666 -181.833 -147.999 -278.5s-66.5 -199 -84.5 -307s-27.333 -225.667 -28 -353h-287c2 122 12.5 237.167 31.5 345.5s46.5 211.333 82.5 309s80.333 190.5 133 278.5s113.667 172.333 183 253h-725
v248h1061v-228z" />
    <glyph glyph-name="eight" unicode="8" 
d="M1176 426c0 -72 -12.6719 -135.832 -38.0049 -191.499s-61.666 -102.5 -108.999 -140.5s-104.5 -67 -171.5 -87s-141.833 -30 -224.5 -30c-83.333 0 -158.166 9.83301 -224.499 29.5s-122.833 48.5 -169.5 86.5s-82.5 84.667 -107.5 140s-37.5 119 -37.5 191
c0 46.667 6 88.334 18 125.001s28.167 69.167 48.5 97.5s44 52.666 71 72.999s55.5 37.166 85.5 50.499c-24 12.667 -46.5 28 -67.5 46s-39.167 38.833 -54.5 62.5s-27.5 50.167 -36.5 79.5s-13.5 61.666 -13.5 96.999c0 60 11.5 114.667 34.5 164s55.833 91.5 98.5 126.5
s94.334 62.167 155.001 81.5s128.667 29 204 29c76 0 144 -9.5 204 -28.5s111 -46 153 -81s74.167 -77 96.5 -126s33.5 -103.5 33.5 -163.5c0 -35.333 -4.33301 -67.333 -13 -96s-20.667 -54.5 -36 -77.5s-33.666 -43.5 -54.999 -61.5s-44.666 -34 -69.999 -48
c30 -13.333 58.667 -30.166 86 -50.499s51.333 -44.833 72 -73.5s37.167 -61.5 49.5 -98.5s18.5 -78.833 18.5 -125.5zM851.995 1049c0 25.333 -3.99805 49.332 -11.998 71.999s-20.833 42.5 -38.5 59.5s-40.334 30.333 -68.001 40s-61.167 14.5 -100.5 14.5
s-72.833 -4.83301 -100.5 -14.5s-50.167 -22.667 -67.5 -39s-29.833 -35.666 -37.5 -57.999s-11.5 -45.833 -11.5 -70.5c0 -26 4.5 -50 13.5 -72s22.833 -41.333 41.5 -58s41.667 -29.667 69 -39s59.666 -14 96.999 -14c36 0 67.333 4.66699 94 14s49 22.166 67 38.499
s31.5 35.333 40.5 57s13.5 44.834 13.5 69.501zM900.997 428c0 31.333 -5.33203 60.8271 -15.999 88.4941s-27.334 51.834 -50.001 72.501s-50.167 36.5 -82.5 47.5s-72.166 16.5 -119.499 16.5c-40 0 -77 -4.66699 -111 -14s-62.5 -24.166 -85.5 -44.499
s-40.333 -43.833 -52 -70.5s-17.5 -58 -17.5 -94c0 -35.333 5.66699 -66.666 17 -93.999s28.833 -51.166 52.5 -71.499s52.167 -35 85.5 -44s71.666 -13.5 114.999 -13.5c48 0 88 5 120 15s58.667 24.833 80 44.5s37.333 42.834 48 69.501s16 57.334 16 92.001z" />
    <glyph glyph-name="nine" unicode="9" 
d="M895 985c0 35.333 -5.83105 67.332 -17.498 95.999s-29 53.334 -52 74.001s-51.167 36.5 -84.5 47.5s-71.333 16.5 -114 16.5s-80.834 -5.5 -114.501 -16.5s-61.667 -26.667 -84 -47s-39 -44.666 -50 -72.999s-16.5 -60.833 -16.5 -97.5c0 -76 22 -134.167 66 -174.5
s110.333 -60.5 199 -60.5c39.333 0 76.5 5.16699 111.5 15.5s64.167 26 87.5 47s40.666 45.667 51.999 74s17 61.166 17 98.499zM1174 886.999c0 -66.667 -6.5 -134.502 -19.5 -203.502s-34 -136.167 -63 -201.5s-66.333 -127.333 -112 -186
s-101.334 -110.667 -167.001 -156s-141.834 -82.5 -228.501 -111.5s-185 -46.833 -295 -53.5l-23 238c168.667 16.667 303.5 59.5 404.5 128.5s174.5 167.5 220.5 295.5c-20.667 -17.333 -42.667 -33 -66 -47s-49.166 -26 -77.499 -36s-59.666 -17.833 -93.999 -23.5
s-72.5 -8.5 -114.5 -8.5c-66 0 -127.167 9 -183.5 27s-104.833 45.333 -145.5 82s-72.5 82.834 -95.5 138.501s-34.5 121.5 -34.5 197.5c0 78.667 13.333 148.334 40 209.001s64.5 111.834 113.5 153.501s108 73.167 177 94.5s145.833 32 230.5 32
c77.333 0 148.5 -11.333 213.5 -34s121.167 -57.334 168.5 -104.001s84.333 -105.667 111 -177s40 -156 40 -254z" />
    <glyph glyph-name="colon" unicode=":" horiz-adv-x="635" 
d="M510 905c0 -27.333 -5 -52.666 -15 -75.999s-23.667 -43.5 -41 -60.5s-37.666 -30.5 -60.999 -40.5s-48.666 -15 -75.999 -15s-52.666 5 -75.999 15s-43.5 23.5 -60.5 40.5s-30.5 37.167 -40.5 60.5s-15 48.666 -15 75.999c0 28 5 53.667 15 77s23.5 43.666 40.5 60.999
s37.167 30.833 60.5 40.5s48.666 14.5 75.999 14.5s52.666 -4.83301 75.999 -14.5s43.666 -23.167 60.999 -40.5s31 -37.666 41 -60.999s15 -49 15 -77zM510 170c0 -27.333 -5 -52.666 -15 -75.999s-23.667 -43.666 -41 -60.999s-37.666 -31 -60.999 -41
s-48.666 -15 -75.999 -15s-52.666 5 -75.999 15s-43.5 23.667 -60.5 41s-30.5 37.666 -40.5 60.999s-15 48.666 -15 75.999s5 52.666 15 75.999s23.5 43.666 40.5 60.999s37.167 30.833 60.5 40.5s48.666 14.5 75.999 14.5s52.666 -4.83301 75.999 -14.5
s43.666 -23.167 60.999 -40.5s31 -37.666 41 -60.999s15 -48.666 15 -75.999z" />
    <glyph glyph-name="semicolon" unicode=";" horiz-adv-x="635" 
d="M510 905c0 -27.333 -5 -52.666 -15 -75.999s-23.667 -43.5 -41 -60.5s-37.666 -30.5 -60.999 -40.5s-48.666 -15 -75.999 -15s-52.833 5 -76.5 15s-44 23.5 -61 40.5s-30.333 37.167 -40 60.5s-14.5 48.666 -14.5 75.999c0 28 4.83301 53.667 14.5 77
s23 43.666 40 60.999s37.333 30.833 61 40.5s49.167 14.5 76.5 14.5s52.666 -4.83301 75.999 -14.5s43.666 -23.167 60.999 -40.5s31 -37.666 41 -60.999s15 -49 15 -77zM317 -246h-192l29 594h333z" />
    <glyph glyph-name="less" unicode="&#x3c;" 
d="M143 596v231l981 584v-315l-686 -381l686 -381v-322z" />
    <glyph glyph-name="equal" unicode="=" 
d="M143 821v273h983v-273h-983zM143 315v273h983v-273h-983z" />
    <glyph glyph-name="greater" unicode="&#x3e;" 
d="M145 12v316l686 381l-686 381v321l981 -584v-231z" />
    <glyph glyph-name="question" unicode="?" horiz-adv-x="1196" 
d="M1118 1038c0 -47.333 -6.16406 -89.3379 -18.4971 -126.005s-28.333 -68.667 -48 -96s-41.834 -50.5 -66.501 -69.5s-49.334 -34.5 -74.001 -46.5c-43.333 -20.667 -78.833 -39.667 -106.5 -57s-49.834 -35.166 -66.501 -53.499s-28.5 -38.5 -35.5 -60.5
s-11.167 -48 -12.5 -78h-280c0 48.667 4.16699 93 12.5 133s23.333 76.833 45 110.5s51 65 88 94s84.5 56.833 142.5 83.5c26 12 47.5 23.333 64.5 34s30.5 21.834 40.5 33.501s17.167 24.334 21.5 38.001s6.5 29.834 6.5 48.501c0 51.333 -20.5 89.166 -61.5 113.499
s-101.5 36.5 -181.5 36.5c-77.333 0 -146 -16.833 -206 -50.5s-111 -74.167 -153 -121.5l-184 215c31.333 32.667 66 63.334 104 92.001s79.5 53.834 124.5 75.501s93.667 38.667 146 51s108.5 18.5 168.5 18.5c78 0 149.5 -8.33301 214.5 -25
s120.833 -42.334 167.5 -77.001s83 -78.167 109 -130.5s39 -114.166 39 -185.499zM725.003 151.995c0 -24 -4.66699 -46.5 -14 -67.5s-22 -39.5 -38 -55.5s-34.5 -28.667 -55.5 -38s-43.167 -14 -66.5 -14s-45.5 4.66699 -66.5 14s-39.5 22 -55.5 38s-28.667 34.5 -38 55.5
s-14 43.5 -14 67.5c0 23.333 4.66699 45.5 14 66.5s22 39.5 38 55.5s34.5 28.667 55.5 38s43.167 14 66.5 14s45.5 -4.66699 66.5 -14s39.5 -22 55.5 -38s28.667 -34.5 38 -55.5s14 -43.167 14 -66.5z" />
    <glyph glyph-name="at" unicode="@" horiz-adv-x="1712" 
d="M1595 737c0 -76 -7.66504 -140.835 -22.998 -194.502s-36.666 -97.334 -63.999 -131.001s-60 -58.167 -98 -73.5s-79.333 -23 -124 -23c-31.333 0 -59 2.66699 -83 8s-45.5 12.833 -64.5 22.5s-35.833 21.5 -50.5 35.5s-28.334 29.667 -41.001 47
c-36 -40.667 -75.167 -70 -117.5 -88s-90.833 -27 -145.5 -27c-36.667 0 -72.667 5.66699 -108 17s-66.833 28.666 -94.5 51.999s-50 52.833 -67 88.5s-25.5 77.5 -25.5 125.5c0 43.333 8.33301 81.333 25 114s39.5 60 68.5 82s63 38.5 102 49.5s81.167 16.5 126.5 16.5
c38.667 0 69.667 -3.66699 93 -11s45.666 -16.666 66.999 -27.999v51c0 31.333 -9.83301 57.666 -29.5 78.999s-50.167 32 -91.5 32c-45.333 0 -84.833 -4.16699 -118.5 -12.5s-67.167 -21.833 -100.5 -40.5l-76 135c45.333 27.333 90.666 47.5 135.999 60.5
s98.333 19.5 159 19.5c47.333 0 90.666 -6.16699 129.999 -18.5s73.166 -30.166 101.499 -53.499s50.333 -52.166 66 -86.499s23.5 -73.833 23.5 -118.5v-293c0 -44.667 11 -78.667 33 -102s53.333 -35 94 -35c31.333 0 58.5 6.5 81.5 19.5s41.667 33.333 56 61
s24.833 59.667 31.5 96s10 78.5 10 126.5c0 81.333 -15.667 158.333 -47 231s-74.666 136.334 -129.999 191.001s-121 98 -197 130s-158.333 48 -247 48c-89.333 0 -172 -15.667 -248 -47s-141.5 -74.5 -196.5 -129.5s-98 -120.5 -129 -196.5s-46.5 -158.333 -46.5 -247
c0 -90 15.5 -173 46.5 -249s74 -141.667 129 -197s120.5 -98.666 196.5 -129.999s158.667 -47 248 -47c46 0 90.333 4.33301 133 13s87 24.334 133 47.001l49 -109c-29.333 -13.333 -56.666 -24.5 -81.999 -33.5s-50.333 -16.167 -75 -21.5
s-49.834 -9.16602 -75.501 -11.499s-53.167 -3.5 -82.5 -3.5c-71.333 0 -139.166 8.33301 -203.499 25s-123.833 40.5 -178.5 71.5s-104 68.667 -148 113s-81.5 93.833 -112.5 148.5s-54.833 114.167 -71.5 178.5s-25 132.166 -25 203.499s8.33301 139.166 25 203.499
s40.5 123.833 71.5 178.5s68.5 104 112.5 148s93.333 81.5 148 112.5s114.167 54.833 178.5 71.5s132.166 25 203.499 25c72.667 0 141.334 -8.66699 206.001 -26s124.334 -41.833 179.001 -73.5s104 -69.667 148 -114s81.167 -93.166 111.5 -146.499
s53.666 -110.333 69.999 -171s24.5 -123.334 24.5 -188.001zM971.002 667.998c-24.667 14 -47.502 23.667 -68.502 29s-49.5 8 -85.5 8c-22.667 0 -41.834 -2.5 -57.501 -7.5s-29 -12.333 -40 -22s-19 -21.5 -24 -35.5s-7.5 -28.667 -7.5 -44c0 -33.333 11 -60.5 33 -81.5
s54 -31.5 96 -31.5c18 0 34.833 2 50.5 6s30.334 10 44.001 18s25.334 16.667 35.001 26s17.834 19.333 24.501 30v105z" />
    <glyph glyph-name="A" unicode="A" horiz-adv-x="1536" 
d="M1454 0h-315l-113 319h-524l-113 -319h-307l549 1434h278zM928 592l-164 467l-164 -467h328z" />
    <glyph glyph-name="B" unicode="B" horiz-adv-x="1454" 
d="M1346 463c0 -148 -46.332 -262.167 -138.999 -342.5s-216.334 -120.5 -371.001 -120.5h-652v1434h658c69.333 0 132 -8.33301 188 -25s103.667 -41 143 -73s69.666 -71.5 90.999 -118.5s32 -101.167 32 -162.5c0 -32.667 -3.5 -62.667 -10.5 -90s-17.5 -53 -31.5 -77
s-29.333 -44.667 -46 -62s-37.667 -34 -63 -50c28.667 -12.667 55.334 -28.667 80.001 -48s46 -42 64 -68s32 -55.5 42 -88.5s15 -69.167 15 -108.5zM1006 1032c0 21.333 -3 39.998 -9 55.998s-15.167 30 -27.5 42s-30 21.5 -53 28.5s-52.167 10.5 -87.5 10.5h-364v-272h379
c30 0 55.167 3.33301 75.5 10s37 15.834 50 27.501s22.333 25.834 28 42.501s8.5 35 8.5 55zM1051 458.998c0 32 -4.16797 58.999 -12.501 80.999s-20.166 40.5 -35.499 55.5s-35.833 26.667 -61.5 35s-57.5 12.5 -95.5 12.5h-381v-371h381c36.667 0 68 4.5 94 13.5
s47.333 22.667 64 41s28.667 38.333 36 60s11 45.834 11 72.501z" />
    <glyph glyph-name="C" unicode="C" horiz-adv-x="1372" 
d="M1004 1016c-16 30.667 -31.334 53.665 -46.001 68.998s-32.667 29.833 -54 43.5s-45 24.167 -71 31.5s-56.667 11 -92 11c-54 0 -101.833 -11.167 -143.5 -33.5s-77 -53.5 -106 -93.5s-51 -87.833 -66 -143.5s-22.5 -116.834 -22.5 -183.501
c0 -64.667 7.66699 -124.667 23 -180s37.5 -103.333 66.5 -144s64.5 -72.667 106.5 -96s90 -35 144 -35c58.667 0 109.5 12.667 152.5 38s85.833 73.333 128.5 144l242 -143c-24.667 -50.667 -54 -96 -88 -136s-73 -74 -117 -102s-93.167 -49.333 -147.5 -64
s-113.833 -22 -178.5 -22c-65.333 0 -124.833 7.83301 -178.5 23.5s-104.167 38.5 -151.5 68.5s-89.333 66.667 -126 110s-66 88.333 -88 135s-41.167 103.834 -57.5 171.501s-24.5 144.834 -24.5 231.501c0 108.667 15.667 208.334 47 299.001s75 168.667 131 234
s123 116 201 152s163.667 54 257 54c120.667 0 225.334 -26.167 314.001 -78.5s159 -131.833 211 -238.5z" />
    <glyph glyph-name="D" unicode="D" horiz-adv-x="1448" 
d="M1346 717c0 -84 -9.50195 -160.001 -28.502 -228.001s-45.5 -128.667 -79.5 -182s-74.167 -99.166 -120.5 -137.499s-96.666 -70.166 -150.999 -95.499s-111.666 -44 -171.999 -56s-121.166 -18 -182.499 -18h-428v1434h449c102 0 196.667 -12.833 284 -38.5
s162.666 -66.834 225.999 -123.501s113 -130.667 149 -222s54 -202.333 54 -333zM1051 716.999c0 73.333 -8.16797 137.332 -24.501 191.999s-41.666 100.334 -75.999 137.001s-78.5 64 -132.5 82s-119 27 -195 27h-152v-876h141c75.333 0 140.5 10.5 195.5 31.5
s100.5 50.667 136.5 89s62.833 84.5 80.5 138.5s26.5 113.667 26.5 179z" />
    <glyph glyph-name="E" unicode="E" horiz-adv-x="1331" 
d="M1210 0h-1026v1434h996v-281h-709v-248h576v-278h-576v-346h739v-281z" />
    <glyph glyph-name="F" unicode="F" horiz-adv-x="1280" 
d="M471 1153v-270h432v-279h-432v-604h-287v1434h1026v-281h-739z" />
    <glyph glyph-name="G" unicode="G" horiz-adv-x="1430" 
d="M1311 555c0 -92 -14.4961 -174.001 -43.4961 -246.001s-69 -132.5 -120 -181.5s-111.833 -86.333 -182.5 -112s-147.334 -38.5 -230.001 -38.5c-94 0 -179.333 17.333 -256 52s-142.5 84 -197.5 148s-97.5 141.667 -127.5 233s-45 193.666 -45 306.999
c0 108.667 15.667 208.334 47 299.001s75 168.667 131 234s123 116 201 152s163.667 54 257 54c143.333 0 258.666 -32.167 345.999 -96.5s153 -151.5 197 -261.5l-272 -113c-13.333 26.667 -27.833 51.334 -43.5 74.001s-34.167 42.334 -55.5 59.001s-46.333 29.667 -75 39
s-62.334 14 -101.001 14c-54 0 -101.833 -11.167 -143.5 -33.5s-77 -53.5 -106 -93.5s-51 -87.833 -66 -143.5s-22.5 -116.834 -22.5 -183.501c0 -66 7.66699 -127 23 -183s37.5 -104.5 66.5 -145.5s64.5 -73 106.5 -96s90 -34.5 144 -34.5c81.333 0 145.166 16 191.499 48
s75.5 83.667 87.5 155l2 14h-227v268h514v-188z" />
    <glyph glyph-name="H" unicode="H" horiz-adv-x="1530" 
d="M1059 0v602h-588v-602h-287v1434h287v-549h588v549h287v-1434h-287z" />
    <glyph glyph-name="I" unicode="I" horiz-adv-x="696" 
d="M205 0v1434h287v-1434h-287z" />
    <glyph glyph-name="J" unicode="J" horiz-adv-x="1331" 
d="M1157 598c0 -202 -46.6709 -356 -140.004 -462s-227.666 -159 -402.999 -159c-71.333 0 -136.666 10.333 -195.999 31s-112.166 49.667 -158.499 87s-85.666 82 -117.999 134s-57.5 109.333 -75.5 172l280 76c16 -42 31.167 -74.5 45.5 -97.5s32.333 -43.833 54 -62.5
s46.167 -32.5 73.5 -41.5s59 -13.5 95 -13.5c45.333 0 84.166 7.16699 116.499 21.5s58.833 35.833 79.5 64.5s35.834 63 45.501 103s14.5 86.333 14.5 139v844h287v-836z" />
    <glyph glyph-name="K" unicode="K" horiz-adv-x="1475" 
d="M1434 0h-344l-390 692l-229 -270v-422h-287v1434h287v-623l510 623h346l-420 -496z" />
    <glyph glyph-name="L" unicode="L" 
d="M184 0v1434h287v-1151h719v-283h-1006z" />
    <glyph glyph-name="M" unicode="M" horiz-adv-x="1710" 
d="M1526 0h-287v816l-387 -849l-387 849v-816h-281v1434h277l397 -867l385 867h283v-1434z" />
    <glyph glyph-name="N" unicode="N" horiz-adv-x="1530" 
d="M1346 0h-256l-623 925v-925h-283v1434h275l604 -902v902h283v-1434z" />
    <glyph glyph-name="O" unicode="O" horiz-adv-x="1473" 
d="M1368 719c0 -116 -15.5 -219.833 -46.5 -311.5s-74.333 -169.334 -130 -233.001s-122.334 -112.5 -200.001 -146.5s-163.167 -51 -256.5 -51c-94 0 -179.667 16.667 -257 50s-143.666 81.666 -198.999 144.999s-98.333 140.666 -129 231.999s-46 195 -46 311
s15.5 219.833 46.5 311.5s74.5 169.334 130.5 233.001s123 112.334 201 146.001s163.667 50.5 257 50.5s178.5 -16.667 255.5 -50s143.167 -81.666 198.5 -144.999s98.333 -140.5 129 -231.5s46 -194.5 46 -310.5zM1073 715c0 72.667 -8.33301 137.333 -25 194
s-40 104.334 -70 143.001s-65.833 68.167 -107.5 88.5s-87.5 30.5 -137.5 30.5s-95.667 -9.83301 -137 -29.5s-76.5 -48.667 -105.5 -87s-51.5 -85.666 -67.5 -141.999s-24 -120.833 -24 -193.5s8.33301 -137.334 25 -194.001s40 -104.5 70 -143.5s65.833 -68.667 107.5 -89
s87.5 -30.5 137.5 -30.5s95.667 10 137 30s76.5 49.167 105.5 87.5s51.5 85.666 67.5 141.999s24 120.833 24 193.5z" />
    <glyph glyph-name="P" unicode="P" horiz-adv-x="1393" 
d="M1305 979c0 -83.333 -13.1689 -154.667 -39.502 -214s-62.666 -108 -108.999 -146s-101.166 -66 -164.499 -84s-132 -27 -206 -27h-315v-508h-287v1434h627c67.333 0 131 -9.33301 191 -28s112.5 -47 157.5 -85s80.5 -85.5 106.5 -142.5s39 -123.5 39 -199.5z
M1010 972.999c0 29.333 -4.33301 55.5 -13 78.5s-22.5 42.167 -41.5 57.5s-41.5 26.833 -67.5 34.5s-55 11.5 -87 11.5h-330v-369h334c66.667 0 117.5 15.5 152.5 46.5s52.5 77.833 52.5 140.5z" />
    <glyph glyph-name="Q" unicode="Q" horiz-adv-x="1462" 
d="M1354 717c0 -60 -3.83008 -115.502 -11.4971 -166.502s-20.334 -100.667 -38.001 -149s-38.667 -91.666 -63 -129.999s-51.833 -73.5 -82.5 -105.5l107 -156l-219 -143l-103 149c-32.667 -13.333 -66.334 -23.166 -101.001 -29.499s-72 -9.5 -112 -9.5
c-98 0 -185.5 18.167 -262.5 54.5s-142.167 87 -195.5 152s-94 142.833 -122 233.5s-42 190.667 -42 300c0 108.667 14 208.334 42 299.001s68.667 168.667 122 234s118.5 116 195.5 152s164.5 54 262.5 54s185.5 -18 262.5 -54s142.167 -86.667 195.5 -152
s94.166 -143.333 122.499 -234s42.5 -190.334 42.5 -299.001zM1059 716.998c0 64 -6.16992 123.666 -18.5029 178.999s-31.833 103.333 -58.5 144s-60.667 72.667 -102 96s-91 35 -149 35s-107.667 -11.667 -149 -35s-75.166 -55.333 -101.499 -96
s-45.833 -88.667 -58.5 -144s-19 -115 -19 -179c0 -65.333 6.5 -126.5 19.5 -183.5s33.167 -106.667 60.5 -149s62 -75.666 104 -99.999s92 -36.5 150 -36.5c16.667 0 32.334 1.33301 47.001 4l-96 143l219 144l92 -138c22.667 40 38.334 87.5 47.001 142.5
s13 112.833 13 173.5z" />
    <glyph glyph-name="R" unicode="R" horiz-adv-x="1462" 
d="M1016 0l-255.998 516.001h-289v-516h-287v1434h668c67.333 0 131 -9.33301 191 -28s112.5 -47 157.5 -85s80.5 -85.5 106.5 -142.5s39 -123.5 39 -199.5c0 -57.333 -6 -107.666 -18 -150.999s-29.833 -82.333 -53.5 -117s-51.834 -64.334 -84.501 -89.001
s-72.334 -46.334 -119.001 -65.001l275 -557h-330zM1051 973.001c0 34.667 -5 63.499 -15 86.499s-24.5 41.5 -43.5 55.5s-40.667 24.167 -65 30.5s-51.5 9.5 -81.5 9.5h-375v-369h375c36 0 66.5 4.16699 91.5 12.5s46 20.333 63 36s29.667 34.834 38 57.501
s12.5 49.667 12.5 81z" />
    <glyph glyph-name="S" unicode="S" horiz-adv-x="1354" 
d="M1235 434c0 -68 -10.999 -129.999 -32.999 -185.999s-56 -104.167 -102 -144.5s-104.333 -71.5 -175 -93.5s-155 -33 -253 -33c-60 0 -117.667 6.16699 -173 18.5s-107 29.666 -155 51.999s-91.5 49.666 -130.5 81.999s-71.833 68.5 -98.5 108.5l207 184
c50 -58.667 106.333 -100.667 169 -126s128.334 -38 197.001 -38c48.667 0 88 3.5 118 10.5s55.167 16.667 75.5 29s34.833 26.833 43.5 43.5s13 41 13 73c0 22.667 -4 42.834 -12 60.501s-23.5 33.834 -46.5 48.501s-55.333 28.667 -97 42s-96.5 27.666 -164.5 42.999
c-66 15.333 -126.5 33 -181.5 53s-102.167 46 -141.5 78s-70 71.833 -92 119.5s-33 106.834 -33 177.501c0 64.667 13.333 123 40 175s63.167 96.167 109.5 132.5s100.666 64.166 162.999 83.499s128.833 29 199.5 29c54.667 0 106.5 -4.83301 155.5 -14.5
s97 -25.5 144 -47.5s86.833 -45.333 119.5 -70s67 -55.667 103 -93l-207 -201c-27.333 28 -51.333 49.667 -72 65s-44.334 29.5 -71.001 42.5s-54.667 23 -84 30s-62 10.5 -98 10.5c-38.667 0 -71 -3.83301 -97 -11.5s-47 -17.5 -63 -29.5s-27.5 -25.667 -34.5 -41
s-10.5 -31 -10.5 -47c0 -22.667 4.33301 -42 13 -58s24 -30.167 46 -42.5s51.5 -24 88.5 -35s84.167 -23.167 141.5 -36.5c81.333 -19.333 149 -39.5 203 -60.5s101.667 -47.833 143 -80.5s73.833 -74 97.5 -124s35.5 -109.333 35.5 -178z" />
    <glyph glyph-name="T" unicode="T" horiz-adv-x="1294" 
d="M791 1151v-1151h-287v1151h-412v283h1110v-283h-411z" />
    <glyph glyph-name="U" unicode="U" horiz-adv-x="1509" 
d="M1335 633c0 -104 -13.167 -196.667 -39.5 -278s-64.5 -150 -114.5 -206s-111 -98.667 -183 -128s-153.333 -44 -244 -44c-86.667 0 -165.5 14.333 -236.5 43s-132 70.667 -183 126s-90.5 123.5 -118.5 204.5s-42 173.833 -42 278.5v805h287v-801
c0 -116 26.333 -207.5 79 -274.5s124 -100.5 214 -100.5c90.667 0 162.5 33.333 215.5 100s79.5 157 79.5 271v805h286v-801z" />
    <glyph glyph-name="V" unicode="V" horiz-adv-x="1462" 
d="M1381 1434l-511 -1434h-278l-510 1434h317l338 -1036l330 1036h314z" />
    <glyph glyph-name="W" unicode="W" horiz-adv-x="1804" 
d="M1702 1434l-299 -1434h-281l-224 939l-228 -939h-268l-300 1434h300l159 -901l217 901h250l220 -901l159 901h295z" />
    <glyph glyph-name="X" unicode="X" horiz-adv-x="1438" 
d="M1346 0h-342l-285 483l-285 -483h-342l455 733l-434 701h342l264 -452l264 452h342l-436 -701z" />
    <glyph glyph-name="Y" unicode="Y" horiz-adv-x="1462" 
d="M1418 1434l-543 -867v-567h-287v561l-543 873h330l358 -600l359 600h326z" />
    <glyph glyph-name="Z" unicode="Z" horiz-adv-x="1409" 
d="M1270 0h-1131v254l770 917h-729v263h1080v-254l-762 -918h772v-262z" />
    <glyph glyph-name="bracketleft" unicode="[" horiz-adv-x="850" 
d="M195 -225v1659h526v-226h-250v-1208h250v-225h-526z" />
    <glyph glyph-name="backslash" unicode="\" horiz-adv-x="963" 
d="M676 -184l-668 1802h279l667 -1802h-278z" />
    <glyph glyph-name="bracketright" unicode="]" horiz-adv-x="850" 
d="M129 -225v225h250v1208h-250v226h526v-1659h-526z" />
    <glyph glyph-name="asciicircum" unicode="^" horiz-adv-x="1184" 
d="M797 782l-207 381l-207 -381h-287l383 652h226l382 -652h-290z" />
    <glyph glyph-name="underscore" unicode="_" horiz-adv-x="1024" 
d="M0 -383v236h1024v-236h-1024z" />
    <glyph glyph-name="grave" unicode="`" horiz-adv-x="1024" 
d="M502 1219l-297 327h358l178 -327h-239z" />
    <glyph glyph-name="a" unicode="a" horiz-adv-x="1139" 
d="M729 0l-0.000976562 72c-12.667 -13.333 -27 -25.5 -43 -36.5s-35.333 -21.333 -58 -31s-45.667 -16.667 -69 -21s-47.333 -6.5 -72 -6.5c-50 0 -99 7.83301 -147 23.5s-90.833 39.167 -128.5 70.5s-68 71 -91 119s-34.5 104.667 -34.5 170
c0 59.333 11.333 111.333 34 156s53.667 81.834 93 111.501s85.5 52 138.5 67s109.833 22.5 170.5 22.5c50 0 91.333 -4.33301 124 -13s60.334 -18.667 83.001 -30v53c0 40 -13.333 72.833 -40 98.5s-64.667 38.5 -114 38.5c-62.667 0 -113.667 -4.5 -153 -13.5
s-86.333 -28.167 -141 -57.5l-109 196c68 40 132.5 68.167 193.5 84.5s130.833 24.5 209.5 24.5c65.333 0 124.833 -8.33301 178.5 -25s99.667 -41 138 -73s68 -71.333 89 -118s31.5 -100.334 31.5 -161.001v-721h-283zM728.999 451
c-12 7.33301 -24.332 13.832 -36.999 19.499s-26.667 10.334 -42 14.001s-32.5 6.5 -51.5 8.5s-41.167 3 -66.5 3c-53.333 0 -93.833 -11.833 -121.5 -35.5s-41.5 -57.167 -41.5 -100.5c0 -18.667 2.83301 -36.667 8.5 -54s15 -32.5 28 -45.5s29.833 -23.5 50.5 -31.5
s46 -12 76 -12c23.333 0 45.166 2.66699 65.499 8s39 12.5 56 21.5s31.833 19.5 44.5 31.5s23 24.333 31 37v136z" />
    <glyph glyph-name="b" unicode="b" horiz-adv-x="1151" 
d="M1065 524c0 -80 -9.33301 -153.499 -28 -220.499s-45.834 -124.667 -81.501 -173s-79.334 -86 -131.001 -113s-110.834 -40.5 -177.501 -40.5c-47.333 0 -90.666 8.16699 -129.999 24.5s-71.666 36.166 -96.999 59.499v-61h-283v1352l283 141v-485
c13.333 12 27.833 23.333 43.5 34s32.834 20.167 51.501 28.5s39 15 61 20s45.667 7.5 71 7.5c57.333 0 111.333 -11 162 -33s95 -56.333 133 -103s68 -106.167 90 -178.5s33 -158.833 33 -259.5zM778 518.001c0 104 -15.667 182.167 -47 234.5s-77 78.5 -137 78.5
c-22 0 -41.5 -2.16699 -58.5 -6.5s-32.333 -10.5 -46 -18.5s-26.167 -17.5 -37.5 -28.5s-22 -23.167 -32 -36.5v-405c10.667 -14.667 21.5 -27.167 32.5 -37.5s25.167 -20 42.5 -29s35.166 -15.5 53.499 -19.5s38.833 -6 61.5 -6c54.667 0 96.334 23 125.001 69
s43 114.333 43 205z" />
    <glyph glyph-name="c" unicode="c" horiz-adv-x="1100" 
d="M1026 217c-26 -34.667 -53.501 -66.6689 -82.501 -96.002s-61.167 -54.666 -96.5 -75.999s-74.333 -38 -117 -50s-90.667 -18 -144 -18c-70 0 -135.667 13.667 -197 41s-114.833 65.666 -160.5 114.999s-81.5 108.333 -107.5 177s-39 144.334 -39 227.001
c0 82 12.833 157.5 38.5 226.5s61.5 128.167 107.5 177.5s100.5 87.833 163.5 115.5s131.833 41.5 206.5 41.5c90.667 0 171.334 -19.833 242.001 -59.5s132 -99.167 184 -178.5l-186 -188c-16 22.667 -32.5 43.334 -49.5 62.001s-35.167 34.667 -54.5 48
s-40.666 23.833 -63.999 31.5s-49.333 11.5 -78 11.5c-34 0 -64.667 -6.83301 -92 -20.5s-50.666 -33 -69.999 -58s-34.333 -55.167 -45 -90.5s-16 -75 -16 -119c0 -43.333 5.33301 -82.5 16 -117.5s25.667 -65.167 45 -90.5s42.666 -44.833 69.999 -58.5s58 -20.5 92 -20.5
c27.333 0 52.5 3 75.5 9s44.667 14.833 65 26.5s39.666 26 57.999 43s36.833 36.5 55.5 58.5z" />
    <glyph glyph-name="d" unicode="d" horiz-adv-x="1151" 
d="M727 0l0.000976562 68.002c-14 -12.667 -28.333 -23.834 -43 -33.501s-31.334 -19.334 -50.001 -29.001s-39 -16.834 -61 -21.501s-46.333 -7 -73 -7c-57.333 0 -111.333 11.167 -162 33.5s-95 56.833 -133 103.5s-68 106.167 -90 178.5s-33 158.5 -33 258.5
c0 80 9.33301 153.5 28 220.5s45.667 124.667 81 173s79 86 131 113s111.333 40.5 178 40.5c24.667 0 47.667 -2 69 -6s42.333 -10.5 63 -19.5s38.5 -18.167 53.5 -27.5s28.833 -19.666 41.5 -30.999v338l283 141v-1493h-283zM727.001 739.002
c-10.667 14.667 -21.998 27.332 -33.998 37.999s-25.833 20.167 -41.5 28.5s-33.334 14.666 -53.001 18.999s-40.167 6.5 -61.5 6.5c-54.667 0 -96.334 -23 -125.001 -69s-43 -114.333 -43 -205c0 -55.333 4.33301 -102.666 13 -141.999s21 -71.666 37 -96.999
s35.333 -44 58 -56s48 -18 76 -18c22 0 41.5 2.16699 58.5 6.5s32.333 10.5 46 18.5s26.167 17.5 37.5 28.5s22 23.167 32 36.5v405z" />
    <glyph glyph-name="e" unicode="e" horiz-adv-x="1102" 
d="M1014 537c0 -20.667 -0.333984 -38.3301 -1.00098 -52.9971s-1.66699 -27.334 -3 -38.001h-643c2.66699 -36.667 10.834 -67.834 24.501 -93.501s30.667 -46.5 51 -62.5s43.166 -27.667 68.499 -35s51 -11 77 -11c19.333 0 37.333 1.5 54 4.5s33.5 8 50.5 15
s32 15.167 45 24.5s24.5 19.666 34.5 30.999l201 -167c-21.333 -28 -46.666 -52.833 -75.999 -74.5s-61 -40 -95 -55s-69.167 -26.333 -105.5 -34s-72.5 -11.5 -108.5 -11.5c-59.333 0 -112.5 7.16699 -159.5 21.5s-88.167 33.5 -123.5 57.5s-66.666 51.833 -93.999 83.5
s-50.333 67 -69 106s-33.334 82.667 -44.001 131s-16 101.833 -16 160.5c0 82 12.167 157.5 36.5 226.5s58 128.167 101 177.5s93.667 87.833 152 115.5s121.5 41.5 189.5 41.5c72 0 136 -14.833 192 -44.5s103.333 -70 142 -121s68.167 -110.5 88.5 -178.5
s30.5 -140.333 30.5 -217zM738.999 659.004c-2 24 -7.16699 47.665 -15.5 70.998s-20.333 44 -36 62s-35 32.5 -58 43.5s-50.5 16.5 -82.5 16.5c-26 0 -49.167 -5 -69.5 -15s-38 -23.667 -53 -41s-27 -37.666 -36 -60.999s-14.833 -48.666 -17.5 -75.999h368z" />
    <glyph glyph-name="f" unicode="f" horiz-adv-x="758" 
d="M692 1229c-14 7.33301 -28.667 12.8311 -44 16.498s-33.333 5.5 -54 5.5c-22 0 -40 -1.83301 -54 -5.5s-24.5 -9.16699 -31.5 -16.5s-12 -16.666 -15 -27.999s-4.5 -23.333 -4.5 -36v-90h183v-266h-183v-809h-282v809h-129v266h129v129c0 50 6.83301 93 20.5 129
s33.5 65.333 59.5 88s58 39.334 96 50.001s81.667 16 131 16c38 0 71.667 -2.83301 101 -8.5s55 -13.167 77 -22.5v-227z" />
    <glyph glyph-name="g" unicode="g" horiz-adv-x="1151" 
d="M1010 166c0 -100 -11.5 -184.832 -34.5 -254.499s-56.833 -125.5 -101.5 -167.5c-41.333 -39.333 -92.833 -71.333 -154.5 -96s-136.167 -39.667 -223.5 -45l-84 225c62.667 5.33301 114.5 13.166 155.5 23.499s72.5 23.5 94.5 39.5c20 14.667 35.667 35.167 47 61.5
s17.333 62.5 18 108.5v7c-13.333 -12 -27.5 -23 -42.5 -33s-32 -19.833 -51 -29.5s-39.333 -16.834 -61 -21.501s-45.834 -7 -72.501 -7c-57.333 0 -111.333 11.167 -162 33.5s-95 56.833 -133 103.5s-68 106.167 -90 178.5s-33 158.5 -33 258.5
c0 80 9.33301 153.5 28 220.5s45.667 124.667 81 173s79 86 131 113s111.333 40.5 178 40.5c22.667 0 45.167 -2 67.5 -6s44 -10.5 65 -19.5s38.833 -18.167 53.5 -27.5s28.334 -19.666 41.001 -30.999v61h283v-909zM553 244.001c38.667 0 71.833 7.49902 99.5 22.499
s52.5 37.5 74.5 67.5v405c-10.667 14.667 -21.5 27 -32.5 37s-24.5 19.333 -40.5 28s-33.667 15.334 -53 20.001s-40.666 7 -63.999 7c-54.667 0 -96.334 -23 -125.001 -69s-43 -114.333 -43 -205c0 -107.333 16.167 -186.333 48.5 -237s77.5 -76 135.5 -76z" />
    <glyph glyph-name="h" unicode="h" horiz-adv-x="1196" 
d="M786 0v582.001c0 85.333 -13.5 148.166 -40.5 188.499s-74.167 60.5 -141.5 60.5c-29.333 0 -55.333 -4 -78 -12s-41.834 -21.333 -57.501 -40s-27.667 -43.5 -36 -74.5s-12.5 -69.833 -12.5 -116.5v-588h-283v1352l283 141v-489c11.333 12 26 23.833 44 35.5
s37.667 22 59 31s44.166 15.833 68.499 20.5s51.166 7 80.499 7c68.667 0 127.834 -11.5 177.501 -34.5s90.834 -55.667 123.501 -98s56.834 -93.833 72.501 -154.5s23.5 -129 23.5 -205v-606h-283z" />
    <glyph glyph-name="i" unicode="i" horiz-adv-x="578" 
d="M451 1325c0 -22 -4.33301 -42.833 -13 -62.5s-20.334 -36.834 -35.001 -51.501s-31.834 -26.334 -51.501 -35.001s-40.5 -13 -62.5 -13s-42.833 4.33301 -62.5 13s-36.834 20.334 -51.501 35.001s-26.334 31.834 -35.001 51.501s-13 40.5 -13 62.5
s4.33301 42.833 13 62.5s20.334 36.834 35.001 51.501s31.834 26.334 51.501 35.001s40.5 13 62.5 13s42.833 -4.33301 62.5 -13s36.834 -20.334 51.501 -35.001s26.334 -31.834 35.001 -51.501s13 -40.5 13 -62.5zM147 0v1075h283v-1075h-283z" />
    <glyph glyph-name="j" unicode="j" horiz-adv-x="578" 
d="M451 1325c0 -22 -4.33301 -42.833 -13 -62.5s-20.334 -36.834 -35.001 -51.501s-31.834 -26.334 -51.501 -35.001s-40.5 -13 -62.5 -13s-42.833 4.33301 -62.5 13s-36.834 20.334 -51.501 35.001s-26.334 31.834 -35.001 51.501s-13 40.5 -13 62.5
s4.33301 42.833 13 62.5s20.334 36.834 35.001 51.501s31.834 26.334 51.501 35.001s40.5 13 62.5 13s42.833 -4.33301 62.5 -13s36.834 -20.334 51.501 -35.001s26.334 -31.834 35.001 -51.501s13 -40.5 13 -62.5zM430 80c0 -75.333 -6.50098 -140 -19.501 -194
s-35.5 -99.5 -67.5 -136.5s-75.167 -67 -129.5 -90s-122.833 -41.167 -205.5 -54.5l-98 217c48.667 9.33301 88.334 19.5 119.001 30.5s54.667 25.5 72 43.5s29.333 40.667 36 68s10 62 10 104v1007h283v-995z" />
    <glyph glyph-name="k" unicode="k" horiz-adv-x="1128" 
d="M762 0l-205 496l-137 -170v-326h-283v1352l283 141v-786l285 368h333l-276 -342l309 -733h-309z" />
    <glyph glyph-name="l" unicode="l" horiz-adv-x="578" 
d="M147 0v1352l283 141v-1493h-283z" />
    <glyph glyph-name="m" unicode="m" horiz-adv-x="1804" 
d="M1395 0l0.00195312 582c0 48 -3.5 88 -10.5 120s-17.667 57.5 -32 76.5s-32.333 32.5 -54 40.5s-46.834 12 -75.501 12c-29.333 0 -54.833 -4 -76.5 -12s-39.834 -21.333 -54.501 -40s-25.5 -43.5 -32.5 -74.5s-10.5 -69.833 -10.5 -116.5v-588h-283v582
c0 48 -3.5 88 -10.5 120s-17.5 57.5 -31.5 76.5s-31.833 32.5 -53.5 40.5s-47.167 12 -76.5 12s-54.833 -4 -76.5 -12s-39.834 -21.333 -54.501 -40s-25.5 -43.5 -32.5 -74.5s-10.5 -69.833 -10.5 -116.5v-588h-283v1075h283v-71c24.667 25.333 56 47.333 94 66
s85 28 141 28c70 0 127.167 -10.667 171.5 -32s86.166 -56.333 125.499 -105c18.667 18.667 38.5 36.334 59.5 53.001s45 31.167 72 43.5s57.667 22.166 92 29.499s73.833 11 118.5 11c68.667 0 127.334 -11.5 176.001 -34.5s88.334 -55.667 119.001 -98
s53 -93.833 67 -154.5s21 -129 21 -205v-606h-282z" />
    <glyph glyph-name="n" unicode="n" horiz-adv-x="1196" 
d="M786 0l-0.00195312 581.999c0 84.667 -13.5 147.334 -40.5 188.001s-74.167 61 -141.5 61c-29.333 0 -55.333 -4 -78 -12s-41.834 -21.333 -57.501 -40s-27.667 -43.5 -36 -74.5s-12.5 -69.833 -12.5 -116.5v-588h-283v1075h283v-71c12 12 26.5 23.667 43.5 35
s36.833 21.833 59.5 31.5s46.5 16.667 71.5 21s50.833 6.5 77.5 6.5c68.667 0 127.834 -11.5 177.501 -34.5s90.834 -55.667 123.501 -98s56.834 -93.833 72.501 -154.5s23.5 -129 23.5 -205v-606h-283z" />
    <glyph glyph-name="o" unicode="o" horiz-adv-x="1137" 
d="M1055 537c0 -82.667 -12.167 -158.334 -36.5 -227.001s-58.333 -127.667 -102 -177s-95.334 -87.666 -155.001 -114.999s-124.5 -41 -194.5 -41s-134.667 13.667 -194 41s-110.5 65.666 -153.5 114.999s-76.667 108.333 -101 177s-36.5 144.334 -36.5 227.001
c0 82 12.167 157.5 36.5 226.5s58 128.167 101 177.5s94.167 87.833 153.5 115.5s124 41.5 194 41.5s134.833 -13.833 194.5 -41.5s111.334 -66.167 155.001 -115.5s77.667 -108.5 102 -177.5s36.5 -144.5 36.5 -226.5zM768 537c0 40.667 -4.16699 78.4961 -12.5 113.496
s-20.833 65.5 -37.5 91.5s-37.5 46.333 -62.5 61s-54.5 22 -88.5 22s-63.333 -7.33301 -88 -22s-45.167 -34.834 -61.5 -60.501s-28.5 -56 -36.5 -91s-12 -73.167 -12 -114.5s4 -79.666 12 -114.999s20.167 -65.666 36.5 -90.999s36.833 -45.166 61.5 -59.499
s54 -21.5 88 -21.5s63.5 7.83301 88.5 23.5s45.833 36.834 62.5 63.501s29.167 57.334 37.5 92.001s12.5 70.667 12.5 108z" />
    <glyph glyph-name="p" unicode="p" horiz-adv-x="1151" 
d="M1065 524c0 -80 -9.33203 -153.5 -27.999 -220.5s-45.834 -124.667 -81.501 -173s-79.334 -86 -131.001 -113s-110.834 -40.5 -177.501 -40.5c-47.333 0 -90.666 8.16699 -129.999 24.5s-71.666 36.166 -96.999 59.499v-315l-283 -141v1470h283v-67
c31.333 28.667 66 50.834 104 66.501s79 23.5 123 23.5c57.333 0 111.333 -11 162 -33s95 -56.333 133 -103s68 -106.167 90 -178.5s33 -158.833 33 -259.5zM778.001 518c0 102 -15.502 179.667 -46.502 233s-76.833 80 -137.5 80c-38 0 -70.5 -7 -97.5 -21
s-52.5 -37 -76.5 -69v-405c12 -16 24.167 -29.333 36.5 -40s26.5 -20 42.5 -28s33.333 -14 52 -18s38.334 -6 59.001 -6c54.667 0 96.334 23 125.001 69s43 114.333 43 205z" />
    <glyph glyph-name="q" unicode="q" horiz-adv-x="1151" 
d="M727 -395l0.000976562 463c-26.667 -24 -58.334 -45.167 -95.001 -63.5s-80.667 -27.5 -132 -27.5c-57.333 0 -111.333 11.167 -162 33.5s-95 56.833 -133 103.5s-68 106.167 -90 178.5s-33 158.5 -33 258.5c0 80 9.33301 153.5 28 220.5s45.667 124.667 81 173
s79 86 131 113s111.333 40.5 178 40.5c25.333 0 48.833 -2.16699 70.5 -6.5s43 -11 64 -20s39 -18.333 54 -28s27.833 -19.5 38.5 -29.5v61h283v-1329zM727.001 739c-9.33301 13.333 -20.666 25.999 -33.999 37.999s-29.166 22.333 -47.499 31s-36.333 14.667 -54 18
s-35.834 5 -54.501 5c-54.667 0 -96.334 -23 -125.001 -69s-43 -114.333 -43 -205c0 -102 15.5 -179.667 46.5 -233s76.833 -80 137.5 -80c36.667 0 68.667 6.83301 96 20.5s53.333 36.834 78 69.501v405z" />
    <glyph glyph-name="r" unicode="r" horiz-adv-x="877" 
d="M766 745c-22.667 20.667 -47.667 37.5 -75 50.5s-57 19.5 -89 19.5c-66.667 0 -113.667 -19.167 -141 -57.5s-41 -96.833 -41 -175.5v-582h-283v1075h283v-71c11.333 12 24.833 23.667 40.5 35s33 21.833 52 31.5s39.5 16.667 61.5 21s44.333 6.5 67 6.5
c46 0 86 -7.83301 120 -23.5s60.333 -33.167 79 -52.5z" />
    <glyph glyph-name="s" unicode="s" horiz-adv-x="1100" 
d="M954 993l-90 -222.997c-53.333 28.667 -107.5 50.167 -162.5 64.5s-105.167 21.5 -150.5 21.5c-50 0 -86.667 -4.83301 -110 -14.5s-35 -28.167 -35 -55.5c0 -11.333 2.66699 -21.333 8 -30s16 -17.334 32 -26.001s38.5 -18.334 67.5 -29.001s67.5 -23.667 115.5 -39
c48 -16 93.667 -33.167 137 -51.5s81.333 -40.5 114 -66.5s58.667 -57.5 78 -94.5s29 -82.5 29 -136.5c0 -62 -11.5 -114.333 -34.5 -157s-54.333 -77.167 -94 -103.5s-86 -45.5 -139 -57.5s-109.833 -18 -170.5 -18c-82 0 -162.667 11.167 -242 33.5s-149 52.833 -209 91.5
l95 215c57.333 -32 116.5 -56.333 177.5 -73s125.833 -25 194.5 -25c53.333 0 90.666 6.5 111.999 19.5s32 33.833 32 62.5c0 12 -2.66699 22.833 -8 32.5s-14.166 18.667 -26.499 27s-28.5 16.5 -48.5 24.5s-45 16.333 -75 25c-64.667 19.333 -123 38.666 -175 57.999
s-96.5 42.5 -133.5 69.5s-65.5 59.667 -85.5 98s-30 85.833 -30 142.5c0 56 10.5 104.167 31.5 144.5s50.5 73.5 88.5 99.5s83.333 45.167 136 57.5s110.667 18.5 174 18.5c68 0 136.833 -9.5 206.5 -28.5s133.167 -44.5 190.5 -76.5z" />
    <glyph glyph-name="t" unicode="t" horiz-adv-x="905" 
d="M737 43c-23.333 -18.667 -54.668 -34.3301 -94.001 -46.9971s-81 -19 -125 -19c-43.333 0 -82.666 8 -117.999 24s-65.5 38.5 -90.5 67.5s-44.333 63.167 -58 102.5s-20.5 82.666 -20.5 129.999v508h-180v266h180v277l283 141v-418h258v-266h-258v-432
c0 -26 2.33301 -47.333 7 -64s11.334 -29.834 20.001 -39.501s19.5 -16.334 32.5 -20.001s27.833 -5.5 44.5 -5.5c25.333 0 50.166 6.33301 74.499 19s52.833 33.667 85.5 63z" />
    <glyph glyph-name="u" unicode="u" horiz-adv-x="1196" 
d="M776 0v72.001c-24.667 -26 -58.667 -48.333 -102 -67s-93.333 -28 -150 -28c-129.333 0 -227.833 41.667 -295.5 125s-101.5 205.666 -101.5 366.999v606h283v-581c0 -86.667 13.667 -150 41 -190s74.333 -60 141 -60c67.333 0 114.833 20.5 142.5 61.5
s41.5 101.5 41.5 181.5v588h283v-1075h-283z" />
    <glyph glyph-name="v" unicode="v" horiz-adv-x="1167" 
d="M729 0h-291l-387 1075h311l226 -709l225 709h303z" />
    <glyph glyph-name="w" unicode="w" horiz-adv-x="1520" 
d="M1159 0h-235l-164 646l-164 -646h-236l-309 1075h287l145 -616l164 616h234l163 -616l146 616h278z" />
    <glyph glyph-name="x" unicode="x" horiz-adv-x="1176" 
d="M795 0l-207 342l-207 -342h-336l381 582l-324 493h336l150 -258l149 258h336l-323 -493l380 -582h-335z" />
    <glyph glyph-name="y" unicode="y" horiz-adv-x="1208" 
d="M604 -379h-278l143 379l-418 1075h311l246 -724l246 724h303z" />
    <glyph glyph-name="z" unicode="z" horiz-adv-x="1135" 
d="M123 0v205l516 614h-481v256h854v-205l-502 -614h502v-256h-889z" />
    <glyph glyph-name="braceleft" unicode="{" horiz-adv-x="942" 
d="M834 -225c-94 0 -175.167 9.16992 -243.5 27.5029s-124.666 45.5 -168.999 81.5s-77.166 81 -98.499 135s-32 116.667 -32 188v145c0 50 -10.5 86.167 -31.5 108.5s-51.5 33.5 -91.5 33.5h-45v229h45c40 0 70.5 11.167 91.5 33.5s31.5 58.166 31.5 107.499v148
c0 70.667 10.667 133 32 187s54.166 99.167 98.499 135.5s100.666 63.666 168.999 81.999s149.5 27.5 243.5 27.5v-187c-51.333 -5.33301 -93.5 -14.166 -126.5 -26.499s-59.167 -29.333 -78.5 -51s-32.666 -48 -39.999 -79s-11 -67.5 -11 -109.5v-63
c0 -55.333 -4 -101.333 -12 -138s-20 -66.834 -36 -90.501s-36.167 -42.334 -60.5 -56.001s-53.166 -25.5 -86.499 -35.5c33.333 -10 62.166 -21.833 86.499 -35.5s44.5 -32.334 60.5 -56.001s28 -53.667 36 -90s12 -82.166 12 -137.499v-62c0 -42 3.66699 -78.5 11 -109.5
s20.666 -57.167 39.999 -78.5s45.5 -38.333 78.5 -51s75.167 -21.667 126.5 -27v-186z" />
    <glyph glyph-name="bar" unicode="|" horiz-adv-x="584" 
d="M164 -379v2017h256v-2017h-256z" />
    <glyph glyph-name="braceright" unicode="}" horiz-adv-x="942" 
d="M774 496c-40 0 -70.5 -11.1699 -91.5 -33.5029s-31.5 -58.5 -31.5 -108.5v-147c0 -71.333 -10.667 -134 -32 -188s-54 -99 -98 -135s-100.167 -63.167 -168.5 -81.5s-149.5 -27.5 -243.5 -27.5v186c50.667 5.33301 92.667 14.333 126 27s59.5 29.667 78.5 51
s32.333 47.5 40 78.5s11.5 67.5 11.5 109.5v64c0 55.333 3.83301 101.166 11.5 137.499s19.5 66.333 35.5 90s36.167 42.334 60.5 56.001s53.166 25.5 86.499 35.5c-33.333 10 -62.166 21.833 -86.499 35.5s-44.5 32.334 -60.5 56.001s-27.833 53.834 -35.5 90.501
s-11.5 82.667 -11.5 138v61c0 42 -3.83301 78.5 -11.5 109.5s-21 57.333 -40 79s-45.167 38.667 -78.5 51s-75.333 21.166 -126 26.499v187c94 0 175.167 -9.16699 243.5 -27.5s124.5 -45.666 168.5 -81.999s76.667 -81.5 98 -135.5s32 -116.333 32 -187v-146
c0 -49.333 10.5 -85.166 31.5 -107.499s51.5 -33.5 91.5 -33.5h45v-229h-45z" />
    <glyph glyph-name="asciitilde" unicode="~" horiz-adv-x="1151" 
d="M1065 868c-18.667 -47.333 -38.334 -89.998 -59.001 -127.998s-43.5 -70.333 -68.5 -97s-52.667 -47.334 -83 -62.001s-64.5 -22 -102.5 -22c-21.333 0 -40.333 1.5 -57 4.5s-32.5 7.33301 -47.5 13s-30 12.834 -45 21.501s-30.833 19 -47.5 31
c-39.333 26.667 -71 47 -95 61s-45.667 21 -65 21c-14 0 -26.333 -1.83301 -37 -5.5s-21 -10.834 -31 -21.501s-20.667 -25.5 -32 -44.5s-25 -43.833 -41 -74.5l-168 86c18.667 47.333 38.334 90 59.001 128s43.5 70.5 68.5 97.5s52.667 47.833 83 62.5s64.5 22 102.5 22
c20.667 0 39.5 -1.5 56.5 -4.5s33 -7.33301 48 -13s29.833 -12.834 44.5 -21.501s30.667 -19 48 -31c24 -17.333 51 -35.333 81 -54s56.333 -28 79 -28c14 0 26.167 1.83301 36.5 5.5s20.5 10.667 30.5 21s20.667 25 32 44s25.333 43.833 42 74.5z" />
    <glyph glyph-name="exclamdown" unicode="&#xa1;" horiz-adv-x="696" 
d="M522 1282c0 -23.333 -4.66699 -45.5 -14 -66.5s-22 -39.5 -38 -55.5s-34.5 -28.667 -55.5 -38s-43.167 -14 -66.5 -14s-45.5 4.66699 -66.5 14s-39.5 22 -55.5 38s-28.667 34.5 -38 55.5s-14 43.167 -14 66.5s4.66699 45.5 14 66.5s22 39.5 38 55.5s34.5 28.667 55.5 38
s43.167 14 66.5 14s45.5 -4.66699 66.5 -14s39.5 -22 55.5 -38s28.667 -34.5 38 -55.5s14 -43.167 14 -66.5zM205 0v590l47 393h192l48 -393v-590h-287z" />
    <glyph glyph-name="cent" unicode="&#xa2;" 
d="M958 907c-17.333 24 -35.002 44.999 -53.002 62.999s-37.333 33 -58 45s-43.5 21 -68.5 27s-53.167 9 -84.5 9c-43.333 0 -82.833 -7.16699 -118.5 -21.5s-66.167 -35 -91.5 -62s-45.166 -60 -59.499 -99s-21.5 -82.833 -21.5 -131.5
c0 -50.667 6.83301 -96.334 20.5 -137.001s33.5 -75.167 59.5 -103.5s58.167 -50.166 96.5 -65.499s82.166 -23 131.499 -23c58.667 0 110.334 12.333 155.001 37s85.667 58.667 123 102l178 -176c-42 -46 -89.333 -85.667 -142 -119s-113.667 -56.666 -183 -69.999v-205
h-310v207c-64.667 14.667 -122.667 37.667 -174 69s-95 70 -131 116s-63.667 99.167 -83 159.5s-29 126.5 -29 198.5c0 73.333 10.5 140.166 31.5 200.499s50.167 113.5 87.5 159.5s81.333 84.333 132 115s106 53.334 166 68.001v192h310v-182
c78 -14.667 143.333 -39.167 196 -73.5s96.334 -74.833 131.001 -121.5z" />
    <glyph glyph-name="sterling" unicode="&#xa3;" 
d="M156 0l0.00195312 205.001c26 26 49.5 51.667 70.5 77s39.333 52 55 80s28.167 58.167 37.5 90.5s15.666 68.5 18.999 108.5h-180v215h153c-7.33301 17.333 -15.333 34.5 -24 51.5s-18.334 34.833 -29.001 53.5s-19.167 35 -25.5 49s-12.5 29.667 -18.5 47
s-10.333 35.5 -13 54.5s-4 39.833 -4 62.5c0 56 10.833 106.333 32.5 151s53.334 82.667 95.001 114s92.667 55.333 153 72s129.166 25 206.499 25c96 0 184 -16.667 264 -50s152.333 -83 217 -149l-155 -186c-52 50 -104.5 86.333 -157.5 109s-110.5 34 -172.5 34
c-34 0 -63.5 -3.83301 -88.5 -11.5s-45.667 -18.167 -62 -31.5s-28.5 -29.166 -36.5 -47.499s-12 -37.833 -12 -58.5c0 -25.333 3.66699 -49.333 11 -72s18 -46.334 32 -71.001c12.667 -21.333 24.834 -44.333 36.501 -69s22.167 -50.334 31.5 -77.001h291v-215h-277
c-3.33301 -36 -8.83301 -69.167 -16.5 -99.5s-17.334 -58.833 -29.001 -85.5s-24.667 -51.5 -39 -74.5s-29.833 -44.833 -46.5 -65.5h678v-236h-997z" />
    <glyph glyph-name="currency" unicode="&#xa4;" horiz-adv-x="1307" 
d="M702 -23c-96 0 -181.333 18.001 -256 54.001s-137.5 86.5 -188.5 151.5s-89.667 143 -116 234s-39.5 191.167 -39.5 300.5c0 116 14.5 219.833 43.5 311.5s70 169.167 123 232.5s116.667 111.666 191 144.999s156.833 50 247.5 50c70.667 0 132 -7.83301 184 -23.5
s97.667 -38.834 137 -69.501s73.833 -68.5 103.5 -113.5s57.167 -96.833 82.5 -155.5l-241 -117c-17.333 34 -34.333 64.167 -51 90.5s-35.334 48.166 -56.001 65.499s-44.167 30.5 -70.5 39.5s-57.5 13.5 -93.5 13.5c-65.333 0 -123 -17.5 -173 -52.5
s-87.667 -91.833 -113 -170.5h415v-189h-446c-1.33301 -9.33301 -2 -19 -2 -29v-30v-30c0 -9.33301 0.666992 -18.666 2 -27.999h446v-188h-415c26.667 -77.333 65 -133.5 115 -168.5s108.667 -52.5 176 -52.5c34.667 0 65.334 4 92.001 12s51.167 20.333 73.5 37
s43.333 37.334 63 62.001s40.167 53.667 61.5 87l234 -139c-26 -43.333 -55 -85 -87 -125s-69.167 -75.167 -111.5 -105.5s-90.5 -54.5 -144.5 -72.5s-116 -27 -186 -27z" />
    <glyph glyph-name="yen" unicode="&#xa5;" 
d="M776 545v-90h309v-230h-309v-225h-280v225h-312v230h312v86l-465 893h329l277 -615l278 615h324z" />
    <glyph glyph-name="brokenbar" unicode="&#xa6;" horiz-adv-x="643" 
d="M193 1638h260v-874h-260v874zM193 496h260v-875h-260v875z" />
    <glyph glyph-name="section" unicode="&#xa7;" horiz-adv-x="1434" 
d="M1321 514c0 -42.667 -5.83887 -81.168 -17.5059 -115.501s-27.5 -65.166 -47.5 -92.499s-43.667 -51.666 -71 -72.999s-57 -40.333 -89 -57c12.667 -21.333 22.667 -46.5 30 -75.5s11 -63.167 11 -102.5c0 -47.333 -9.16699 -91.333 -27.5 -132s-45.5 -76 -81.5 -106
s-80.5 -53.5 -133.5 -70.5s-114.167 -25.5 -183.5 -25.5c-83.333 0 -162.666 12.167 -237.999 36.5s-143 58.5 -203 102.5l142 197c48 -34 100.167 -59.167 156.5 -75.5s109.833 -24.5 160.5 -24.5c45.333 0 80.5 7.5 105.5 22.5s37.5 39.5 37.5 73.5
c0 16 -4.33301 30 -13 42s-25.167 24.333 -49.5 37s-58.666 26.834 -102.999 42.501s-102.5 35.167 -174.5 58.5c-67.333 22.667 -127.166 46.5 -179.499 71.5s-96.166 54.167 -131.499 87.5s-62.166 71.833 -80.499 115.5s-27.5 95.5 -27.5 155.5
c0 42.667 5.83301 81.167 17.5 115.5s27.5 65.333 47.5 93s43.5 52.167 70.5 73.5s56.167 40 87.5 56c-13.333 23.333 -23.166 49.666 -29.499 78.999s-9.5 62.333 -9.5 99c0 47.333 9.16699 91.333 27.5 132s45.333 76 81 106s80 53.5 133 70.5s114.5 25.5 184.5 25.5
c83.333 0 162.5 -12.167 237.5 -36.5s142.5 -58.5 202.5 -102.5l-141 -197c-42 30 -92.5 54.333 -151.5 73s-114.167 28 -165.5 28c-27.333 0 -50.166 -2.5 -68.499 -7.5s-33.166 -11.667 -44.499 -20s-19.333 -18.5 -24 -30.5s-7 -25 -7 -39c0 -16 4.33301 -30 13 -42
s25.167 -24.333 49.5 -37s58.666 -26.834 102.999 -42.501s102.5 -35.167 174.5 -58.5c67.333 -22.667 127.166 -46.5 179.499 -71.5s96.333 -54 132 -87s62.667 -71.5 81 -115.5s27.5 -96 27.5 -156zM1046.99 493.999c0 28.667 -8.16309 53.498 -24.4961 74.498
s-37.833 39.5 -64.5 55.5s-57 30.333 -91 43l-105 38c-49.333 16 -94.333 31.833 -135 47.5s-77 31.167 -109 46.5c-43.333 -18.667 -76 -41.667 -98 -69s-33 -61.666 -33 -102.999c0 -29.333 8.16699 -54.5 24.5 -75.5s37.666 -39.5 63.999 -55.5
s56.666 -30.333 90.999 -43s69.5 -25 105.5 -37c49.333 -16.667 94.166 -32.667 134.499 -48s76.5 -30.666 108.5 -45.999c43.333 18 76.166 40.833 98.499 68.5s33.5 62.167 33.5 103.5z" />
    <glyph glyph-name="dieresis" unicode="&#xa8;" horiz-adv-x="1024" 
d="M893 1376c0 -21.333 -4.33301 -41.333 -13 -60s-20.167 -35.334 -34.5 -50.001s-31.166 -26.167 -50.499 -34.5s-39.333 -12.5 -60 -12.5c-22 0 -42.833 4.16699 -62.5 12.5s-36.834 19.833 -51.501 34.5s-26.334 31.334 -35.001 50.001s-13 38.667 -13 60
c0 22 4.33301 42.667 13 62s20.334 36.333 35.001 51s31.834 26.167 51.501 34.5s40.5 12.5 62.5 12.5c20.667 0 40.667 -4.16699 60 -12.5s36.166 -19.833 50.499 -34.5s25.833 -31.667 34.5 -51s13 -40 13 -62zM451 1376c0 -21.333 -4.33301 -41.333 -13 -60
s-20.334 -35.334 -35.001 -50.001s-31.667 -26.167 -51 -34.5s-39.666 -12.5 -60.999 -12.5s-41.666 4.16699 -60.999 12.5s-36.333 19.833 -51 34.5s-26.334 31.334 -35.001 50.001s-13 38.667 -13 60c0 22 4.33301 42.667 13 62s20.334 36.333 35.001 51
s31.667 26.167 51 34.5s39.666 12.5 60.999 12.5s41.666 -4.16699 60.999 -12.5s36.333 -19.833 51 -34.5s26.334 -31.667 35.001 -51s13 -40 13 -62z" />
    <glyph glyph-name="copyright" unicode="&#xa9;" horiz-adv-x="1712" 
d="M1595 717c0 -105.333 -18.833 -202.999 -56.5 -292.999s-89.5 -168.167 -155.5 -234.5s-144 -118.333 -234 -156s-187.667 -56.5 -293 -56.5s-203 18.833 -293 56.5s-168 89.667 -234 156s-117.833 144.5 -155.5 234.5s-56.5 187.667 -56.5 293s18.833 203 56.5 293
s89.5 168.167 155.5 234.5s144.5 118.166 235.5 155.499s188.167 56 291.5 56c105.333 0 203.333 -19 294 -57s168.667 -89.833 234 -155.5s116.833 -143.5 154.5 -233.5s56.5 -187.667 56.5 -293zM1464 717.001c0 86.667 -15.5 167 -46.5 241s-73.667 138.167 -128 192.5
s-118.5 97 -192.5 128s-154.333 46.5 -241 46.5s-167 -15.5 -241 -46.5s-138.167 -73.667 -192.5 -128s-97 -118.5 -128 -192.5s-46.5 -154.333 -46.5 -241s15.5 -167 46.5 -241s73.667 -138.167 128 -192.5s118.5 -97 192.5 -128s154.333 -46.5 241 -46.5
s167 15.5 241 46.5s138.167 73.667 192.5 128s97 118.5 128 192.5s46.5 154.333 46.5 241zM1001 870.001c-16 29.333 -34.502 51.8359 -55.502 67.5029s-47.5 23.5 -79.5 23.5c-22 0 -43.333 -4.5 -64 -13.5s-38.334 -23.833 -53.001 -44.5s-25.667 -45.834 -33 -75.501
s-11 -65.167 -11 -106.5c0 -42 3.83301 -77.5 11.5 -106.5s19.334 -53.833 35.001 -74.5s33.334 -35.334 53.001 -44.001s40.834 -13 63.501 -13c30 0 56.5 9 79.5 27s45.167 44 66.5 78l143 -99c-32 -59.333 -71.333 -104.833 -118 -136.5s-105 -47.5 -175 -47.5
c-52.667 0 -100.667 9.83301 -144 29.5s-80.333 47.5 -111 83.5s-54.5 79.667 -71.5 131s-25.5 108.666 -25.5 171.999c0 60.667 8.66699 116.667 26 168s41.833 95.5 73.5 132.5s69.334 65.833 113.001 86.5s91.5 31 143.5 31c69.333 0 128.666 -15 177.999 -45
s88.333 -74.333 117 -133z" />
    <glyph glyph-name="ordfeminine" unicode="&#xaa;" horiz-adv-x="977" 
d="M627 565l0.000976562 63.999c-23.333 -24.667 -52.333 -44.167 -87 -58.5s-72.667 -21.5 -114 -21.5c-40.667 0 -80.5 6.16699 -119.5 18.5s-73.833 31.333 -104.5 57s-55.334 57.834 -74.001 96.501s-28 84.334 -28 137.001c0 48 9.16699 90.167 27.5 126.5
s43.5 66.5 75.5 90.5s69.5 42 112.5 54s89.5 18 139.5 18c40 0 74 -3.5 102 -10.5s51.333 -15.167 70 -24.5v43c0 32 -11 59.167 -33 81.5s-54 33.5 -96 33.5c-55.333 0 -100.5 -4.83301 -135.5 -14.5s-70.5 -24.834 -106.5 -45.501l-86 160
c52 28.667 102.667 50.167 152 64.5s108 21.5 176 21.5c52.667 0 100.667 -6.66699 144 -20s80.333 -33 111 -59s54.5 -58 71.5 -96s25.5 -81.333 25.5 -130v-586h-223zM627.001 933.999c-21.333 12 -44 20.834 -68 26.501s-56 8.5 -96 8.5c-44 0 -77.833 -9.5 -101.5 -28.5
s-35.5 -46.5 -35.5 -82.5c0 -36.667 12 -66 36 -88s57.667 -33 101 -33c31.333 0 62 7.66699 92 23s54 35.666 72 60.999v113z" />
    <glyph glyph-name="guillemotleft" unicode="&#xab;" horiz-adv-x="1286" 
d="M911 0l-333 537l333 538h293l-323 -536l323 -539h-293zM395 0l-334 537l334 538h293l-323 -536l323 -539h-293z" />
    <glyph glyph-name="logicalnot" unicode="&#xac;" 
d="M1150 182h-281v389h-749v267h1030v-656z" />
    <glyph glyph-name="registered" unicode="&#xae;" horiz-adv-x="1712" 
d="M1595 717c0 -105.333 -18.833 -202.999 -56.5 -292.999s-89.5 -168.167 -155.5 -234.5s-144 -118.333 -234 -156s-187.667 -56.5 -293 -56.5s-203 18.833 -293 56.5s-168 89.667 -234 156s-117.833 144.5 -155.5 234.5s-56.5 187.667 -56.5 293s18.833 203 56.5 293
s89.5 168.167 155.5 234.5s144.5 118.166 235.5 155.499s188.167 56 291.5 56c105.333 0 203.333 -19 294 -57s168.667 -89.833 234 -155.5s116.833 -143.5 154.5 -233.5s56.5 -187.667 56.5 -293zM1464 717.001c0 86.667 -15.5 167 -46.5 241s-73.667 138.167 -128 192.5
s-118.5 97 -192.5 128s-154.333 46.5 -241 46.5s-167 -15.5 -241 -46.5s-138.167 -73.667 -192.5 -128s-97 -118.5 -128 -192.5s-46.5 -154.333 -46.5 -241s15.5 -167 46.5 -241s73.667 -138.167 128 -192.5s118.5 -97 192.5 -128s154.333 -46.5 241 -46.5
s167 15.5 241 46.5s138.167 73.667 192.5 128s97 118.5 128 192.5s46.5 154.333 46.5 241zM1208 881.001c0 -56.667 -12.502 -104.833 -37.502 -144.5s-65.5 -70.167 -121.5 -91.5l155 -317h-192l-146 295h-139v-295h-170v807h375c38.667 0 74.834 -5.16699 108.501 -15.5
s62.834 -26 87.501 -47s44.167 -47.5 58.5 -79.5s21.5 -69.333 21.5 -112zM1034 877.002c0 36 -10.001 62 -30.001 78s-48 24 -84 24h-193v-207h193c36.667 0 64.834 9 84.501 27s29.5 44 29.5 78z" />
    <glyph glyph-name="macron" unicode="&#xaf;" horiz-adv-x="1024" 
d="M215 1249v215h594v-215h-594z" />
    <glyph glyph-name="macron" unicode="&#x2c9;" horiz-adv-x="1024" 
d="M215 1249v215h594v-215h-594z" />
    <glyph glyph-name="degree" unicode="&#xb0;" horiz-adv-x="995" 
d="M903 1053c0 -58 -10.333 -111.833 -31 -161.5s-49.167 -92.834 -85.5 -129.501s-79.166 -65.334 -128.499 -86.001s-102.666 -31 -159.999 -31s-110.666 10.333 -159.999 31s-92.166 49.334 -128.499 86.001s-65 79.834 -86 129.501s-31.5 103.5 -31.5 161.5
c0 56 10.5 108.5 31.5 157.5s49.667 91.667 86 128s79.166 65 128.499 86s102.666 31.5 159.999 31.5s110.666 -10.5 159.999 -31.5s92.166 -49.667 128.499 -86s64.833 -79 85.5 -128s31 -101.5 31 -157.5zM688 1053c0 26 -4.83301 50.5 -14.5 73.5s-23 43.167 -40 60.5
s-37.167 31 -60.5 41s-48.333 15 -75 15s-51.667 -5 -75 -15s-43.5 -23.667 -60.5 -41s-30.5 -37.5 -40.5 -60.5s-15 -47.5 -15 -73.5c0 -28 5 -53.833 15 -77.5s23.5 -44.167 40.5 -61.5s37.167 -31 60.5 -41s48.333 -15 75 -15s51.667 5 75 15s43.5 23.667 60.5 41
s30.333 37.833 40 61.5s14.5 49.5 14.5 77.5z" />
    <glyph glyph-name="plusminus" unicode="&#xb1;" 
d="M775 797v-369h-281v369h-374v266h374v369h281v-369h375v-266h-375zM120 61v250h1030v-250h-1030z" />
    <glyph glyph-name="twosuperior" unicode="&#xb2;" horiz-adv-x="850" 
d="M72 530c2.66699 73.333 12.3281 136.335 28.9951 189.002s39.334 98.834 68.001 138.501s63 74.5 103 104.5s84.667 59 134 87c26.667 14.667 48.5 27.667 65.5 39s30.333 22.166 40 32.499s16.334 20.666 20.001 30.999s5.5 21.833 5.5 34.5
c0 24.667 -9.5 43.834 -28.5 57.501s-46.5 20.5 -82.5 20.5c-21.333 0 -41.833 -1.83301 -61.5 -5.5s-39 -9.33398 -58 -17.001s-38.167 -17.5 -57.5 -29.5s-39.666 -26.333 -60.999 -43l-110 164c27.333 19.333 54.333 36.5 81 51.5s54.167 27.667 82.5 38
s57.833 18.166 88.5 23.499s64 8 100 8c50 0 95 -5.5 135 -16.5s75 -28.5 105 -52.5s51.167 -52.167 63.5 -84.5s18.5 -67.166 18.5 -104.499c0 -32 -3.66699 -60.833 -11 -86.5s-19.5 -49.834 -36.5 -72.501s-39.667 -44.667 -68 -66s-63.833 -44 -106.5 -68
c-34 -19.333 -63.167 -37 -87.5 -53s-44.666 -31 -60.999 -45s-29.666 -27.333 -39.999 -40s-18.5 -26 -24.5 -40h443v-195h-688z" />
    <glyph glyph-name="threesuperior" unicode="&#xb3;" horiz-adv-x="801" 
d="M373 518c-68 0 -131.502 13.332 -190.502 39.999s-112.167 63.334 -159.5 110.001l127 141c38 -34 75 -59.5 111 -76.5s74.667 -25.5 116 -25.5c50 0 87.333 9.16699 112 27.5s37 45.166 37 80.499c0 34 -12 58.833 -36 74.5s-57.667 23.5 -101 23.5h-117v181h111
c37.333 0 64.333 7.5 81 22.5s25 37.5 25 67.5c0 25.333 -9.5 46 -28.5 62s-50.167 24 -93.5 24c-35.333 0 -67.833 -7.16699 -97.5 -21.5s-62.167 -35.833 -97.5 -64.5l-121 143c43.333 38 90.833 68.667 142.5 92s110.834 35 177.501 35c48.667 0 93.5 -5 134.5 -15
s76.333 -25.5 106 -46.5s52.667 -47.5 69 -79.5s24.5 -70.333 24.5 -115c0 -44 -8.33301 -80 -25 -108s-40.667 -51.333 -72 -70c20.667 -8.66699 39 -19.167 55 -31.5s30 -27 42 -44s20.667 -36.167 26 -57.5s8 -44.666 8 -69.999c0 -49.333 -8.5 -92.5 -25.5 -129.5
s-41.167 -68.167 -72.5 -93.5s-69.666 -44.333 -114.999 -57s-96.333 -19 -153 -19z" />
    <glyph glyph-name="acute" unicode="&#xb4;" horiz-adv-x="1024" 
d="M522 1219h-239l178 327h358z" />
    <glyph glyph-name="mu" unicode="&#xb5;" horiz-adv-x="1206" 
d="M786 0l-0.000976562 72c-24.667 -26 -58.5 -48.333 -101.5 -67s-92.833 -28 -149.5 -28c-10.667 0 -26 0.666992 -46 2s-43 5 -69 11v-244l-283 -141v1470h283v-581c0 -48 4 -88.167 12 -120.5s19.667 -58 35 -77s34.333 -32.5 57 -40.5s48.667 -12 78 -12
s55.333 4 78 12s41.834 21.333 57.501 40s27.667 43.5 36 74.5s12.5 69.833 12.5 116.5v588h283v-1075h-283z" />
    <glyph glyph-name="paragraph" unicode="&#xb6;" horiz-adv-x="1483" 
d="M1067 -379l0.00195312 1596h-131v-1596h-234v914h-141c-63.333 0 -123 9.83301 -179 29.5s-105.333 48.667 -148 87s-76.334 85.5 -101.001 141.5s-37 120 -37 192s12.5 135.833 37.5 191.5s58.667 102.5 101 140.5s91.666 67 147.999 87s115.833 30 178.5 30h739v-1813
h-233z" />
    <glyph glyph-name="periodcentered" unicode="&#xb7;" horiz-adv-x="557" 
d="M471 752c0 -26 -5.16699 -50.833 -15.5 -74.5s-24.166 -44.167 -41.499 -61.5s-37.833 -31.166 -61.5 -41.499s-48.5 -15.5 -74.5 -15.5s-50.667 5.16699 -74 15.5s-43.666 24.166 -60.999 41.499s-31.166 37.833 -41.499 61.5s-15.5 48.5 -15.5 74.5
s5.16699 50.667 15.5 74s24.166 43.666 41.499 60.999s37.666 31.166 60.999 41.499s48 15.5 74 15.5s50.833 -5.16699 74.5 -15.5s44.167 -24.166 61.5 -41.499s31.166 -37.666 41.499 -60.999s15.5 -48 15.5 -74z" />
    <glyph glyph-name="periodcentered" unicode="&#x2219;" horiz-adv-x="557" 
d="M471 752c0 -26 -5.16699 -50.833 -15.5 -74.5s-24.166 -44.167 -41.499 -61.5s-37.833 -31.166 -61.5 -41.499s-48.5 -15.5 -74.5 -15.5s-50.667 5.16699 -74 15.5s-43.666 24.166 -60.999 41.499s-31.166 37.833 -41.499 61.5s-15.5 48.5 -15.5 74.5
s5.16699 50.667 15.5 74s24.166 43.666 41.499 60.999s37.666 31.166 60.999 41.499s48 15.5 74 15.5s50.833 -5.16699 74.5 -15.5s44.167 -24.166 61.5 -41.499s31.166 -37.666 41.499 -60.999s15.5 -48 15.5 -74z" />
    <glyph glyph-name="cedilla" unicode="&#xb8;" horiz-adv-x="1024" 
d="M453 76h113.998l-35 -162c8.66699 4 19.334 7.33301 32.001 10s28.667 4 48 4c22 0 42.667 -2.83301 62 -8.5s36.333 -14.5 51 -26.5s26.167 -27.167 34.5 -45.5s12.5 -39.833 12.5 -64.5c0 -30.667 -5.83301 -57.167 -17.5 -79.5s-28.167 -40.833 -49.5 -55.5
s-47 -25.5 -77 -32.5s-63.333 -10.5 -100 -10.5c-55.333 0 -105.5 7.16699 -150.5 21.5s-84.167 31.5 -117.5 51.5l43 78c66 -32.667 126.667 -49 182 -49c36 0 63.5 5.83301 82.5 17.5s28.5 29.167 28.5 52.5c0 20.667 -6.5 34.667 -19.5 42s-27.833 11 -44.5 11
c-23.333 0.666992 -43.666 -4 -60.999 -14l-74 28z" />
    <glyph glyph-name="onesuperior" unicode="&#xb9;" horiz-adv-x="625" 
d="M244 1161h-150v154c28 2 52.167 5.16699 72.5 9.5s38 11 53 20s27.167 20.667 36.5 35s17 32.5 23 54.5h180v-910h-215v637z" />
    <glyph glyph-name="ordmasculine" unicode="&#xba;" horiz-adv-x="1006" 
d="M897 1001c0 -66.667 -10 -127.667 -30 -183s-47.5 -103 -82.5 -143s-76.667 -71 -125 -93s-100.833 -33 -157.5 -33c-57.333 0 -110 11 -158 33s-89.333 53 -124 93s-61.834 87.667 -81.501 143s-29.5 116.333 -29.5 183s9.83301 127.834 29.5 183.501
s46.834 103.667 81.501 144s76 71.666 124 93.999s100.667 33.5 158 33.5c56.667 0 109.167 -11.167 157.5 -33.5s90 -53.666 125 -93.999s62.5 -88.333 82.5 -144s30 -116.834 30 -183.501zM664 1001c0 33.333 -3.33301 64.333 -10 93s-16.834 53.5 -30.501 74.5
s-30.667 37.333 -51 49s-43.833 17.5 -70.5 17.5c-27.333 0 -51.166 -5.83301 -71.499 -17.5s-37.166 -27.834 -50.499 -48.501s-23.333 -45.334 -30 -74.001s-10 -60 -10 -94s3.33301 -65 10 -93s16.667 -52.333 30 -73s30.166 -36.667 50.499 -48s44.166 -17 71.499 -17
c26.667 0 50.167 6.33301 70.5 19s37.333 29.834 51 51.501s23.834 46.334 30.501 74.001s10 56.5 10 86.5z" />
    <glyph glyph-name="guillemotright" unicode="&#xbb;" horiz-adv-x="1286" 
d="M891 0h-293l324 537l-324 538h293l334 -536zM375 0h-293l324 537l-324 538h293l334 -536z" />
    <glyph glyph-name="onequarter" unicode="&#xbc;" horiz-adv-x="1905" 
d="M284 1161h-150v154c28 2 52.167 5.16699 72.5 9.5s38 11 53 20s27.167 20.667 36.5 35s17 32.5 23 54.5h180v-910h-215v637zM564 0h-303l961 1434h303zM1461 189h-473v152l467 569h209v-540h113v-185h-113v-184h-203v188zM1461 370v278l-223 -278h223z" />
    <glyph glyph-name="onehalf" unicode="&#xbd;" horiz-adv-x="1905" 
d="M262 1161h-150v154c28 2 52.167 5.16699 72.5 9.5s38 11 53 20s27.167 20.667 36.5 35s17 32.5 23 54.5h180v-910h-215v637zM512 0h-303l961 1434h303zM1103 0c2.66699 73.333 12.3281 136.335 28.9951 189.002s39.334 98.834 68.001 138.501s63 74.5 103 104.5
s84.667 59 134 87c26.667 14.667 48.5 27.667 65.5 39s30.333 22.166 40 32.499s16.334 20.666 20.001 30.999s5.5 21.833 5.5 34.5c0 24.667 -9.5 43.834 -28.5 57.501s-46.5 20.5 -82.5 20.5c-21.333 0 -41.833 -1.83301 -61.5 -5.5s-39 -9.33398 -58 -17.001
s-38.167 -17.5 -57.5 -29.5s-39.666 -26.333 -60.999 -43l-110 164c27.333 19.333 54.333 36.5 81 51.5s54.167 27.667 82.5 38s57.833 18.166 88.5 23.499s64 8 100 8c50 0 95 -5.5 135 -16.5s75 -28.5 105 -52.5s51.167 -52.167 63.5 -84.5s18.5 -67.166 18.5 -104.499
c0 -32 -3.66699 -60.833 -11 -86.5s-19.5 -49.834 -36.5 -72.501s-39.667 -44.667 -68 -66s-63.833 -44 -106.5 -68c-34 -19.333 -63.167 -37 -87.5 -53s-44.666 -31 -60.999 -45s-29.666 -27.333 -39.999 -40s-18.5 -26 -24.5 -40h443v-195h-688z" />
    <glyph glyph-name="threequarters" unicode="&#xbe;" horiz-adv-x="1905" 
d="M421 518c-68 0 -131.502 13.332 -190.502 39.999s-112.167 63.334 -159.5 110.001l127 141c38 -34 75 -59.5 111 -76.5s74.667 -25.5 116 -25.5c50 0 87.333 9.16699 112 27.5s37 45.166 37 80.499c0 34 -12 58.833 -36 74.5s-57.667 23.5 -101 23.5h-117v181h111
c37.333 0 64.333 7.5 81 22.5s25 37.5 25 67.5c0 25.333 -9.5 46 -28.5 62s-50.167 24 -93.5 24c-35.333 0 -67.833 -7.16699 -97.5 -21.5s-62.167 -35.833 -97.5 -64.5l-121 143c43.333 38 90.833 68.667 142.5 92s110.834 35 177.501 35c48.667 0 93.5 -5 134.5 -15
s76.333 -25.5 106 -46.5s52.667 -47.5 69 -79.5s24.5 -70.333 24.5 -115c0 -44 -8.33301 -80 -25 -108s-40.667 -51.333 -72 -70c20.667 -8.66699 39 -19.167 55 -31.5s30 -27 42 -44s20.667 -36.167 26 -57.5s8 -44.666 8 -69.999c0 -49.333 -8.5 -92.5 -25.5 -129.5
s-41.167 -68.167 -72.5 -93.5s-69.666 -44.333 -114.999 -57s-96.333 -19 -153 -19zM702.998 -0.000976562h-303l961 1434h303zM1516 187.999h-473v152l467 569h209v-540h113v-185h-113v-184h-203v188zM1516 368.999v278l-223 -278h223z" />
    <glyph glyph-name="questiondown" unicode="&#xbf;" horiz-adv-x="1196" 
d="M819 1282c0 -23.333 -4.66699 -45.5 -14 -66.5s-22 -39.5 -38 -55.5s-34.5 -28.667 -55.5 -38s-43.167 -14 -66.5 -14s-45.5 4.66699 -66.5 14s-39.5 22 -55.5 38s-28.667 34.5 -38 55.5s-14 43.167 -14 66.5s4.66699 45.5 14 66.5s22 39.5 38 55.5s34.5 28.667 55.5 38
s43.167 14 66.5 14s45.5 -4.66699 66.5 -14s39.5 -22 55.5 -38s28.667 -34.5 38 -55.5s14 -43.167 14 -66.5zM1151 215c-31.333 -32.667 -66.001 -63.4961 -104.001 -92.4961s-79.5 -54.167 -124.5 -75.5s-93.667 -38.333 -146 -51s-108.5 -19 -168.5 -19
c-78 0 -149.5 8.5 -214.5 25.5s-120.833 42.667 -167.5 77s-83 77.666 -109 129.999s-39 114.166 -39 185.499c0 48 6.16699 90.333 18.5 127s28.333 68.667 48 96s41.834 50.333 66.501 69s49.334 34 74.001 46c42.667 20.667 78 39.667 106 57s50.167 35.166 66.5 53.499
s28.166 38.666 35.499 60.999s11.666 48.5 12.999 78.5h280c0 -48.667 -4.16699 -93 -12.5 -133s-23.333 -77 -45 -111s-51 -65.5 -88 -94.5s-84.5 -56.833 -142.5 -83.5c-26 -12 -47.5 -23.167 -64.5 -33.5s-30.5 -21.333 -40.5 -33s-17.167 -24.5 -21.5 -38.5
s-6.5 -30 -6.5 -48c0 -24 4.5 -45.167 13.5 -63.5s23.167 -34 42.5 -47s44.5 -22.833 75.5 -29.5s68.167 -10 111.5 -10c38.667 0 74.834 4.33301 108.501 13s65.167 20.667 94.5 36s56.833 33.5 82.5 54.5s50.167 43.833 73.5 68.5z" />
    <glyph glyph-name="Agrave" unicode="&#xc0;" horiz-adv-x="1536" 
d="M1454 0h-315l-113 319h-524l-113 -319h-307l549 1434h278zM928 592l-164 467l-164 -467h328zM676 1526l-297 327h358l178 -327h-239z" />
    <glyph glyph-name="Aacute" unicode="&#xc1;" horiz-adv-x="1536" 
d="M1454 0h-315l-113 319h-524l-113 -319h-307l549 1434h278zM928 592l-164 467l-164 -467h328zM839 1526h-239l178 327h358z" />
    <glyph glyph-name="Acircumflex" unicode="&#xc2;" horiz-adv-x="1536" 
d="M1454 0h-315l-113 319h-524l-113 -319h-307l549 1434h278zM928 592l-164 467l-164 -467h328zM969 1526l-205 153l-205 -153h-186l250 327h286l250 -327h-190z" />
    <glyph glyph-name="Atilde" unicode="&#xc3;" horiz-adv-x="1536" 
d="M1454 0h-315l-113 319h-524l-113 -319h-307l549 1434h278zM928 592l-164 467l-164 -467h328zM1174 1814c0 -45.333 -5.83105 -86.3311 -17.498 -122.998s-27.834 -67.667 -48.501 -93s-45.5 -44.833 -74.5 -58.5s-60.833 -20.5 -95.5 -20.5
c-21.333 0 -40.333 1.16699 -57 3.5s-32.667 6 -48 11s-31 11.5 -47 19.5s-34.333 18 -55 30c-15.333 9.33301 -32.5 18.5 -51.5 27.5s-37.167 13.5 -54.5 13.5c-19.333 0 -34.333 -7.33301 -45 -22s-19 -40 -25 -76h-184c0 45.333 5.66699 86.166 17 122.499
s27.333 67.166 48 92.499s45.5 44.833 74.5 58.5s60.833 20.5 95.5 20.5c21.333 0 40.333 -1 57 -3s32.667 -5.5 48 -10.5s31 -11.5 47 -19.5s34.333 -18 55 -30c16 -9.33301 33.333 -18.5 52 -27.5s37 -13.5 55 -13.5c19.333 0 34.166 7.33301 44.499 22s18.5 40 24.5 76
h185z" />
    <glyph glyph-name="Adieresis" unicode="&#xc4;" horiz-adv-x="1536" 
d="M1454 0h-315l-113 319h-524l-113 -319h-307l549 1434h278zM928 592l-164 467l-164 -467h328zM1147 1683c0 -21.333 -4.33301 -41.333 -13 -60s-20.167 -35.334 -34.5 -50.001s-31.166 -26.167 -50.499 -34.5s-39.333 -12.5 -60 -12.5c-22 0 -42.833 4.16699 -62.5 12.5
s-36.834 19.833 -51.501 34.5s-26.334 31.334 -35.001 50.001s-13 38.667 -13 60c0 22 4.33301 42.667 13 62s20.334 36.333 35.001 51s31.834 26.167 51.501 34.5s40.5 12.5 62.5 12.5c20.667 0 40.667 -4.16699 60 -12.5s36.166 -19.833 50.499 -34.5
s25.833 -31.667 34.5 -51s13 -40 13 -62zM705 1683c0 -21.333 -4.33301 -41.333 -13 -60s-20.334 -35.334 -35.001 -50.001s-31.667 -26.167 -51 -34.5s-39.666 -12.5 -60.999 -12.5s-41.666 4.16699 -60.999 12.5s-36.333 19.833 -51 34.5s-26.334 31.334 -35.001 50.001
s-13 38.667 -13 60c0 22 4.33301 42.667 13 62s20.334 36.333 35.001 51s31.667 26.167 51 34.5s39.666 12.5 60.999 12.5s41.666 -4.16699 60.999 -12.5s36.333 -19.833 51 -34.5s26.334 -31.667 35.001 -51s13 -40 13 -62z" />
    <glyph glyph-name="Aring" unicode="&#xc5;" horiz-adv-x="1536" 
d="M1139 0l-113.001 319h-524l-113 -319h-307l504 1317c-29.333 24.667 -52 54.834 -68 90.501s-24 75.167 -24 118.5c0 39.333 7 75.833 21 109.5s33.333 62.834 58 87.501s53.834 44 87.501 58s70.167 21 109.5 21s76 -7 110 -21s63.333 -33.333 88 -58
s44 -53.834 58 -87.501s21 -70.167 21 -109.5c0 -43.333 -8.33301 -82.833 -25 -118.5s-40 -65.834 -70 -90.501l502 -1317h-315zM890.999 1526c0 17.333 -3.16699 33.5 -9.5 48.5s-14.833 28 -25.5 39s-23.5 19.667 -38.5 26s-30.833 9.5 -47.5 9.5
c-17.333 0 -33.333 -3.16699 -48 -9.5s-27.334 -15 -38.001 -26s-19.167 -24 -25.5 -39s-9.5 -31.167 -9.5 -48.5s3.16699 -33.5 9.5 -48.5s14.833 -28 25.5 -39s23.334 -19.667 38.001 -26s30.667 -9.5 48 -9.5c16.667 0 32.5 3.16699 47.5 9.5s27.833 15 38.5 26
s19.167 24 25.5 39s9.5 31.167 9.5 48.5zM927.999 592l-164 467l-164 -467h328z" />
    <glyph glyph-name="AE" unicode="&#xc6;" horiz-adv-x="2126" 
d="M1974 1434v-275h-667v-258h534v-270h-534v-357h698v-274h-973v256h-510l-166 -256h-327l962 1434h983zM686 508h346v532z" />
    <glyph glyph-name="Ccedilla" unicode="&#xc7;" horiz-adv-x="1372" 
d="M1004 1016c-16 30.667 -31.334 53.665 -46.001 68.998s-32.667 29.833 -54 43.5s-45 24.167 -71 31.5s-56.667 11 -92 11c-54 0 -101.833 -11.167 -143.5 -33.5s-77 -53.5 -106 -93.5s-51 -87.833 -66 -143.5s-22.5 -116.834 -22.5 -183.501
c0 -64.667 7.66699 -124.667 23 -180s37.5 -103.333 66.5 -144s64.5 -72.667 106.5 -96s90 -35 144 -35c58.667 0 109.5 12.667 152.5 38s85.833 73.333 128.5 144l242 -143c-24.667 -50.667 -54 -96 -88 -136s-73 -74 -117 -102s-93.167 -49.333 -147.5 -64
s-113.833 -22 -178.5 -22c-65.333 0 -124.833 7.83301 -178.5 23.5s-104.167 38.5 -151.5 68.5s-89.333 66.667 -126 110s-66 88.333 -88 135s-41.167 103.834 -57.5 171.501s-24.5 144.834 -24.5 231.501c0 108.667 15.667 208.334 47 299.001s75 168.667 131 234
s123 116 201 152s163.667 54 257 54c120.667 0 225.334 -26.167 314.001 -78.5s159 -131.833 211 -238.5zM656.999 75.998h113.998l-35 -162c8.66699 4 19.334 7.33301 32.001 10s28.667 4 48 4c22 0 42.667 -2.83301 62 -8.5s36.333 -14.5 51 -26.5
s26.167 -27.167 34.5 -45.5s12.5 -39.833 12.5 -64.5c0 -30.667 -5.83301 -57.167 -17.5 -79.5s-28.167 -40.833 -49.5 -55.5s-47 -25.5 -77 -32.5s-63.333 -10.5 -100 -10.5c-55.333 0 -105.5 7.16699 -150.5 21.5s-84.167 31.5 -117.5 51.5l43 78
c66 -32.667 126.667 -49 182 -49c36 0 63.5 5.83301 82.5 17.5s28.5 29.167 28.5 52.5c0 20.667 -6.5 34.667 -19.5 42s-27.833 11 -44.5 11c-23.333 0.666992 -43.666 -4 -60.999 -14l-74 28z" />
    <glyph glyph-name="Egrave" unicode="&#xc8;" horiz-adv-x="1331" 
d="M1210 0h-1026v1434h996v-281h-709v-248h576v-278h-576v-346h739v-281zM598 1526l-297 327h358l178 -327h-239z" />
    <glyph glyph-name="Eacute" unicode="&#xc9;" horiz-adv-x="1331" 
d="M1210 0h-1026v1434h996v-281h-709v-248h576v-278h-576v-346h739v-281zM762 1526h-239l178 327h358z" />
    <glyph glyph-name="Ecircumflex" unicode="&#xca;" horiz-adv-x="1331" 
d="M1210 0h-1026v1434h996v-281h-709v-248h576v-278h-576v-346h739v-281zM891 1526l-205 153l-205 -153h-186l250 327h286l250 -327h-190z" />
    <glyph glyph-name="Edieresis" unicode="&#xcb;" horiz-adv-x="1331" 
d="M1210 0h-1026v1434h996v-281h-709v-248h576v-278h-576v-346h739v-281zM1069 1683c0 -21.333 -4.33301 -41.333 -13 -60s-20.167 -35.334 -34.5 -50.001s-31.166 -26.167 -50.499 -34.5s-39.333 -12.5 -60 -12.5c-22 0 -42.833 4.16699 -62.5 12.5
s-36.834 19.833 -51.501 34.5s-26.334 31.334 -35.001 50.001s-13 38.667 -13 60c0 22 4.33301 42.667 13 62s20.334 36.333 35.001 51s31.834 26.167 51.501 34.5s40.5 12.5 62.5 12.5c20.667 0 40.667 -4.16699 60 -12.5s36.166 -19.833 50.499 -34.5
s25.833 -31.667 34.5 -51s13 -40 13 -62zM627 1683c0 -21.333 -4.33301 -41.333 -13 -60s-20.334 -35.334 -35.001 -50.001s-31.667 -26.167 -51 -34.5s-39.666 -12.5 -60.999 -12.5s-41.666 4.16699 -60.999 12.5s-36.333 19.833 -51 34.5s-26.334 31.334 -35.001 50.001
s-13 38.667 -13 60c0 22 4.33301 42.667 13 62s20.334 36.333 35.001 51s31.667 26.167 51 34.5s39.666 12.5 60.999 12.5s41.666 -4.16699 60.999 -12.5s36.333 -19.833 51 -34.5s26.334 -31.667 35.001 -51s13 -40 13 -62z" />
    <glyph glyph-name="Igrave" unicode="&#xcc;" horiz-adv-x="696" 
d="M205 0v1434h287v-1434h-287zM239 1526l-297 327h358l178 -327h-239z" />
    <glyph glyph-name="Iacute" unicode="&#xcd;" horiz-adv-x="696" 
d="M205 0v1434h287v-1434h-287zM443 1526h-239l178 327h358z" />
    <glyph glyph-name="Icircumflex" unicode="&#xce;" horiz-adv-x="696" 
d="M205 0v1434h287v-1434h-287zM552 1506l-205 153l-205 -153h-186l250 327h286l250 -327h-190z" />
    <glyph glyph-name="Idieresis" unicode="&#xcf;" horiz-adv-x="696" 
d="M205 0v1434h287v-1434h-287zM730 1673c0 -21.333 -4.33301 -41.333 -13 -60s-20.167 -35.334 -34.5 -50.001s-31.166 -26.167 -50.499 -34.5s-39.333 -12.5 -60 -12.5c-22 0 -42.833 4.16699 -62.5 12.5s-36.834 19.833 -51.501 34.5s-26.334 31.334 -35.001 50.001
s-13 38.667 -13 60c0 22 4.33301 42.667 13 62s20.334 36.333 35.001 51s31.834 26.167 51.501 34.5s40.5 12.5 62.5 12.5c20.667 0 40.667 -4.16699 60 -12.5s36.166 -19.833 50.499 -34.5s25.833 -31.667 34.5 -51s13 -40 13 -62zM288 1673
c0 -21.333 -4.33301 -41.333 -13 -60s-20.334 -35.334 -35.001 -50.001s-31.667 -26.167 -51 -34.5s-39.666 -12.5 -60.999 -12.5s-41.666 4.16699 -60.999 12.5s-36.333 19.833 -51 34.5s-26.334 31.334 -35.001 50.001s-13 38.667 -13 60c0 22 4.33301 42.667 13 62
s20.334 36.333 35.001 51s31.667 26.167 51 34.5s39.666 12.5 60.999 12.5s41.666 -4.16699 60.999 -12.5s36.333 -19.833 51 -34.5s26.334 -31.667 35.001 -51s13 -40 13 -62z" />
    <glyph glyph-name="Eth" unicode="&#xd0;" horiz-adv-x="1479" 
d="M1376 717c0 -108.667 -16.6689 -206.665 -50.002 -293.998s-83 -162.833 -149 -226.5s-145.167 -112.334 -237.5 -146.001s-191.166 -50.5 -296.499 -50.5h-428v631h-133v235h133v568h449c102 0 196.5 -12.833 283.5 -38.5s162.333 -66.834 226 -123.501
s113.334 -130.667 149.001 -222s53.5 -202.333 53.5 -333zM1081 717.002c0 73.333 -8.16797 137.332 -24.501 191.999s-41.666 100.334 -75.999 137.001s-78.5 64 -132.5 82s-119 27 -195 27h-159v-289h192v-235h-192v-352h149c75.333 0 140.5 10.5 195.5 31.5
s100.5 50.667 136.5 89s62.667 84.5 80 138.5s26 113.667 26 179z" />
    <glyph glyph-name="Ntilde" unicode="&#xd1;" horiz-adv-x="1530" 
d="M1346 0h-256l-623 925v-925h-283v1434h275l604 -902v902h283v-1434zM1174 1814c0 -45.333 -5.83105 -86.3311 -17.498 -122.998s-27.834 -67.667 -48.501 -93s-45.5 -44.833 -74.5 -58.5s-60.833 -20.5 -95.5 -20.5c-21.333 0 -40.333 1.16699 -57 3.5s-32.667 6 -48 11
s-31 11.5 -47 19.5s-34.333 18 -55 30c-15.333 9.33301 -32.5 18.5 -51.5 27.5s-37.167 13.5 -54.5 13.5c-19.333 0 -34.333 -7.33301 -45 -22s-19 -40 -25 -76h-184c0 45.333 5.66699 86.166 17 122.499s27.333 67.166 48 92.499s45.5 44.833 74.5 58.5
s60.833 20.5 95.5 20.5c21.333 0 40.333 -1 57 -3s32.667 -5.5 48 -10.5s31 -11.5 47 -19.5s34.333 -18 55 -30c16 -9.33301 33.333 -18.5 52 -27.5s37 -13.5 55 -13.5c19.333 0 34.166 7.33301 44.499 22s18.5 40 24.5 76h185z" />
    <glyph glyph-name="Ograve" unicode="&#xd2;" horiz-adv-x="1473" 
d="M1368 719c0 -116 -15.5 -219.833 -46.5 -311.5s-74.333 -169.334 -130 -233.001s-122.334 -112.5 -200.001 -146.5s-163.167 -51 -256.5 -51c-94 0 -179.667 16.667 -257 50s-143.666 81.666 -198.999 144.999s-98.333 140.666 -129 231.999s-46 195 -46 311
s15.5 219.833 46.5 311.5s74.5 169.334 130.5 233.001s123 112.334 201 146.001s163.667 50.5 257 50.5s178.5 -16.667 255.5 -50s143.167 -81.666 198.5 -144.999s98.333 -140.5 129 -231.5s46 -194.5 46 -310.5zM1073 715c0 72.667 -8.33301 137.333 -25 194
s-40 104.334 -70 143.001s-65.833 68.167 -107.5 88.5s-87.5 30.5 -137.5 30.5s-95.667 -9.83301 -137 -29.5s-76.5 -48.667 -105.5 -87s-51.5 -85.666 -67.5 -141.999s-24 -120.833 -24 -193.5s8.33301 -137.334 25 -194.001s40 -104.5 70 -143.5s65.833 -68.667 107.5 -89
s87.5 -30.5 137.5 -30.5s95.667 10 137 30s76.5 49.167 105.5 87.5s51.5 85.666 67.5 141.999s24 120.833 24 193.5zM637 1526l-297 327h358l178 -327h-239z" />
    <glyph glyph-name="Oacute" unicode="&#xd3;" horiz-adv-x="1473" 
d="M1368 719c0 -116 -15.5 -219.833 -46.5 -311.5s-74.333 -169.334 -130 -233.001s-122.334 -112.5 -200.001 -146.5s-163.167 -51 -256.5 -51c-94 0 -179.667 16.667 -257 50s-143.666 81.666 -198.999 144.999s-98.333 140.666 -129 231.999s-46 195 -46 311
s15.5 219.833 46.5 311.5s74.5 169.334 130.5 233.001s123 112.334 201 146.001s163.667 50.5 257 50.5s178.5 -16.667 255.5 -50s143.167 -81.666 198.5 -144.999s98.333 -140.5 129 -231.5s46 -194.5 46 -310.5zM1073 715c0 72.667 -8.33301 137.333 -25 194
s-40 104.334 -70 143.001s-65.833 68.167 -107.5 88.5s-87.5 30.5 -137.5 30.5s-95.667 -9.83301 -137 -29.5s-76.5 -48.667 -105.5 -87s-51.5 -85.666 -67.5 -141.999s-24 -120.833 -24 -193.5s8.33301 -137.334 25 -194.001s40 -104.5 70 -143.5s65.833 -68.667 107.5 -89
s87.5 -30.5 137.5 -30.5s95.667 10 137 30s76.5 49.167 105.5 87.5s51.5 85.666 67.5 141.999s24 120.833 24 193.5zM801 1526h-239l178 327h358z" />
    <glyph glyph-name="Ocircumflex" unicode="&#xd4;" horiz-adv-x="1473" 
d="M1368 719c0 -116 -15.5 -219.833 -46.5 -311.5s-74.333 -169.334 -130 -233.001s-122.334 -112.5 -200.001 -146.5s-163.167 -51 -256.5 -51c-94 0 -179.667 16.667 -257 50s-143.666 81.666 -198.999 144.999s-98.333 140.666 -129 231.999s-46 195 -46 311
s15.5 219.833 46.5 311.5s74.5 169.334 130.5 233.001s123 112.334 201 146.001s163.667 50.5 257 50.5s178.5 -16.667 255.5 -50s143.167 -81.666 198.5 -144.999s98.333 -140.5 129 -231.5s46 -194.5 46 -310.5zM1073 715c0 72.667 -8.33301 137.333 -25 194
s-40 104.334 -70 143.001s-65.833 68.167 -107.5 88.5s-87.5 30.5 -137.5 30.5s-95.667 -9.83301 -137 -29.5s-76.5 -48.667 -105.5 -87s-51.5 -85.666 -67.5 -141.999s-24 -120.833 -24 -193.5s8.33301 -137.334 25 -194.001s40 -104.5 70 -143.5s65.833 -68.667 107.5 -89
s87.5 -30.5 137.5 -30.5s95.667 10 137 30s76.5 49.167 105.5 87.5s51.5 85.666 67.5 141.999s24 120.833 24 193.5zM930 1516l-205 153l-205 -153h-186l250 327h286l250 -327h-190z" />
    <glyph glyph-name="Otilde" unicode="&#xd5;" horiz-adv-x="1473" 
d="M1368 719c0 -116 -15.5 -219.833 -46.5 -311.5s-74.333 -169.334 -130 -233.001s-122.334 -112.5 -200.001 -146.5s-163.167 -51 -256.5 -51c-94 0 -179.667 16.667 -257 50s-143.666 81.666 -198.999 144.999s-98.333 140.666 -129 231.999s-46 195 -46 311
s15.5 219.833 46.5 311.5s74.5 169.334 130.5 233.001s123 112.334 201 146.001s163.667 50.5 257 50.5s178.5 -16.667 255.5 -50s143.167 -81.666 198.5 -144.999s98.333 -140.5 129 -231.5s46 -194.5 46 -310.5zM1073 715c0 72.667 -8.33301 137.333 -25 194
s-40 104.334 -70 143.001s-65.833 68.167 -107.5 88.5s-87.5 30.5 -137.5 30.5s-95.667 -9.83301 -137 -29.5s-76.5 -48.667 -105.5 -87s-51.5 -85.666 -67.5 -141.999s-24 -120.833 -24 -193.5s8.33301 -137.334 25 -194.001s40 -104.5 70 -143.5s65.833 -68.667 107.5 -89
s87.5 -30.5 137.5 -30.5s95.667 10 137 30s76.5 49.167 105.5 87.5s51.5 85.666 67.5 141.999s24 120.833 24 193.5zM1135 1814c0 -45.333 -5.83105 -86.3311 -17.498 -122.998s-27.834 -67.667 -48.501 -93s-45.5 -44.833 -74.5 -58.5s-60.833 -20.5 -95.5 -20.5
c-21.333 0 -40.333 1.16699 -57 3.5s-32.667 6 -48 11s-31 11.5 -47 19.5s-34.333 18 -55 30c-15.333 9.33301 -32.5 18.5 -51.5 27.5s-37.167 13.5 -54.5 13.5c-19.333 0 -34.333 -7.33301 -45 -22s-19 -40 -25 -76h-184c0 45.333 5.66699 86.166 17 122.499
s27.333 67.166 48 92.499s45.5 44.833 74.5 58.5s60.833 20.5 95.5 20.5c21.333 0 40.333 -1 57 -3s32.667 -5.5 48 -10.5s31 -11.5 47 -19.5s34.333 -18 55 -30c16 -9.33301 33.333 -18.5 52 -27.5s37 -13.5 55 -13.5c19.333 0 34.166 7.33301 44.499 22s18.5 40 24.5 76
h185z" />
    <glyph glyph-name="Odieresis" unicode="&#xd6;" horiz-adv-x="1473" 
d="M1368 719c0 -116 -15.5 -219.833 -46.5 -311.5s-74.333 -169.334 -130 -233.001s-122.334 -112.5 -200.001 -146.5s-163.167 -51 -256.5 -51c-94 0 -179.667 16.667 -257 50s-143.666 81.666 -198.999 144.999s-98.333 140.666 -129 231.999s-46 195 -46 311
s15.5 219.833 46.5 311.5s74.5 169.334 130.5 233.001s123 112.334 201 146.001s163.667 50.5 257 50.5s178.5 -16.667 255.5 -50s143.167 -81.666 198.5 -144.999s98.333 -140.5 129 -231.5s46 -194.5 46 -310.5zM1073 715c0 72.667 -8.33301 137.333 -25 194
s-40 104.334 -70 143.001s-65.833 68.167 -107.5 88.5s-87.5 30.5 -137.5 30.5s-95.667 -9.83301 -137 -29.5s-76.5 -48.667 -105.5 -87s-51.5 -85.666 -67.5 -141.999s-24 -120.833 -24 -193.5s8.33301 -137.334 25 -194.001s40 -104.5 70 -143.5s65.833 -68.667 107.5 -89
s87.5 -30.5 137.5 -30.5s95.667 10 137 30s76.5 49.167 105.5 87.5s51.5 85.666 67.5 141.999s24 120.833 24 193.5zM1108 1683c0 -21.333 -4.33301 -41.333 -13 -60s-20.167 -35.334 -34.5 -50.001s-31.166 -26.167 -50.499 -34.5s-39.333 -12.5 -60 -12.5
c-22 0 -42.833 4.16699 -62.5 12.5s-36.834 19.833 -51.501 34.5s-26.334 31.334 -35.001 50.001s-13 38.667 -13 60c0 22 4.33301 42.667 13 62s20.334 36.333 35.001 51s31.834 26.167 51.501 34.5s40.5 12.5 62.5 12.5c20.667 0 40.667 -4.16699 60 -12.5
s36.166 -19.833 50.499 -34.5s25.833 -31.667 34.5 -51s13 -40 13 -62zM666 1683c0 -21.333 -4.33301 -41.333 -13 -60s-20.334 -35.334 -35.001 -50.001s-31.667 -26.167 -51 -34.5s-39.666 -12.5 -60.999 -12.5s-41.666 4.16699 -60.999 12.5s-36.333 19.833 -51 34.5
s-26.334 31.334 -35.001 50.001s-13 38.667 -13 60c0 22 4.33301 42.667 13 62s20.334 36.333 35.001 51s31.667 26.167 51 34.5s39.666 12.5 60.999 12.5s41.666 -4.16699 60.999 -12.5s36.333 -19.833 51 -34.5s26.334 -31.667 35.001 -51s13 -40 13 -62z" />
    <glyph glyph-name="multiply" unicode="&#xd7;" 
d="M977 184l-342 348l-342 -348l-178 178l348 343l-348 342l178 178l342 -348l342 348l178 -178l-348 -342l348 -343z" />
    <glyph glyph-name="Oslash" unicode="&#xd8;" horiz-adv-x="1473" 
d="M1354 717c0 -109.333 -14.168 -209.335 -42.501 -300.002s-69.166 -168.5 -122.499 -233.5s-118.5 -115.667 -195.5 -152s-164.5 -54.5 -262.5 -54.5c-64 0 -134.333 13 -211 39l-57 -118h-270l124 254c-64.667 66 -115.5 146.667 -152.5 242s-55.5 203 -55.5 323
c0 108.667 14 208.334 42 299.001s68.667 168.667 122 234s118.5 116 195.5 152s164.5 54 262.5 54c72 0 139.667 -12.333 203 -37l57 117h271l-121 -250c32 -31.333 61.167 -67.166 87.5 -107.499s49.5 -87 69.5 -140s34.333 -105.167 43 -156.5s13 -106.333 13 -165z
M814.999 1176c-26.667 6.66699 -54.667 9.99902 -84 9.99902c-59.333 0 -110.333 -12 -153 -36s-77.667 -57.167 -105 -99.5s-47.5 -92 -60.5 -149s-19.5 -118.5 -19.5 -184.5c0 -56 4.66699 -108.667 14 -158s23.333 -93.666 42 -132.999zM1069 716.997
c0 57.333 -4.83398 111.5 -14.501 162.5s-25.167 97.167 -46.5 138.5l-369 -758c28.667 -8 59.334 -12 92.001 -12c59.333 0 110.333 12 153 36s77.667 57.167 105 99.5s47.5 92 60.5 149s19.5 118.5 19.5 184.5z" />
    <glyph glyph-name="Ugrave" unicode="&#xd9;" horiz-adv-x="1509" 
d="M1335 633c0 -104 -13.167 -196.667 -39.5 -278s-64.5 -150 -114.5 -206s-111 -98.667 -183 -128s-153.333 -44 -244 -44c-86.667 0 -165.5 14.333 -236.5 43s-132 70.667 -183 126s-90.5 123.5 -118.5 204.5s-42 173.833 -42 278.5v805h287v-801
c0 -116 26.333 -207.5 79 -274.5s124 -100.5 214 -100.5c90.667 0 162.5 33.333 215.5 100s79.5 157 79.5 271v805h286v-801zM668 1495l-297 327h358l178 -327h-239z" />
    <glyph glyph-name="Uacute" unicode="&#xda;" horiz-adv-x="1509" 
d="M1335 633c0 -104 -13.167 -196.667 -39.5 -278s-64.5 -150 -114.5 -206s-111 -98.667 -183 -128s-153.333 -44 -244 -44c-86.667 0 -165.5 14.333 -236.5 43s-132 70.667 -183 126s-90.5 123.5 -118.5 204.5s-42 173.833 -42 278.5v805h287v-801
c0 -116 26.333 -207.5 79 -274.5s124 -100.5 214 -100.5c90.667 0 162.5 33.333 215.5 100s79.5 157 79.5 271v805h286v-801zM831 1495h-239l178 327h358z" />
    <glyph glyph-name="Ucircumflex" unicode="&#xdb;" horiz-adv-x="1509" 
d="M1335 633c0 -104 -13.167 -196.667 -39.5 -278s-64.5 -150 -114.5 -206s-111 -98.667 -183 -128s-153.333 -44 -244 -44c-86.667 0 -165.5 14.333 -236.5 43s-132 70.667 -183 126s-90.5 123.5 -118.5 204.5s-42 173.833 -42 278.5v805h287v-801
c0 -116 26.333 -207.5 79 -274.5s124 -100.5 214 -100.5c90.667 0 162.5 33.333 215.5 100s79.5 157 79.5 271v805h286v-801zM961 1526l-205 153l-205 -153h-186l250 327h286l250 -327h-190z" />
    <glyph glyph-name="Udieresis" unicode="&#xdc;" horiz-adv-x="1509" 
d="M1335 633c0 -104 -13.167 -196.667 -39.5 -278s-64.5 -150 -114.5 -206s-111 -98.667 -183 -128s-153.333 -44 -244 -44c-86.667 0 -165.5 14.333 -236.5 43s-132 70.667 -183 126s-90.5 123.5 -118.5 204.5s-42 173.833 -42 278.5v805h287v-801
c0 -116 26.333 -207.5 79 -274.5s124 -100.5 214 -100.5c90.667 0 162.5 33.333 215.5 100s79.5 157 79.5 271v805h286v-801zM1137 1683c0 -21.333 -4.33301 -41.333 -13 -60s-20.167 -35.334 -34.5 -50.001s-31.166 -26.167 -50.499 -34.5s-39.333 -12.5 -60 -12.5
c-22 0 -42.833 4.16699 -62.5 12.5s-36.834 19.833 -51.501 34.5s-26.334 31.334 -35.001 50.001s-13 38.667 -13 60c0 22 4.33301 42.667 13 62s20.334 36.333 35.001 51s31.834 26.167 51.501 34.5s40.5 12.5 62.5 12.5c20.667 0 40.667 -4.16699 60 -12.5
s36.166 -19.833 50.499 -34.5s25.833 -31.667 34.5 -51s13 -40 13 -62zM695 1683c0 -21.333 -4.33301 -41.333 -13 -60s-20.334 -35.334 -35.001 -50.001s-31.667 -26.167 -51 -34.5s-39.666 -12.5 -60.999 -12.5s-41.666 4.16699 -60.999 12.5s-36.333 19.833 -51 34.5
s-26.334 31.334 -35.001 50.001s-13 38.667 -13 60c0 22 4.33301 42.667 13 62s20.334 36.333 35.001 51s31.667 26.167 51 34.5s39.666 12.5 60.999 12.5s41.666 -4.16699 60.999 -12.5s36.333 -19.833 51 -34.5s26.334 -31.667 35.001 -51s13 -40 13 -62z" />
    <glyph glyph-name="Yacute" unicode="&#xdd;" horiz-adv-x="1462" 
d="M1418 1434l-543 -867v-567h-287v561l-543 873h330l358 -600l359 600h326zM807 1506h-239l178 327h358z" />
    <glyph glyph-name="Thorn" unicode="&#xde;" horiz-adv-x="1393" 
d="M1305 758c0 -83.333 -13.1689 -154.666 -39.502 -213.999s-62.666 -108 -108.999 -146s-101.166 -66 -164.499 -84s-132 -27 -206 -27h-315v-287h-287v1434h287v-222h340c67.333 0 131 -9.33301 191 -28s112.5 -46.834 157.5 -84.501s80.5 -85 106.5 -142
s39 -123.5 39 -199.5zM1010 752c0 62.667 -19 108.667 -57 138s-88.667 44 -152 44h-330v-369h334c66.667 0 117.5 15.5 152.5 46.5s52.5 77.833 52.5 140.5z" />
    <glyph glyph-name="germandbls" unicode="&#xdf;" horiz-adv-x="1200" 
d="M1118 453c0 -74 -9.83008 -138.165 -29.4971 -192.498s-48.667 -100.666 -87 -138.999s-89 -68.166 -152 -89.499s-139.167 -32 -228.5 -32h-46v256h37c31.333 0 60.333 3.33301 87 10s50 17.667 70 33s35.333 35.666 46 60.999s16 56.333 16 93
c0 35.333 -4.33301 67 -13 95s-22.834 52.167 -42.501 72.5s-45 35.666 -76 45.999s-68.167 15.5 -111.5 15.5h-13v246h11c42 0 75 13.333 99 40s36 63 36 109c0 42 -12.333 76.5 -37 103.5s-63.667 40.5 -117 40.5c-50.667 0 -87.834 -12.333 -111.501 -37
s-35.5 -68.334 -35.5 -131.001v-1307l-283 -141v1462c0 76.667 10.333 141.667 31 195s50 96.666 88 129.999s83.667 57.5 137 72.5s112.666 22.5 177.999 22.5c60.667 0 117.5 -8.16699 170.5 -24.5s99.167 -40.5 138.5 -72.5s70.5 -71.667 93.5 -119
s34.5 -101.666 34.5 -162.999c0 -75.333 -16.833 -136.5 -50.5 -183.5s-80.5 -80.833 -140.5 -101.5c38.667 -7.33301 76 -19.833 112 -37.5s68 -41.334 96 -71.001s50.5 -66 67.5 -109s25.5 -93.833 25.5 -152.5z" />
    <glyph glyph-name="agrave" unicode="&#xe0;" horiz-adv-x="1139" 
d="M729 0l-0.000976562 72c-12.667 -13.333 -27 -25.5 -43 -36.5s-35.333 -21.333 -58 -31s-45.667 -16.667 -69 -21s-47.333 -6.5 -72 -6.5c-50 0 -99 7.83301 -147 23.5s-90.833 39.167 -128.5 70.5s-68 71 -91 119s-34.5 104.667 -34.5 170
c0 59.333 11.333 111.333 34 156s53.667 81.834 93 111.501s85.5 52 138.5 67s109.833 22.5 170.5 22.5c50 0 91.333 -4.33301 124 -13s60.334 -18.667 83.001 -30v53c0 40 -13.333 72.833 -40 98.5s-64.667 38.5 -114 38.5c-62.667 0 -113.667 -4.5 -153 -13.5
s-86.333 -28.167 -141 -57.5l-109 196c68 40 132.5 68.167 193.5 84.5s130.833 24.5 209.5 24.5c65.333 0 124.833 -8.33301 178.5 -25s99.667 -41 138 -73s68 -71.333 89 -118s31.5 -100.334 31.5 -161.001v-721h-283zM728.999 451
c-12 7.33301 -24.332 13.832 -36.999 19.499s-26.667 10.334 -42 14.001s-32.5 6.5 -51.5 8.5s-41.167 3 -66.5 3c-53.333 0 -93.833 -11.833 -121.5 -35.5s-41.5 -57.167 -41.5 -100.5c0 -18.667 2.83301 -36.667 8.5 -54s15 -32.5 28 -45.5s29.833 -23.5 50.5 -31.5
s46 -12 76 -12c23.333 0 45.166 2.66699 65.499 8s39 12.5 56 21.5s31.833 19.5 44.5 31.5s23 24.333 31 37v136zM480 1219l-297 327h358l178 -327h-239z" />
    <glyph glyph-name="aacute" unicode="&#xe1;" horiz-adv-x="1139" 
d="M729 0l-0.000976562 72c-12.667 -13.333 -27 -25.5 -43 -36.5s-35.333 -21.333 -58 -31s-45.667 -16.667 -69 -21s-47.333 -6.5 -72 -6.5c-50 0 -99 7.83301 -147 23.5s-90.833 39.167 -128.5 70.5s-68 71 -91 119s-34.5 104.667 -34.5 170
c0 59.333 11.333 111.333 34 156s53.667 81.834 93 111.501s85.5 52 138.5 67s109.833 22.5 170.5 22.5c50 0 91.333 -4.33301 124 -13s60.334 -18.667 83.001 -30v53c0 40 -13.333 72.833 -40 98.5s-64.667 38.5 -114 38.5c-62.667 0 -113.667 -4.5 -153 -13.5
s-86.333 -28.167 -141 -57.5l-109 196c68 40 132.5 68.167 193.5 84.5s130.833 24.5 209.5 24.5c65.333 0 124.833 -8.33301 178.5 -25s99.667 -41 138 -73s68 -71.333 89 -118s31.5 -100.334 31.5 -161.001v-721h-283zM728.999 451
c-12 7.33301 -24.332 13.832 -36.999 19.499s-26.667 10.334 -42 14.001s-32.5 6.5 -51.5 8.5s-41.167 3 -66.5 3c-53.333 0 -93.833 -11.833 -121.5 -35.5s-41.5 -57.167 -41.5 -100.5c0 -18.667 2.83301 -36.667 8.5 -54s15 -32.5 28 -45.5s29.833 -23.5 50.5 -31.5
s46 -12 76 -12c23.333 0 45.166 2.66699 65.499 8s39 12.5 56 21.5s31.833 19.5 44.5 31.5s23 24.333 31 37v136zM643 1219h-239l178 327h358z" />
    <glyph glyph-name="acircumflex" unicode="&#xe2;" horiz-adv-x="1139" 
d="M729 0l-0.000976562 72c-12.667 -13.333 -27 -25.5 -43 -36.5s-35.333 -21.333 -58 -31s-45.667 -16.667 -69 -21s-47.333 -6.5 -72 -6.5c-50 0 -99 7.83301 -147 23.5s-90.833 39.167 -128.5 70.5s-68 71 -91 119s-34.5 104.667 -34.5 170
c0 59.333 11.333 111.333 34 156s53.667 81.834 93 111.501s85.5 52 138.5 67s109.833 22.5 170.5 22.5c50 0 91.333 -4.33301 124 -13s60.334 -18.667 83.001 -30v53c0 40 -13.333 72.833 -40 98.5s-64.667 38.5 -114 38.5c-62.667 0 -113.667 -4.5 -153 -13.5
s-86.333 -28.167 -141 -57.5l-109 196c68 40 132.5 68.167 193.5 84.5s130.833 24.5 209.5 24.5c65.333 0 124.833 -8.33301 178.5 -25s99.667 -41 138 -73s68 -71.333 89 -118s31.5 -100.334 31.5 -161.001v-721h-283zM728.999 451
c-12 7.33301 -24.332 13.832 -36.999 19.499s-26.667 10.334 -42 14.001s-32.5 6.5 -51.5 8.5s-41.167 3 -66.5 3c-53.333 0 -93.833 -11.833 -121.5 -35.5s-41.5 -57.167 -41.5 -100.5c0 -18.667 2.83301 -36.667 8.5 -54s15 -32.5 28 -45.5s29.833 -23.5 50.5 -31.5
s46 -12 76 -12c23.333 0 45.166 2.66699 65.499 8s39 12.5 56 21.5s31.833 19.5 44.5 31.5s23 24.333 31 37v136zM772 1210l-205 153l-205 -153h-186l250 327h286l250 -327h-190z" />
    <glyph glyph-name="atilde" unicode="&#xe3;" horiz-adv-x="1139" 
d="M729 0l-0.000976562 72c-12.667 -13.333 -27 -25.5 -43 -36.5s-35.333 -21.333 -58 -31s-45.667 -16.667 -69 -21s-47.333 -6.5 -72 -6.5c-50 0 -99 7.83301 -147 23.5s-90.833 39.167 -128.5 70.5s-68 71 -91 119s-34.5 104.667 -34.5 170
c0 59.333 11.333 111.333 34 156s53.667 81.834 93 111.501s85.5 52 138.5 67s109.833 22.5 170.5 22.5c50 0 91.333 -4.33301 124 -13s60.334 -18.667 83.001 -30v53c0 40 -13.333 72.833 -40 98.5s-64.667 38.5 -114 38.5c-62.667 0 -113.667 -4.5 -153 -13.5
s-86.333 -28.167 -141 -57.5l-109 196c68 40 132.5 68.167 193.5 84.5s130.833 24.5 209.5 24.5c65.333 0 124.833 -8.33301 178.5 -25s99.667 -41 138 -73s68 -71.333 89 -118s31.5 -100.334 31.5 -161.001v-721h-283zM728.999 451
c-12 7.33301 -24.332 13.832 -36.999 19.499s-26.667 10.334 -42 14.001s-32.5 6.5 -51.5 8.5s-41.167 3 -66.5 3c-53.333 0 -93.833 -11.833 -121.5 -35.5s-41.5 -57.167 -41.5 -100.5c0 -18.667 2.83301 -36.667 8.5 -54s15 -32.5 28 -45.5s29.833 -23.5 50.5 -31.5
s46 -12 76 -12c23.333 0 45.166 2.66699 65.499 8s39 12.5 56 21.5s31.833 19.5 44.5 31.5s23 24.333 31 37v136zM977 1507c0 -45.333 -5.83105 -86.3311 -17.498 -122.998s-27.834 -67.667 -48.501 -93s-45.5 -44.833 -74.5 -58.5s-60.833 -20.5 -95.5 -20.5
c-21.333 0 -40.333 1.16699 -57 3.5s-32.667 6 -48 11s-31 11.5 -47 19.5s-34.333 18 -55 30c-15.333 9.33301 -32.5 18.5 -51.5 27.5s-37.167 13.5 -54.5 13.5c-19.333 0 -34.333 -7.33301 -45 -22s-19 -40 -25 -76h-184c0 45.333 5.66699 86.166 17 122.499
s27.333 67.166 48 92.499s45.5 44.833 74.5 58.5s60.833 20.5 95.5 20.5c21.333 0 40.333 -1 57 -3s32.667 -5.5 48 -10.5s31 -11.5 47 -19.5s34.333 -18 55 -30c16 -9.33301 33.333 -18.5 52 -27.5s37 -13.5 55 -13.5c19.333 0 34.166 7.33301 44.499 22s18.5 40 24.5 76
h185z" />
    <glyph glyph-name="adieresis" unicode="&#xe4;" horiz-adv-x="1139" 
d="M729 0l-0.000976562 72c-12.667 -13.333 -27 -25.5 -43 -36.5s-35.333 -21.333 -58 -31s-45.667 -16.667 -69 -21s-47.333 -6.5 -72 -6.5c-50 0 -99 7.83301 -147 23.5s-90.833 39.167 -128.5 70.5s-68 71 -91 119s-34.5 104.667 -34.5 170
c0 59.333 11.333 111.333 34 156s53.667 81.834 93 111.501s85.5 52 138.5 67s109.833 22.5 170.5 22.5c50 0 91.333 -4.33301 124 -13s60.334 -18.667 83.001 -30v53c0 40 -13.333 72.833 -40 98.5s-64.667 38.5 -114 38.5c-62.667 0 -113.667 -4.5 -153 -13.5
s-86.333 -28.167 -141 -57.5l-109 196c68 40 132.5 68.167 193.5 84.5s130.833 24.5 209.5 24.5c65.333 0 124.833 -8.33301 178.5 -25s99.667 -41 138 -73s68 -71.333 89 -118s31.5 -100.334 31.5 -161.001v-721h-283zM728.999 451
c-12 7.33301 -24.332 13.832 -36.999 19.499s-26.667 10.334 -42 14.001s-32.5 6.5 -51.5 8.5s-41.167 3 -66.5 3c-53.333 0 -93.833 -11.833 -121.5 -35.5s-41.5 -57.167 -41.5 -100.5c0 -18.667 2.83301 -36.667 8.5 -54s15 -32.5 28 -45.5s29.833 -23.5 50.5 -31.5
s46 -12 76 -12c23.333 0 45.166 2.66699 65.499 8s39 12.5 56 21.5s31.833 19.5 44.5 31.5s23 24.333 31 37v136zM950 1367c0 -21.333 -4.33301 -41.333 -13 -60s-20.167 -35.334 -34.5 -50.001s-31.166 -26.167 -50.499 -34.5s-39.333 -12.5 -60 -12.5
c-22 0 -42.833 4.16699 -62.5 12.5s-36.834 19.833 -51.501 34.5s-26.334 31.334 -35.001 50.001s-13 38.667 -13 60c0 22 4.33301 42.667 13 62s20.334 36.333 35.001 51s31.834 26.167 51.501 34.5s40.5 12.5 62.5 12.5c20.667 0 40.667 -4.16699 60 -12.5
s36.166 -19.833 50.499 -34.5s25.833 -31.667 34.5 -51s13 -40 13 -62zM508 1367c0 -21.333 -4.33301 -41.333 -13 -60s-20.334 -35.334 -35.001 -50.001s-31.667 -26.167 -51 -34.5s-39.666 -12.5 -60.999 -12.5s-41.666 4.16699 -60.999 12.5s-36.333 19.833 -51 34.5
s-26.334 31.334 -35.001 50.001s-13 38.667 -13 60c0 22 4.33301 42.667 13 62s20.334 36.333 35.001 51s31.667 26.167 51 34.5s39.666 12.5 60.999 12.5s41.666 -4.16699 60.999 -12.5s36.333 -19.833 51 -34.5s26.334 -31.667 35.001 -51s13 -40 13 -62z" />
    <glyph glyph-name="aring" unicode="&#xe5;" horiz-adv-x="1139" 
d="M729 0l-0.000976562 72c-12.667 -13.333 -27 -25.5 -43 -36.5s-35.333 -21.333 -58 -31s-45.667 -16.667 -69 -21s-47.333 -6.5 -72 -6.5c-50 0 -99 7.83301 -147 23.5s-90.833 39.167 -128.5 70.5s-68 71 -91 119s-34.5 104.667 -34.5 170
c0 59.333 11.333 111.333 34 156s53.667 81.834 93 111.501s85.5 52 138.5 67s109.833 22.5 170.5 22.5c50 0 91.333 -4.33301 124 -13s60.334 -18.667 83.001 -30v53c0 40 -13.333 72.833 -40 98.5s-64.667 38.5 -114 38.5c-62.667 0 -113.667 -4.5 -153 -13.5
s-86.333 -28.167 -141 -57.5l-109 196c68 40 132.5 68.167 193.5 84.5s130.833 24.5 209.5 24.5c65.333 0 124.833 -8.33301 178.5 -25s99.667 -41 138 -73s68 -71.333 89 -118s31.5 -100.334 31.5 -161.001v-721h-283zM728.999 451
c-12 7.33301 -24.332 13.832 -36.999 19.499s-26.667 10.334 -42 14.001s-32.5 6.5 -51.5 8.5s-41.167 3 -66.5 3c-53.333 0 -93.833 -11.833 -121.5 -35.5s-41.5 -57.167 -41.5 -100.5c0 -18.667 2.83301 -36.667 8.5 -54s15 -32.5 28 -45.5s29.833 -23.5 50.5 -31.5
s46 -12 76 -12c23.333 0 45.166 2.66699 65.499 8s39 12.5 56 21.5s31.833 19.5 44.5 31.5s23 24.333 31 37v136zM845 1491c0 -39.333 -7 -75.666 -21 -108.999s-33.333 -62 -58 -86s-53.834 -42.833 -87.501 -56.5s-70.167 -20.5 -109.5 -20.5s-75.833 6.83301 -109.5 20.5
s-62.834 32.5 -87.501 56.5s-44 52.667 -58 86s-21 69.666 -21 108.999s7 75.833 21 109.5s33.333 62.834 58 87.501s53.834 44 87.501 58s70.167 21 109.5 21s75.833 -7 109.5 -21s62.834 -33.333 87.501 -58s44 -53.834 58 -87.501s21 -70.167 21 -109.5zM690 1491
c0 17.333 -3.16699 33.5 -9.5 48.5s-14.833 28 -25.5 39s-23.5 19.667 -38.5 26s-30.833 9.5 -47.5 9.5c-17.333 0 -33.333 -3.16699 -48 -9.5s-27.334 -15 -38.001 -26s-19.167 -24 -25.5 -39s-9.5 -31.167 -9.5 -48.5s3.16699 -33.5 9.5 -48.5s14.833 -28 25.5 -39
s23.334 -19.667 38.001 -26s30.667 -9.5 48 -9.5c16.667 0 32.5 3.16699 47.5 9.5s27.833 15 38.5 26s19.167 24 25.5 39s9.5 31.167 9.5 48.5z" />
    <glyph glyph-name="ae" unicode="&#xe6;" horiz-adv-x="1726" 
d="M1638 537c0 -20.667 -0.335938 -38.3311 -1.00293 -52.998s-1.66699 -27.334 -3 -38.001h-643c2.66699 -36.667 10.834 -67.834 24.501 -93.501s30.834 -46.5 51.501 -62.5s43.667 -27.667 69 -35s50.666 -11 75.999 -11c20 0 38.833 1.66699 56.5 5
s35 8.66602 52 15.999s31.167 15 42.5 23s22.666 18.333 33.999 31l200 -167c-21.333 -28 -46.666 -52.833 -75.999 -74.5s-60.833 -40 -94.5 -55s-68.834 -26.333 -105.501 -34s-73 -11.5 -109 -11.5c-84.667 0 -158.167 15 -220.5 45s-114.166 69.667 -155.499 119
c-51.333 -57.333 -104.833 -99 -160.5 -125s-118.5 -39 -188.5 -39c-50 0 -99 7.83301 -147 23.5s-90.833 39.167 -128.5 70.5s-68 71 -91 119s-34.5 104.667 -34.5 170c0 59.333 11.333 111.333 34 156s53.667 81.834 93 111.501s85.5 52 138.5 67s109.833 22.5 170.5 22.5
c50 0 91.333 -4.33301 124 -13s60.334 -18.667 83.001 -30v53c0 40 -13.5 72.833 -40.5 98.5s-64.833 38.5 -113.5 38.5c-67.333 0 -122.166 -5.66699 -164.499 -17s-85.5 -29.333 -129.5 -54l-109 196c62 36.667 123.833 64 185.5 82s134.167 27 217.5 27
c76.667 0 140.667 -10.5 192 -31.5s95.333 -52.167 132 -93.5c35.333 38 76.833 68.333 124.5 91s101.834 34 162.501 34c72 0 136 -14.833 192 -44.5s103.167 -70 141.5 -121s67.666 -110.5 87.999 -178.5s30.5 -140.333 30.5 -217zM1364 659.003
c-2 24 -7.16699 47.665 -15.5 70.998s-20.333 44 -36 62s-35.167 32.5 -58.5 43.5s-51 16.5 -83 16.5c-25.333 0 -48.333 -5 -69 -15s-38.5 -23.667 -53.5 -41s-27 -37.666 -36 -60.999s-14.833 -48.666 -17.5 -75.999h369zM728.997 451.001
c-12 7.33301 -24.332 13.832 -36.999 19.499s-26.667 10.334 -42 14.001s-32.5 6.5 -51.5 8.5s-41.167 3 -66.5 3c-53.333 0 -93.833 -11.833 -121.5 -35.5s-41.5 -57.167 -41.5 -100.5c0 -45.333 14.333 -80.5 43 -105.5s68.667 -37.5 120 -37.5
c23.333 0 45.166 2.66699 65.499 8s39 12.5 56 21.5s31.833 19.5 44.5 31.5s23 24.333 31 37v68v68z" />
    <glyph glyph-name="ccedilla" unicode="&#xe7;" horiz-adv-x="1100" 
d="M1026 217c-26 -34.667 -53.501 -66.6689 -82.501 -96.002s-61.167 -54.666 -96.5 -75.999s-74.333 -38 -117 -50s-90.667 -18 -144 -18c-70 0 -135.667 13.667 -197 41s-114.833 65.666 -160.5 114.999s-81.5 108.333 -107.5 177s-39 144.334 -39 227.001
c0 82 12.833 157.5 38.5 226.5s61.5 128.167 107.5 177.5s100.5 87.833 163.5 115.5s131.833 41.5 206.5 41.5c90.667 0 171.334 -19.833 242.001 -59.5s132 -99.167 184 -178.5l-186 -188c-16 22.667 -32.5 43.334 -49.5 62.001s-35.167 34.667 -54.5 48
s-40.666 23.833 -63.999 31.5s-49.333 11.5 -78 11.5c-34 0 -64.667 -6.83301 -92 -20.5s-50.666 -33 -69.999 -58s-34.333 -55.167 -45 -90.5s-16 -75 -16 -119c0 -43.333 5.33301 -82.5 16 -117.5s25.667 -65.167 45 -90.5s42.666 -44.833 69.999 -58.5s58 -20.5 92 -20.5
c27.333 0 52.5 3 75.5 9s44.667 14.833 65 26.5s39.666 26 57.999 43s36.833 36.5 55.5 58.5zM526.999 75.998h113.998l-35 -162c8.66699 4 19.334 7.33301 32.001 10s28.667 4 48 4c22 0 42.667 -2.83301 62 -8.5s36.333 -14.5 51 -26.5s26.167 -27.167 34.5 -45.5
s12.5 -39.833 12.5 -64.5c0 -30.667 -5.83301 -57.167 -17.5 -79.5s-28.167 -40.833 -49.5 -55.5s-47 -25.5 -77 -32.5s-63.333 -10.5 -100 -10.5c-55.333 0 -105.5 7.16699 -150.5 21.5s-84.167 31.5 -117.5 51.5l43 78c66 -32.667 126.667 -49 182 -49
c36 0 63.5 5.83301 82.5 17.5s28.5 29.167 28.5 52.5c0 20.667 -6.5 34.667 -19.5 42s-27.833 11 -44.5 11c-23.333 0.666992 -43.666 -4 -60.999 -14l-74 28z" />
    <glyph glyph-name="egrave" unicode="&#xe8;" horiz-adv-x="1102" 
d="M1014 537c0 -20.667 -0.333984 -38.3301 -1.00098 -52.9971s-1.66699 -27.334 -3 -38.001h-643c2.66699 -36.667 10.834 -67.834 24.501 -93.501s30.667 -46.5 51 -62.5s43.166 -27.667 68.499 -35s51 -11 77 -11c19.333 0 37.333 1.5 54 4.5s33.5 8 50.5 15
s32 15.167 45 24.5s24.5 19.666 34.5 30.999l201 -167c-21.333 -28 -46.666 -52.833 -75.999 -74.5s-61 -40 -95 -55s-69.167 -26.333 -105.5 -34s-72.5 -11.5 -108.5 -11.5c-59.333 0 -112.5 7.16699 -159.5 21.5s-88.167 33.5 -123.5 57.5s-66.666 51.833 -93.999 83.5
s-50.333 67 -69 106s-33.334 82.667 -44.001 131s-16 101.833 -16 160.5c0 82 12.167 157.5 36.5 226.5s58 128.167 101 177.5s93.667 87.833 152 115.5s121.5 41.5 189.5 41.5c72 0 136 -14.833 192 -44.5s103.333 -70 142 -121s68.167 -110.5 88.5 -178.5
s30.5 -140.333 30.5 -217zM738.999 659.004c-2 24 -7.16699 47.665 -15.5 70.998s-20.333 44 -36 62s-35 32.5 -58 43.5s-50.5 16.5 -82.5 16.5c-26 0 -49.167 -5 -69.5 -15s-38 -23.667 -53 -41s-27 -37.666 -36 -60.999s-14.833 -48.666 -17.5 -75.999h368zM469.999 1219
l-297 327h358l178 -327h-239z" />
    <glyph glyph-name="eacute" unicode="&#xe9;" horiz-adv-x="1102" 
d="M1014 537c0 -20.667 -0.333984 -38.3301 -1.00098 -52.9971s-1.66699 -27.334 -3 -38.001h-643c2.66699 -36.667 10.834 -67.834 24.501 -93.501s30.667 -46.5 51 -62.5s43.166 -27.667 68.499 -35s51 -11 77 -11c19.333 0 37.333 1.5 54 4.5s33.5 8 50.5 15
s32 15.167 45 24.5s24.5 19.666 34.5 30.999l201 -167c-21.333 -28 -46.666 -52.833 -75.999 -74.5s-61 -40 -95 -55s-69.167 -26.333 -105.5 -34s-72.5 -11.5 -108.5 -11.5c-59.333 0 -112.5 7.16699 -159.5 21.5s-88.167 33.5 -123.5 57.5s-66.666 51.833 -93.999 83.5
s-50.333 67 -69 106s-33.334 82.667 -44.001 131s-16 101.833 -16 160.5c0 82 12.167 157.5 36.5 226.5s58 128.167 101 177.5s93.667 87.833 152 115.5s121.5 41.5 189.5 41.5c72 0 136 -14.833 192 -44.5s103.333 -70 142 -121s68.167 -110.5 88.5 -178.5
s30.5 -140.333 30.5 -217zM738.999 659.004c-2 24 -7.16699 47.665 -15.5 70.998s-20.333 44 -36 62s-35 32.5 -58 43.5s-50.5 16.5 -82.5 16.5c-26 0 -49.167 -5 -69.5 -15s-38 -23.667 -53 -41s-27 -37.666 -36 -60.999s-14.833 -48.666 -17.5 -75.999h368zM632.999 1219
h-239l178 327h358z" />
    <glyph glyph-name="ecircumflex" unicode="&#xea;" horiz-adv-x="1102" 
d="M1014 537c0 -20.667 -0.333984 -38.3301 -1.00098 -52.9971s-1.66699 -27.334 -3 -38.001h-643c2.66699 -36.667 10.834 -67.834 24.501 -93.501s30.667 -46.5 51 -62.5s43.166 -27.667 68.499 -35s51 -11 77 -11c19.333 0 37.333 1.5 54 4.5s33.5 8 50.5 15
s32 15.167 45 24.5s24.5 19.666 34.5 30.999l201 -167c-21.333 -28 -46.666 -52.833 -75.999 -74.5s-61 -40 -95 -55s-69.167 -26.333 -105.5 -34s-72.5 -11.5 -108.5 -11.5c-59.333 0 -112.5 7.16699 -159.5 21.5s-88.167 33.5 -123.5 57.5s-66.666 51.833 -93.999 83.5
s-50.333 67 -69 106s-33.334 82.667 -44.001 131s-16 101.833 -16 160.5c0 82 12.167 157.5 36.5 226.5s58 128.167 101 177.5s93.667 87.833 152 115.5s121.5 41.5 189.5 41.5c72 0 136 -14.833 192 -44.5s103.333 -70 142 -121s68.167 -110.5 88.5 -178.5
s30.5 -140.333 30.5 -217zM738.999 659.004c-2 24 -7.16699 47.665 -15.5 70.998s-20.333 44 -36 62s-35 32.5 -58 43.5s-50.5 16.5 -82.5 16.5c-26 0 -49.167 -5 -69.5 -15s-38 -23.667 -53 -41s-27 -37.666 -36 -60.999s-14.833 -48.666 -17.5 -75.999h368zM761.999 1200
l-205 153l-205 -153h-186l250 327h286l250 -327h-190z" />
    <glyph glyph-name="edieresis" unicode="&#xeb;" horiz-adv-x="1102" 
d="M1014 537c0 -20.667 -0.333984 -38.3301 -1.00098 -52.9971s-1.66699 -27.334 -3 -38.001h-643c2.66699 -36.667 10.834 -67.834 24.501 -93.501s30.667 -46.5 51 -62.5s43.166 -27.667 68.499 -35s51 -11 77 -11c19.333 0 37.333 1.5 54 4.5s33.5 8 50.5 15
s32 15.167 45 24.5s24.5 19.666 34.5 30.999l201 -167c-21.333 -28 -46.666 -52.833 -75.999 -74.5s-61 -40 -95 -55s-69.167 -26.333 -105.5 -34s-72.5 -11.5 -108.5 -11.5c-59.333 0 -112.5 7.16699 -159.5 21.5s-88.167 33.5 -123.5 57.5s-66.666 51.833 -93.999 83.5
s-50.333 67 -69 106s-33.334 82.667 -44.001 131s-16 101.833 -16 160.5c0 82 12.167 157.5 36.5 226.5s58 128.167 101 177.5s93.667 87.833 152 115.5s121.5 41.5 189.5 41.5c72 0 136 -14.833 192 -44.5s103.333 -70 142 -121s68.167 -110.5 88.5 -178.5
s30.5 -140.333 30.5 -217zM738.999 659.004c-2 24 -7.16699 47.665 -15.5 70.998s-20.333 44 -36 62s-35 32.5 -58 43.5s-50.5 16.5 -82.5 16.5c-26 0 -49.167 -5 -69.5 -15s-38 -23.667 -53 -41s-27 -37.666 -36 -60.999s-14.833 -48.666 -17.5 -75.999h368zM939.999 1367
c0 -21.333 -4.33301 -41.333 -13 -60s-20.167 -35.334 -34.5 -50.001s-31.166 -26.167 -50.499 -34.5s-39.333 -12.5 -60 -12.5c-22 0 -42.833 4.16699 -62.5 12.5s-36.834 19.833 -51.501 34.5s-26.334 31.334 -35.001 50.001s-13 38.667 -13 60c0 22 4.33301 42.667 13 62
s20.334 36.333 35.001 51s31.834 26.167 51.501 34.5s40.5 12.5 62.5 12.5c20.667 0 40.667 -4.16699 60 -12.5s36.166 -19.833 50.499 -34.5s25.833 -31.667 34.5 -51s13 -40 13 -62zM497.999 1367c0 -21.333 -4.33301 -41.333 -13 -60s-20.334 -35.334 -35.001 -50.001
s-31.667 -26.167 -51 -34.5s-39.666 -12.5 -60.999 -12.5s-41.666 4.16699 -60.999 12.5s-36.333 19.833 -51 34.5s-26.334 31.334 -35.001 50.001s-13 38.667 -13 60c0 22 4.33301 42.667 13 62s20.334 36.333 35.001 51s31.667 26.167 51 34.5s39.666 12.5 60.999 12.5
s41.666 -4.16699 60.999 -12.5s36.333 -19.833 51 -34.5s26.334 -31.667 35.001 -51s13 -40 13 -62z" />
    <glyph glyph-name="igrave" unicode="&#xec;" horiz-adv-x="578" 
d="M147 0v1075h283v-1075h-283zM184 1219l-297 327h358l178 -327h-239z" />
    <glyph glyph-name="iacute" unicode="&#xed;" horiz-adv-x="578" 
d="M147 0v1075h283v-1075h-283zM394 1219h-239l178 327h358z" />
    <glyph glyph-name="icircumflex" unicode="&#xee;" horiz-adv-x="578" 
d="M147 0v1075h283v-1075h-283zM493 1189l-205 153l-205 -153h-186l250 327h286l250 -327h-190z" />
    <glyph glyph-name="idieresis" unicode="&#xef;" horiz-adv-x="578" 
d="M147 0v1075h283v-1075h-283zM671 1357c0 -21.333 -4.33301 -41.333 -13 -60s-20.167 -35.334 -34.5 -50.001s-31.166 -26.167 -50.499 -34.5s-39.333 -12.5 -60 -12.5c-22 0 -42.833 4.16699 -62.5 12.5s-36.834 19.833 -51.501 34.5s-26.334 31.334 -35.001 50.001
s-13 38.667 -13 60c0 22 4.33301 42.667 13 62s20.334 36.333 35.001 51s31.834 26.167 51.501 34.5s40.5 12.5 62.5 12.5c20.667 0 40.667 -4.16699 60 -12.5s36.166 -19.833 50.499 -34.5s25.833 -31.667 34.5 -51s13 -40 13 -62zM229 1357
c0 -21.333 -4.33301 -41.333 -13 -60s-20.334 -35.334 -35.001 -50.001s-31.667 -26.167 -51 -34.5s-39.666 -12.5 -60.999 -12.5s-41.666 4.16699 -60.999 12.5s-36.333 19.833 -51 34.5s-26.334 31.334 -35.001 50.001s-13 38.667 -13 60c0 22 4.33301 42.667 13 62
s20.334 36.333 35.001 51s31.667 26.167 51 34.5s39.666 12.5 60.999 12.5s41.666 -4.16699 60.999 -12.5s36.333 -19.833 51 -34.5s26.334 -31.667 35.001 -51s13 -40 13 -62z" />
    <glyph glyph-name="eth" unicode="&#xf0;" horiz-adv-x="1137" 
d="M1055 578c0 -102.667 -12.165 -191.669 -36.498 -267.002s-58.333 -137.833 -102 -187.5s-95.334 -86.5 -155.001 -110.5s-124.5 -36 -194.5 -36s-134.667 12 -194 36s-110.5 57.833 -153.5 101.5s-76.667 96.167 -101 157.5s-36.5 129 -36.5 203
s11.833 141.667 35.5 203s55.667 114 96 158s87.5 78.167 141.5 102.5s111 36.5 171 36.5c52 0 98.167 -6.66699 138.5 -20s78.833 -32.666 115.5 -57.999c-10 46 -26.333 87.833 -49 125.5s-50.667 71.5 -84 101.5l-96 -94l-131 117l74 72
c-62.667 24.667 -122.334 39 -179.001 43v194c66 -2 126.667 -10 182 -24s106.666 -33.333 153.999 -58l84 82l131 -117l-69 -67c44.667 -41.333 83.334 -88.166 116.001 -140.499s59.5 -108.333 80.5 -168s36.5 -122.167 46.5 -187.5s15 -131.333 15 -198zM778.002 474.998
c0 36.667 -4.33301 70.332 -13 100.999s-21.834 57.167 -39.501 79.5s-39.667 39.833 -66 52.5s-57.166 19 -92.499 19s-66 -6.16699 -92 -18.5s-47.667 -29.666 -65 -51.999s-30.333 -49 -39 -80s-13 -64.833 -13 -101.5s4.33301 -70.167 13 -100.5s21.667 -56.5 39 -78.5
s39 -39 65 -51s56.667 -18 92 -18s66.166 6.66699 92.499 20s48.333 31.333 66 54s30.834 49 39.501 79s13 61.667 13 95z" />
    <glyph glyph-name="ntilde" unicode="&#xf1;" horiz-adv-x="1196" 
d="M786 0l-0.00195312 581.999c0 84.667 -13.5 147.334 -40.5 188.001s-74.167 61 -141.5 61c-29.333 0 -55.333 -4 -78 -12s-41.834 -21.333 -57.501 -40s-27.667 -43.5 -36 -74.5s-12.5 -69.833 -12.5 -116.5v-588h-283v1075h283v-71c12 12 26.5 23.667 43.5 35
s36.833 21.833 59.5 31.5s46.5 16.667 71.5 21s50.833 6.5 77.5 6.5c68.667 0 127.834 -11.5 177.501 -34.5s90.834 -55.667 123.501 -98s56.834 -93.833 72.501 -154.5s23.5 -129 23.5 -205v-606h-283zM1002 1507c0 -45.333 -5.83105 -86.3311 -17.498 -122.998
s-27.834 -67.667 -48.501 -93s-45.5 -44.833 -74.5 -58.5s-60.833 -20.5 -95.5 -20.5c-21.333 0 -40.333 1.16699 -57 3.5s-32.667 6 -48 11s-31 11.5 -47 19.5s-34.333 18 -55 30c-15.333 9.33301 -32.5 18.5 -51.5 27.5s-37.167 13.5 -54.5 13.5
c-19.333 0 -34.333 -7.33301 -45 -22s-19 -40 -25 -76h-184c0 45.333 5.66699 86.166 17 122.499s27.333 67.166 48 92.499s45.5 44.833 74.5 58.5s60.833 20.5 95.5 20.5c21.333 0 40.333 -1 57 -3s32.667 -5.5 48 -10.5s31 -11.5 47 -19.5s34.333 -18 55 -30
c16 -9.33301 33.333 -18.5 52 -27.5s37 -13.5 55 -13.5c19.333 0 34.166 7.33301 44.499 22s18.5 40 24.5 76h185z" />
    <glyph glyph-name="ograve" unicode="&#xf2;" horiz-adv-x="1137" 
d="M1055 537c0 -82.667 -12.167 -158.334 -36.5 -227.001s-58.333 -127.667 -102 -177s-95.334 -87.666 -155.001 -114.999s-124.5 -41 -194.5 -41s-134.667 13.667 -194 41s-110.5 65.666 -153.5 114.999s-76.667 108.333 -101 177s-36.5 144.334 -36.5 227.001
c0 82 12.167 157.5 36.5 226.5s58 128.167 101 177.5s94.167 87.833 153.5 115.5s124 41.5 194 41.5s134.833 -13.833 194.5 -41.5s111.334 -66.167 155.001 -115.5s77.667 -108.5 102 -177.5s36.5 -144.5 36.5 -226.5zM768 537c0 40.667 -4.16699 78.4961 -12.5 113.496
s-20.833 65.5 -37.5 91.5s-37.5 46.333 -62.5 61s-54.5 22 -88.5 22s-63.333 -7.33301 -88 -22s-45.167 -34.834 -61.5 -60.501s-28.5 -56 -36.5 -91s-12 -73.167 -12 -114.5s4 -79.666 12 -114.999s20.167 -65.666 36.5 -90.999s36.833 -45.166 61.5 -59.499
s54 -21.5 88 -21.5s63.5 7.83301 88.5 23.5s45.833 36.834 62.5 63.501s29.167 57.334 37.5 92.001s12.5 70.667 12.5 108zM478 1219l-297 327h358l178 -327h-239z" />
    <glyph glyph-name="oacute" unicode="&#xf3;" horiz-adv-x="1137" 
d="M1055 537c0 -82.667 -12.167 -158.334 -36.5 -227.001s-58.333 -127.667 -102 -177s-95.334 -87.666 -155.001 -114.999s-124.5 -41 -194.5 -41s-134.667 13.667 -194 41s-110.5 65.666 -153.5 114.999s-76.667 108.333 -101 177s-36.5 144.334 -36.5 227.001
c0 82 12.167 157.5 36.5 226.5s58 128.167 101 177.5s94.167 87.833 153.5 115.5s124 41.5 194 41.5s134.833 -13.833 194.5 -41.5s111.334 -66.167 155.001 -115.5s77.667 -108.5 102 -177.5s36.5 -144.5 36.5 -226.5zM768 537c0 40.667 -4.16699 78.4961 -12.5 113.496
s-20.833 65.5 -37.5 91.5s-37.5 46.333 -62.5 61s-54.5 22 -88.5 22s-63.333 -7.33301 -88 -22s-45.167 -34.834 -61.5 -60.501s-28.5 -56 -36.5 -91s-12 -73.167 -12 -114.5s4 -79.666 12 -114.999s20.167 -65.666 36.5 -90.999s36.833 -45.166 61.5 -59.499
s54 -21.5 88 -21.5s63.5 7.83301 88.5 23.5s45.833 36.834 62.5 63.501s29.167 57.334 37.5 92.001s12.5 70.667 12.5 108zM641 1219h-239l178 327h358z" />
    <glyph glyph-name="ocircumflex" unicode="&#xf4;" horiz-adv-x="1137" 
d="M1055 537c0 -82.667 -12.167 -158.334 -36.5 -227.001s-58.333 -127.667 -102 -177s-95.334 -87.666 -155.001 -114.999s-124.5 -41 -194.5 -41s-134.667 13.667 -194 41s-110.5 65.666 -153.5 114.999s-76.667 108.333 -101 177s-36.5 144.334 -36.5 227.001
c0 82 12.167 157.5 36.5 226.5s58 128.167 101 177.5s94.167 87.833 153.5 115.5s124 41.5 194 41.5s134.833 -13.833 194.5 -41.5s111.334 -66.167 155.001 -115.5s77.667 -108.5 102 -177.5s36.5 -144.5 36.5 -226.5zM768 537c0 40.667 -4.16699 78.4961 -12.5 113.496
s-20.833 65.5 -37.5 91.5s-37.5 46.333 -62.5 61s-54.5 22 -88.5 22s-63.333 -7.33301 -88 -22s-45.167 -34.834 -61.5 -60.501s-28.5 -56 -36.5 -91s-12 -73.167 -12 -114.5s4 -79.666 12 -114.999s20.167 -65.666 36.5 -90.999s36.833 -45.166 61.5 -59.499
s54 -21.5 88 -21.5s63.5 7.83301 88.5 23.5s45.833 36.834 62.5 63.501s29.167 57.334 37.5 92.001s12.5 70.667 12.5 108zM770 1200l-205 153l-205 -153h-186l250 327h286l250 -327h-190z" />
    <glyph glyph-name="otilde" unicode="&#xf5;" horiz-adv-x="1137" 
d="M1055 537c0 -82.667 -12.167 -158.334 -36.5 -227.001s-58.333 -127.667 -102 -177s-95.334 -87.666 -155.001 -114.999s-124.5 -41 -194.5 -41s-134.667 13.667 -194 41s-110.5 65.666 -153.5 114.999s-76.667 108.333 -101 177s-36.5 144.334 -36.5 227.001
c0 82 12.167 157.5 36.5 226.5s58 128.167 101 177.5s94.167 87.833 153.5 115.5s124 41.5 194 41.5s134.833 -13.833 194.5 -41.5s111.334 -66.167 155.001 -115.5s77.667 -108.5 102 -177.5s36.5 -144.5 36.5 -226.5zM768 537c0 40.667 -4.16699 78.4961 -12.5 113.496
s-20.833 65.5 -37.5 91.5s-37.5 46.333 -62.5 61s-54.5 22 -88.5 22s-63.333 -7.33301 -88 -22s-45.167 -34.834 -61.5 -60.501s-28.5 -56 -36.5 -91s-12 -73.167 -12 -114.5s4 -79.666 12 -114.999s20.167 -65.666 36.5 -90.999s36.833 -45.166 61.5 -59.499
s54 -21.5 88 -21.5s63.5 7.83301 88.5 23.5s45.833 36.834 62.5 63.501s29.167 57.334 37.5 92.001s12.5 70.667 12.5 108zM967 1507c0 -45.333 -5.83105 -86.3311 -17.498 -122.998s-27.834 -67.667 -48.501 -93s-45.5 -44.833 -74.5 -58.5s-60.833 -20.5 -95.5 -20.5
c-21.333 0 -40.333 1.16699 -57 3.5s-32.667 6 -48 11s-31 11.5 -47 19.5s-34.333 18 -55 30c-15.333 9.33301 -32.5 18.5 -51.5 27.5s-37.167 13.5 -54.5 13.5c-19.333 0 -34.333 -7.33301 -45 -22s-19 -40 -25 -76h-184c0 45.333 5.66699 86.166 17 122.499
s27.333 67.166 48 92.499s45.5 44.833 74.5 58.5s60.833 20.5 95.5 20.5c21.333 0 40.333 -1 57 -3s32.667 -5.5 48 -10.5s31 -11.5 47 -19.5s34.333 -18 55 -30c16 -9.33301 33.333 -18.5 52 -27.5s37 -13.5 55 -13.5c19.333 0 34.166 7.33301 44.499 22s18.5 40 24.5 76
h185z" />
    <glyph glyph-name="odieresis" unicode="&#xf6;" horiz-adv-x="1137" 
d="M1055 537c0 -82.667 -12.167 -158.334 -36.5 -227.001s-58.333 -127.667 -102 -177s-95.334 -87.666 -155.001 -114.999s-124.5 -41 -194.5 -41s-134.667 13.667 -194 41s-110.5 65.666 -153.5 114.999s-76.667 108.333 -101 177s-36.5 144.334 -36.5 227.001
c0 82 12.167 157.5 36.5 226.5s58 128.167 101 177.5s94.167 87.833 153.5 115.5s124 41.5 194 41.5s134.833 -13.833 194.5 -41.5s111.334 -66.167 155.001 -115.5s77.667 -108.5 102 -177.5s36.5 -144.5 36.5 -226.5zM768 537c0 40.667 -4.16699 78.4961 -12.5 113.496
s-20.833 65.5 -37.5 91.5s-37.5 46.333 -62.5 61s-54.5 22 -88.5 22s-63.333 -7.33301 -88 -22s-45.167 -34.834 -61.5 -60.501s-28.5 -56 -36.5 -91s-12 -73.167 -12 -114.5s4 -79.666 12 -114.999s20.167 -65.666 36.5 -90.999s36.833 -45.166 61.5 -59.499
s54 -21.5 88 -21.5s63.5 7.83301 88.5 23.5s45.833 36.834 62.5 63.501s29.167 57.334 37.5 92.001s12.5 70.667 12.5 108zM948 1357c0 -21.333 -4.33301 -41.333 -13 -60s-20.167 -35.334 -34.5 -50.001s-31.166 -26.167 -50.499 -34.5s-39.333 -12.5 -60 -12.5
c-22 0 -42.833 4.16699 -62.5 12.5s-36.834 19.833 -51.501 34.5s-26.334 31.334 -35.001 50.001s-13 38.667 -13 60c0 22 4.33301 42.667 13 62s20.334 36.333 35.001 51s31.834 26.167 51.501 34.5s40.5 12.5 62.5 12.5c20.667 0 40.667 -4.16699 60 -12.5
s36.166 -19.833 50.499 -34.5s25.833 -31.667 34.5 -51s13 -40 13 -62zM506 1357c0 -21.333 -4.33301 -41.333 -13 -60s-20.334 -35.334 -35.001 -50.001s-31.667 -26.167 -51 -34.5s-39.666 -12.5 -60.999 -12.5s-41.666 4.16699 -60.999 12.5s-36.333 19.833 -51 34.5
s-26.334 31.334 -35.001 50.001s-13 38.667 -13 60c0 22 4.33301 42.667 13 62s20.334 36.333 35.001 51s31.667 26.167 51 34.5s39.666 12.5 60.999 12.5s41.666 -4.16699 60.999 -12.5s36.333 -19.833 51 -34.5s26.334 -31.667 35.001 -51s13 -40 13 -62z" />
    <glyph glyph-name="divide" unicode="&#xf7;" 
d="M807 1143c0 -23.333 -4.66699 -45.333 -14 -66s-21.833 -38.667 -37.5 -54s-34 -27.5 -55 -36.5s-42.833 -13.5 -65.5 -13.5c-24 0 -46.5 4.5 -67.5 13.5s-39.167 21.167 -54.5 36.5s-27.5 33.333 -36.5 54s-13.5 42.667 -13.5 66s4.5 45.666 13.5 66.999
s21.333 40 37 56s34 28.833 55 38.5s43.167 14.5 66.5 14.5c22.667 0 44.5 -4.83301 65.5 -14.5s39.333 -22.5 55 -38.5s28.167 -34.667 37.5 -56s14 -43.666 14 -66.999zM119 580v249h1030v-249h-1030zM807 262c0 -24 -4.66699 -46.5 -14 -67.5
s-21.833 -39.167 -37.5 -54.5s-34 -27.5 -55 -36.5s-42.833 -13.5 -65.5 -13.5c-24 0 -46.5 4.5 -67.5 13.5s-39.167 21.167 -54.5 36.5s-27.5 33.5 -36.5 54.5s-13.5 43.5 -13.5 67.5c0 23.333 4.5 45.5 13.5 66.5s21.333 39.5 37 55.5s34 28.667 55 38s43.167 14 66.5 14
c22.667 0 44.5 -4.66699 65.5 -14s39.333 -22 55 -38s28.167 -34.5 37.5 -55.5s14 -43.167 14 -66.5z" />
    <glyph glyph-name="oslash" unicode="&#xf8;" horiz-adv-x="1137" 
d="M1055 537c0 -82.667 -12.166 -158.334 -36.499 -227.001s-58.333 -127.667 -102 -177s-95.334 -87.666 -155.001 -114.999s-124.5 -41 -194.5 -41c-48 0 -101 9 -159 27l-56 -106h-252l123 231c-44 49.333 -78.5 108.5 -103.5 177.5s-37.5 145.833 -37.5 230.5
c0 82 12.167 157.5 36.5 226.5s58 128.167 101 177.5s94.167 87.833 153.5 115.5s124 41.5 194 41.5c28 0 55 -2.16699 81 -6.5s51 -11.166 75 -20.499l55 107h252l-121 -230c46 -50 81.833 -109.833 107.5 -179.5s38.5 -146.834 38.5 -231.501zM621.001 858
c-17.333 4 -35.333 6.00098 -54 6.00098c-37.333 0 -69.666 -8.5 -96.999 -25.5s-50 -40.333 -68 -70s-31.5 -64.334 -40.5 -104.001s-13.5 -82.167 -13.5 -127.5c0 -29.333 1.66699 -56.833 5 -82.5s8.66602 -50.167 15.999 -73.5zM788.001 537.001
c0 30.667 -2 59.5 -6 86.5s-10 52.5 -18 76.5l-254 -481c17.333 -5.33301 36.333 -8 57 -8c37.333 0 69.833 9.33301 97.5 28s50.667 43.167 69 73.5s32 65 41 104s13.5 79.167 13.5 120.5z" />
    <glyph glyph-name="ugrave" unicode="&#xf9;" horiz-adv-x="1196" 
d="M776 0v72.001c-24.667 -26 -58.667 -48.333 -102 -67s-93.333 -28 -150 -28c-129.333 0 -227.833 41.667 -295.5 125s-101.5 205.666 -101.5 366.999v606h283v-581c0 -86.667 13.667 -150 41 -190s74.333 -60 141 -60c67.333 0 114.833 20.5 142.5 61.5
s41.5 101.5 41.5 181.5v588h283v-1075h-283zM504 1219l-297 327h358l178 -327h-239z" />
    <glyph glyph-name="uacute" unicode="&#xfa;" horiz-adv-x="1196" 
d="M776 0v72.001c-24.667 -26 -58.667 -48.333 -102 -67s-93.333 -28 -150 -28c-129.333 0 -227.833 41.667 -295.5 125s-101.5 205.666 -101.5 366.999v606h283v-581c0 -86.667 13.667 -150 41 -190s74.333 -60 141 -60c67.333 0 114.833 20.5 142.5 61.5
s41.5 101.5 41.5 181.5v588h283v-1075h-283zM667 1219h-239l178 327h358z" />
    <glyph glyph-name="ucircumflex" unicode="&#xfb;" horiz-adv-x="1196" 
d="M776 0v72.001c-24.667 -26 -58.667 -48.333 -102 -67s-93.333 -28 -150 -28c-129.333 0 -227.833 41.667 -295.5 125s-101.5 205.666 -101.5 366.999v606h283v-581c0 -86.667 13.667 -150 41 -190s74.333 -60 141 -60c67.333 0 114.833 20.5 142.5 61.5
s41.5 101.5 41.5 181.5v588h283v-1075h-283zM797 1219l-205 153l-205 -153h-186l250 327h286l250 -327h-190z" />
    <glyph glyph-name="udieresis" unicode="&#xfc;" horiz-adv-x="1196" 
d="M776 0v72.001c-24.667 -26 -58.667 -48.333 -102 -67s-93.333 -28 -150 -28c-129.333 0 -227.833 41.667 -295.5 125s-101.5 205.666 -101.5 366.999v606h283v-581c0 -86.667 13.667 -150 41 -190s74.333 -60 141 -60c67.333 0 114.833 20.5 142.5 61.5
s41.5 101.5 41.5 181.5v588h283v-1075h-283zM975 1376c0 -21.333 -4.33301 -41.333 -13 -60s-20.167 -35.334 -34.5 -50.001s-31.166 -26.167 -50.499 -34.5s-39.333 -12.5 -60 -12.5c-22 0 -42.833 4.16699 -62.5 12.5s-36.834 19.833 -51.501 34.5
s-26.334 31.334 -35.001 50.001s-13 38.667 -13 60c0 22 4.33301 42.667 13 62s20.334 36.333 35.001 51s31.834 26.167 51.501 34.5s40.5 12.5 62.5 12.5c20.667 0 40.667 -4.16699 60 -12.5s36.166 -19.833 50.499 -34.5s25.833 -31.667 34.5 -51s13 -40 13 -62zM533 1376
c0 -21.333 -4.33301 -41.333 -13 -60s-20.334 -35.334 -35.001 -50.001s-31.667 -26.167 -51 -34.5s-39.666 -12.5 -60.999 -12.5s-41.666 4.16699 -60.999 12.5s-36.333 19.833 -51 34.5s-26.334 31.334 -35.001 50.001s-13 38.667 -13 60c0 22 4.33301 42.667 13 62
s20.334 36.333 35.001 51s31.667 26.167 51 34.5s39.666 12.5 60.999 12.5s41.666 -4.16699 60.999 -12.5s36.333 -19.833 51 -34.5s26.334 -31.667 35.001 -51s13 -40 13 -62z" />
    <glyph glyph-name="yacute" unicode="&#xfd;" horiz-adv-x="1208" 
d="M604 -379h-278l143 379l-418 1075h311l246 -724l246 724h303zM676 1200h-239l178 327h358z" />
    <glyph glyph-name="thorn" unicode="&#xfe;" horiz-adv-x="1151" 
d="M1065 524c0 -80 -9.33301 -153.499 -28 -220.499s-45.834 -124.667 -81.501 -173s-79.334 -86 -131.001 -113s-110.834 -40.5 -177.501 -40.5c-47.333 0 -90.666 8.16699 -129.999 24.5s-71.666 36.166 -96.999 59.499v-315l-283 -141v1747l283 141v-485
c13.333 12 27.833 23.333 43.5 34s32.834 20.167 51.501 28.5s39 15 61 20s45.667 7.5 71 7.5c57.333 0 111.333 -11 162 -33s95 -56.333 133 -103s68 -106.167 90 -178.5s33 -158.833 33 -259.5zM778 518.001c0 55.333 -4.33398 102.667 -13.001 142s-21 71.666 -37 96.999
s-35.333 44 -58 56s-48 18 -76 18c-43.333 0 -78.666 -8.66699 -105.999 -26s-50 -38.666 -68 -63.999v-405c11.333 -16 23.666 -29.667 36.999 -41s28.5 -21 45.5 -29s33.333 -13.667 49 -17s35.167 -5 58.5 -5c54.667 0 96.334 23 125.001 69s43 114.333 43 205z" />
    <glyph glyph-name="ydieresis" unicode="&#xff;" horiz-adv-x="1208" 
d="M604 -379h-278l143 379l-418 1075h311l246 -724l246 724h303zM983 1357c0 -21.333 -4.33301 -41.333 -13 -60s-20.167 -35.334 -34.5 -50.001s-31.166 -26.167 -50.499 -34.5s-39.333 -12.5 -60 -12.5c-22 0 -42.833 4.16699 -62.5 12.5s-36.834 19.833 -51.501 34.5
s-26.334 31.334 -35.001 50.001s-13 38.667 -13 60c0 22 4.33301 42.667 13 62s20.334 36.333 35.001 51s31.834 26.167 51.501 34.5s40.5 12.5 62.5 12.5c20.667 0 40.667 -4.16699 60 -12.5s36.166 -19.833 50.499 -34.5s25.833 -31.667 34.5 -51s13 -40 13 -62zM541 1357
c0 -21.333 -4.33301 -41.333 -13 -60s-20.334 -35.334 -35.001 -50.001s-31.667 -26.167 -51 -34.5s-39.666 -12.5 -60.999 -12.5s-41.666 4.16699 -60.999 12.5s-36.333 19.833 -51 34.5s-26.334 31.334 -35.001 50.001s-13 38.667 -13 60c0 22 4.33301 42.667 13 62
s20.334 36.333 35.001 51s31.667 26.167 51 34.5s39.666 12.5 60.999 12.5s41.666 -4.16699 60.999 -12.5s36.333 -19.833 51 -34.5s26.334 -31.667 35.001 -51s13 -40 13 -62z" />
    <glyph glyph-name="Amacron" unicode="&#x100;" horiz-adv-x="1536" 
d="M1454 0h-315l-113 319h-524l-113 -319h-307l549 1434h278zM928 592l-164 467l-164 -467h328zM471 1556v215h594v-215h-594z" />
    <glyph glyph-name="amacron" unicode="&#x101;" horiz-adv-x="1139" 
d="M729 0l-0.000976562 72c-12.667 -13.333 -27 -25.5 -43 -36.5s-35.333 -21.333 -58 -31s-45.667 -16.667 -69 -21s-47.333 -6.5 -72 -6.5c-50 0 -99 7.83301 -147 23.5s-90.833 39.167 -128.5 70.5s-68 71 -91 119s-34.5 104.667 -34.5 170
c0 59.333 11.333 111.333 34 156s53.667 81.834 93 111.501s85.5 52 138.5 67s109.833 22.5 170.5 22.5c50 0 91.333 -4.33301 124 -13s60.334 -18.667 83.001 -30v53c0 40 -13.333 72.833 -40 98.5s-64.667 38.5 -114 38.5c-62.667 0 -113.667 -4.5 -153 -13.5
s-86.333 -28.167 -141 -57.5l-109 196c68 40 132.5 68.167 193.5 84.5s130.833 24.5 209.5 24.5c65.333 0 124.833 -8.33301 178.5 -25s99.667 -41 138 -73s68 -71.333 89 -118s31.5 -100.334 31.5 -161.001v-721h-283zM728.999 451
c-12 7.33301 -24.332 13.832 -36.999 19.499s-26.667 10.334 -42 14.001s-32.5 6.5 -51.5 8.5s-41.167 3 -66.5 3c-53.333 0 -93.833 -11.833 -121.5 -35.5s-41.5 -57.167 -41.5 -100.5c0 -18.667 2.83301 -36.667 8.5 -54s15 -32.5 28 -45.5s29.833 -23.5 50.5 -31.5
s46 -12 76 -12c23.333 0 45.166 2.66699 65.499 8s39 12.5 56 21.5s31.833 19.5 44.5 31.5s23 24.333 31 37v136zM272 1249v215h594v-215h-594z" />
    <glyph glyph-name="Abreve" unicode="&#x102;" horiz-adv-x="1536" 
d="M1454 0h-315l-113 319h-524l-113 -319h-307l549 1434h278zM928 592l-164 467l-164 -467h328zM766 1526c-56 0 -105.833 7.33301 -149.5 22s-81.5 36 -113.5 64s-57.833 62.167 -77.5 102.5s-33.167 86.5 -40.5 138.5h172c13.333 -45.333 37 -78.833 71 -100.5
s81.333 -32.5 142 -32.5c62 0 109.833 10.333 143.5 31s57.5 54.667 71.5 102h166c-7.33301 -52 -21.5 -98.167 -42.5 -138.5s-48 -74.5 -81 -102.5s-71.5 -49.333 -115.5 -64s-92.667 -22 -146 -22z" />
    <glyph glyph-name="abreve" unicode="&#x103;" horiz-adv-x="1139" 
d="M729 0l-0.000976562 72c-12.667 -13.333 -27 -25.5 -43 -36.5s-35.333 -21.333 -58 -31s-45.667 -16.667 -69 -21s-47.333 -6.5 -72 -6.5c-50 0 -99 7.83301 -147 23.5s-90.833 39.167 -128.5 70.5s-68 71 -91 119s-34.5 104.667 -34.5 170
c0 59.333 11.333 111.333 34 156s53.667 81.834 93 111.501s85.5 52 138.5 67s109.833 22.5 170.5 22.5c50 0 91.333 -4.33301 124 -13s60.334 -18.667 83.001 -30v53c0 40 -13.333 72.833 -40 98.5s-64.667 38.5 -114 38.5c-62.667 0 -113.667 -4.5 -153 -13.5
s-86.333 -28.167 -141 -57.5l-109 196c68 40 132.5 68.167 193.5 84.5s130.833 24.5 209.5 24.5c65.333 0 124.833 -8.33301 178.5 -25s99.667 -41 138 -73s68 -71.333 89 -118s31.5 -100.334 31.5 -161.001v-721h-283zM728.999 451
c-12 7.33301 -24.332 13.832 -36.999 19.499s-26.667 10.334 -42 14.001s-32.5 6.5 -51.5 8.5s-41.167 3 -66.5 3c-53.333 0 -93.833 -11.833 -121.5 -35.5s-41.5 -57.167 -41.5 -100.5c0 -18.667 2.83301 -36.667 8.5 -54s15 -32.5 28 -45.5s29.833 -23.5 50.5 -31.5
s46 -12 76 -12c23.333 0 45.166 2.66699 65.499 8s39 12.5 56 21.5s31.833 19.5 44.5 31.5s23 24.333 31 37v136zM567 1219c-56 0 -105.833 7.33301 -149.5 22s-81.5 36 -113.5 64s-57.833 62.167 -77.5 102.5s-33.167 86.5 -40.5 138.5h172
c13.333 -45.333 37 -78.833 71 -100.5s81.333 -32.5 142 -32.5c62 0 109.833 10.333 143.5 31s57.5 54.667 71.5 102h166c-7.33301 -52 -21.5 -98.167 -42.5 -138.5s-48 -74.5 -81 -102.5s-71.5 -49.333 -115.5 -64s-92.667 -22 -146 -22z" />
    <glyph glyph-name="Aogonek" unicode="&#x104;" horiz-adv-x="1536" 
d="M1454 0h-315l-113 319h-524l-113 -319h-307l549 1434h278zM928 592l-164 467l-164 -467h328zM1423 0c-41.333 -2.66699 -77.002 -9 -107.002 -19s-54.667 -22.167 -74 -36.5s-33.666 -29.666 -42.999 -45.999s-14 -32.5 -14 -48.5c0 -24.667 8 -43.667 24 -57
s39.333 -20 70 -20c14 0 28.333 2.33301 43 7s27.667 10.334 39 17.001l62 -123c-41.333 -27.333 -81.333 -48.5 -120 -63.5s-82.667 -22.5 -132 -22.5c-34 0 -64.5 5 -91.5 15s-50 23.5 -69 40.5s-33.5 36.333 -43.5 58s-15 44.167 -15 67.5
c0 29.333 5.33301 56.166 16 80.499s24.834 46 42.501 65s37.667 35.667 60 50s45.5 26.166 69.5 35.499h283z" />
    <glyph glyph-name="aogonek" unicode="&#x105;" horiz-adv-x="1139" 
d="M729 0l-0.000976562 72c-12.667 -13.333 -27 -25.5 -43 -36.5s-35.333 -21.333 -58 -31s-45.667 -16.667 -69 -21s-47.333 -6.5 -72 -6.5c-50 0 -99 7.83301 -147 23.5s-90.833 39.167 -128.5 70.5s-68 71 -91 119s-34.5 104.667 -34.5 170
c0 59.333 11.333 111.333 34 156s53.667 81.834 93 111.501s85.5 52 138.5 67s109.833 22.5 170.5 22.5c50 0 91.333 -4.33301 124 -13s60.334 -18.667 83.001 -30v53c0 40 -13.333 72.833 -40 98.5s-64.667 38.5 -114 38.5c-62.667 0 -113.667 -4.5 -153 -13.5
s-86.333 -28.167 -141 -57.5l-109 196c68 40 132.5 68.167 193.5 84.5s130.833 24.5 209.5 24.5c65.333 0 124.833 -8.33301 178.5 -25s99.667 -41 138 -73s68 -71.333 89 -118s31.5 -100.334 31.5 -161.001v-721h-283zM728.999 451
c-12 7.33301 -24.332 13.832 -36.999 19.499s-26.667 10.334 -42 14.001s-32.5 6.5 -51.5 8.5s-41.167 3 -66.5 3c-53.333 0 -93.833 -11.833 -121.5 -35.5s-41.5 -57.167 -41.5 -100.5c0 -18.667 2.83301 -36.667 8.5 -54s15 -32.5 28 -45.5s29.833 -23.5 50.5 -31.5
s46 -12 76 -12c23.333 0 45.166 2.66699 65.499 8s39 12.5 56 21.5s31.833 19.5 44.5 31.5s23 24.333 31 37v136zM1012 -0.000976562c-41.333 -2.66699 -77.002 -9 -107.002 -19s-54.667 -22.167 -74 -36.5s-33.666 -29.666 -42.999 -45.999s-14 -32.5 -14 -48.5
c0 -24.667 8 -43.667 24 -57s39.333 -20 70 -20c14 0 28.333 2.33301 43 7s27.667 10.334 39 17.001l62 -123c-41.333 -27.333 -81.333 -48.5 -120 -63.5s-82.667 -22.5 -132 -22.5c-34 0 -64.5 5 -91.5 15s-50 23.5 -69 40.5s-33.5 36.333 -43.5 58s-15 44.167 -15 67.5
c0 29.333 5.33301 56.166 16 80.499s24.834 46 42.501 65s37.667 35.667 60 50s45.5 26.166 69.5 35.499h283z" />
    <glyph glyph-name="Cacute" unicode="&#x106;" horiz-adv-x="1372" 
d="M1004 1016c-16 30.667 -31.334 53.665 -46.001 68.998s-32.667 29.833 -54 43.5s-45 24.167 -71 31.5s-56.667 11 -92 11c-54 0 -101.833 -11.167 -143.5 -33.5s-77 -53.5 -106 -93.5s-51 -87.833 -66 -143.5s-22.5 -116.834 -22.5 -183.501
c0 -64.667 7.66699 -124.667 23 -180s37.5 -103.333 66.5 -144s64.5 -72.667 106.5 -96s90 -35 144 -35c58.667 0 109.5 12.667 152.5 38s85.833 73.333 128.5 144l242 -143c-24.667 -50.667 -54 -96 -88 -136s-73 -74 -117 -102s-93.167 -49.333 -147.5 -64
s-113.833 -22 -178.5 -22c-65.333 0 -124.833 7.83301 -178.5 23.5s-104.167 38.5 -151.5 68.5s-89.333 66.667 -126 110s-66 88.333 -88 135s-41.167 103.834 -57.5 171.501s-24.5 144.834 -24.5 231.501c0 108.667 15.667 208.334 47 299.001s75 168.667 131 234
s123 116 201 152s163.667 54 257 54c120.667 0 225.334 -26.167 314.001 -78.5s159 -131.833 211 -238.5zM785.999 1526h-239l178 327h358z" />
    <glyph glyph-name="cacute" unicode="&#x107;" horiz-adv-x="1100" 
d="M1026 217c-26 -34.667 -53.501 -66.6689 -82.501 -96.002s-61.167 -54.666 -96.5 -75.999s-74.333 -38 -117 -50s-90.667 -18 -144 -18c-70 0 -135.667 13.667 -197 41s-114.833 65.666 -160.5 114.999s-81.5 108.333 -107.5 177s-39 144.334 -39 227.001
c0 82 12.833 157.5 38.5 226.5s61.5 128.167 107.5 177.5s100.5 87.833 163.5 115.5s131.833 41.5 206.5 41.5c90.667 0 171.334 -19.833 242.001 -59.5s132 -99.167 184 -178.5l-186 -188c-16 22.667 -32.5 43.334 -49.5 62.001s-35.167 34.667 -54.5 48
s-40.666 23.833 -63.999 31.5s-49.333 11.5 -78 11.5c-34 0 -64.667 -6.83301 -92 -20.5s-50.666 -33 -69.999 -58s-34.333 -55.167 -45 -90.5s-16 -75 -16 -119c0 -43.333 5.33301 -82.5 16 -117.5s25.667 -65.167 45 -90.5s42.666 -44.833 69.999 -58.5s58 -20.5 92 -20.5
c27.333 0 52.5 3 75.5 9s44.667 14.833 65 26.5s39.666 26 57.999 43s36.833 36.5 55.5 58.5zM632.999 1219h-239l178 327h358z" />
    <glyph glyph-name="Ccircumflex" unicode="&#x108;" horiz-adv-x="1372" 
d="M1004 1016c-16 30.667 -31.334 53.665 -46.001 68.998s-32.667 29.833 -54 43.5s-45 24.167 -71 31.5s-56.667 11 -92 11c-54 0 -101.833 -11.167 -143.5 -33.5s-77 -53.5 -106 -93.5s-51 -87.833 -66 -143.5s-22.5 -116.834 -22.5 -183.501
c0 -64.667 7.66699 -124.667 23 -180s37.5 -103.333 66.5 -144s64.5 -72.667 106.5 -96s90 -35 144 -35c58.667 0 109.5 12.667 152.5 38s85.833 73.333 128.5 144l242 -143c-24.667 -50.667 -54 -96 -88 -136s-73 -74 -117 -102s-93.167 -49.333 -147.5 -64
s-113.833 -22 -178.5 -22c-65.333 0 -124.833 7.83301 -178.5 23.5s-104.167 38.5 -151.5 68.5s-89.333 66.667 -126 110s-66 88.333 -88 135s-41.167 103.834 -57.5 171.501s-24.5 144.834 -24.5 231.501c0 108.667 15.667 208.334 47 299.001s75 168.667 131 234
s123 116 201 152s163.667 54 257 54c120.667 0 225.334 -26.167 314.001 -78.5s159 -131.833 211 -238.5zM929.999 1516l-205 153l-205 -153h-186l250 327h286l250 -327h-190z" />
    <glyph glyph-name="ccircumflex" unicode="&#x109;" horiz-adv-x="1100" 
d="M1026 217c-26 -34.667 -53.501 -66.6689 -82.501 -96.002s-61.167 -54.666 -96.5 -75.999s-74.333 -38 -117 -50s-90.667 -18 -144 -18c-70 0 -135.667 13.667 -197 41s-114.833 65.666 -160.5 114.999s-81.5 108.333 -107.5 177s-39 144.334 -39 227.001
c0 82 12.833 157.5 38.5 226.5s61.5 128.167 107.5 177.5s100.5 87.833 163.5 115.5s131.833 41.5 206.5 41.5c90.667 0 171.334 -19.833 242.001 -59.5s132 -99.167 184 -178.5l-186 -188c-16 22.667 -32.5 43.334 -49.5 62.001s-35.167 34.667 -54.5 48
s-40.666 23.833 -63.999 31.5s-49.333 11.5 -78 11.5c-34 0 -64.667 -6.83301 -92 -20.5s-50.666 -33 -69.999 -58s-34.333 -55.167 -45 -90.5s-16 -75 -16 -119c0 -43.333 5.33301 -82.5 16 -117.5s25.667 -65.167 45 -90.5s42.666 -44.833 69.999 -58.5s58 -20.5 92 -20.5
c27.333 0 52.5 3 75.5 9s44.667 14.833 65 26.5s39.666 26 57.999 43s36.833 36.5 55.5 58.5zM796.999 1200l-205 153l-205 -153h-186l250 327h286l250 -327h-190z" />
    <glyph glyph-name="Cdotaccent" unicode="&#x10a;" horiz-adv-x="1372" 
d="M1004 1016c-16 30.667 -31.334 53.665 -46.001 68.998s-32.667 29.833 -54 43.5s-45 24.167 -71 31.5s-56.667 11 -92 11c-54 0 -101.833 -11.167 -143.5 -33.5s-77 -53.5 -106 -93.5s-51 -87.833 -66 -143.5s-22.5 -116.834 -22.5 -183.501
c0 -64.667 7.66699 -124.667 23 -180s37.5 -103.333 66.5 -144s64.5 -72.667 106.5 -96s90 -35 144 -35c58.667 0 109.5 12.667 152.5 38s85.833 73.333 128.5 144l242 -143c-24.667 -50.667 -54 -96 -88 -136s-73 -74 -117 -102s-93.167 -49.333 -147.5 -64
s-113.833 -22 -178.5 -22c-65.333 0 -124.833 7.83301 -178.5 23.5s-104.167 38.5 -151.5 68.5s-89.333 66.667 -126 110s-66 88.333 -88 135s-41.167 103.834 -57.5 171.501s-24.5 144.834 -24.5 231.501c0 108.667 15.667 208.334 47 299.001s75 168.667 131 234
s123 116 201 152s163.667 54 257 54c120.667 0 225.334 -26.167 314.001 -78.5s159 -131.833 211 -238.5zM894.999 1683c0 -21.333 -4.33301 -41.333 -13 -60s-20.167 -35.334 -34.5 -50.001s-31.166 -26.167 -50.499 -34.5s-39.333 -12.5 -60 -12.5
c-22 0 -42.833 4.16699 -62.5 12.5s-36.834 19.833 -51.501 34.5s-26.334 31.334 -35.001 50.001s-13 38.667 -13 60c0 22 4.33301 42.667 13 62s20.334 36.333 35.001 51s31.834 26.167 51.501 34.5s40.5 12.5 62.5 12.5c20.667 0 40.667 -4.16699 60 -12.5
s36.166 -19.833 50.499 -34.5s25.833 -31.667 34.5 -51s13 -40 13 -62z" />
    <glyph glyph-name="cdotaccent" unicode="&#x10b;" horiz-adv-x="1100" 
d="M1026 217c-26 -34.667 -53.501 -66.6689 -82.501 -96.002s-61.167 -54.666 -96.5 -75.999s-74.333 -38 -117 -50s-90.667 -18 -144 -18c-70 0 -135.667 13.667 -197 41s-114.833 65.666 -160.5 114.999s-81.5 108.333 -107.5 177s-39 144.334 -39 227.001
c0 82 12.833 157.5 38.5 226.5s61.5 128.167 107.5 177.5s100.5 87.833 163.5 115.5s131.833 41.5 206.5 41.5c90.667 0 171.334 -19.833 242.001 -59.5s132 -99.167 184 -178.5l-186 -188c-16 22.667 -32.5 43.334 -49.5 62.001s-35.167 34.667 -54.5 48
s-40.666 23.833 -63.999 31.5s-49.333 11.5 -78 11.5c-34 0 -64.667 -6.83301 -92 -20.5s-50.666 -33 -69.999 -58s-34.333 -55.167 -45 -90.5s-16 -75 -16 -119c0 -43.333 5.33301 -82.5 16 -117.5s25.667 -65.167 45 -90.5s42.666 -44.833 69.999 -58.5s58 -20.5 92 -20.5
c27.333 0 52.5 3 75.5 9s44.667 14.833 65 26.5s39.666 26 57.999 43s36.833 36.5 55.5 58.5zM749.999 1376c0 -21.333 -4.33301 -41.333 -13 -60s-20.167 -35.334 -34.5 -50.001s-31.166 -26.167 -50.499 -34.5s-39.333 -12.5 -60 -12.5c-22 0 -42.833 4.16699 -62.5 12.5
s-36.834 19.833 -51.501 34.5s-26.334 31.334 -35.001 50.001s-13 38.667 -13 60c0 22 4.33301 42.667 13 62s20.334 36.333 35.001 51s31.834 26.167 51.501 34.5s40.5 12.5 62.5 12.5c20.667 0 40.667 -4.16699 60 -12.5s36.166 -19.833 50.499 -34.5
s25.833 -31.667 34.5 -51s13 -40 13 -62z" />
    <glyph glyph-name="Ccaron" unicode="&#x10c;" horiz-adv-x="1372" 
d="M1004 1016c-16 30.667 -31.334 53.665 -46.001 68.998s-32.667 29.833 -54 43.5s-45 24.167 -71 31.5s-56.667 11 -92 11c-54 0 -101.833 -11.167 -143.5 -33.5s-77 -53.5 -106 -93.5s-51 -87.833 -66 -143.5s-22.5 -116.834 -22.5 -183.501
c0 -64.667 7.66699 -124.667 23 -180s37.5 -103.333 66.5 -144s64.5 -72.667 106.5 -96s90 -35 144 -35c58.667 0 109.5 12.667 152.5 38s85.833 73.333 128.5 144l242 -143c-24.667 -50.667 -54 -96 -88 -136s-73 -74 -117 -102s-93.167 -49.333 -147.5 -64
s-113.833 -22 -178.5 -22c-65.333 0 -124.833 7.83301 -178.5 23.5s-104.167 38.5 -151.5 68.5s-89.333 66.667 -126 110s-66 88.333 -88 135s-41.167 103.834 -57.5 171.501s-24.5 144.834 -24.5 231.501c0 108.667 15.667 208.334 47 299.001s75 168.667 131 234
s123 116 201 152s163.667 54 257 54c120.667 0 225.334 -26.167 314.001 -78.5s159 -131.833 211 -238.5zM867.999 1526h-286l-250 327h190l205 -153l205 153h186z" />
    <glyph glyph-name="ccaron" unicode="&#x10d;" horiz-adv-x="1100" 
d="M1026 217c-26 -34.667 -53.501 -66.6689 -82.501 -96.002s-61.167 -54.666 -96.5 -75.999s-74.333 -38 -117 -50s-90.667 -18 -144 -18c-70 0 -135.667 13.667 -197 41s-114.833 65.666 -160.5 114.999s-81.5 108.333 -107.5 177s-39 144.334 -39 227.001
c0 82 12.833 157.5 38.5 226.5s61.5 128.167 107.5 177.5s100.5 87.833 163.5 115.5s131.833 41.5 206.5 41.5c90.667 0 171.334 -19.833 242.001 -59.5s132 -99.167 184 -178.5l-186 -188c-16 22.667 -32.5 43.334 -49.5 62.001s-35.167 34.667 -54.5 48
s-40.666 23.833 -63.999 31.5s-49.333 11.5 -78 11.5c-34 0 -64.667 -6.83301 -92 -20.5s-50.666 -33 -69.999 -58s-34.333 -55.167 -45 -90.5s-16 -75 -16 -119c0 -43.333 5.33301 -82.5 16 -117.5s25.667 -65.167 45 -90.5s42.666 -44.833 69.999 -58.5s58 -20.5 92 -20.5
c27.333 0 52.5 3 75.5 9s44.667 14.833 65 26.5s39.666 26 57.999 43s36.833 36.5 55.5 58.5zM736.999 1219h-286l-250 327h190l205 -153l205 153h186z" />
    <glyph glyph-name="Dcaron" unicode="&#x10e;" horiz-adv-x="1448" 
d="M1346 717c0 -84 -9.50195 -160.001 -28.502 -228.001s-45.5 -128.667 -79.5 -182s-74.167 -99.166 -120.5 -137.499s-96.666 -70.166 -150.999 -95.499s-111.666 -44 -171.999 -56s-121.166 -18 -182.499 -18h-428v1434h449c102 0 196.667 -12.833 284 -38.5
s162.666 -66.834 225.999 -123.501s113 -130.667 149 -222s54 -202.333 54 -333zM1051 716.999c0 73.333 -8.16797 137.332 -24.501 191.999s-41.666 100.334 -75.999 137.001s-78.5 64 -132.5 82s-119 27 -195 27h-152v-876h141c75.333 0 140.5 10.5 195.5 31.5
s100.5 50.667 136.5 89s62.833 84.5 80.5 138.5s26.5 113.667 26.5 179zM865.997 1526h-286l-250 327h190l205 -153l205 153h186z" />
    <glyph glyph-name="dcaron" unicode="&#x10f;" horiz-adv-x="1354" 
d="M727 0l0.000976562 68.002c-14 -12.667 -28.333 -23.834 -43 -33.501s-31.334 -19.334 -50.001 -29.001s-39 -16.834 -61 -21.501s-46.333 -7 -73 -7c-57.333 0 -111.333 11.167 -162 33.5s-95 56.833 -133 103.5s-68 106.167 -90 178.5s-33 158.5 -33 258.5
c0 80 9.33301 153.5 28 220.5s45.667 124.667 81 173s79 86 131 113s111.333 40.5 178 40.5c24.667 0 47.667 -2 69 -6s42.333 -10.5 63 -19.5s38.5 -18.167 53.5 -27.5s28.833 -19.666 41.5 -30.999v338l283 141v-1493h-283zM727.001 739.002
c-10.667 14.667 -21.998 27.332 -33.998 37.999s-25.833 20.167 -41.5 28.5s-33.334 14.666 -53.001 18.999s-40.167 6.5 -61.5 6.5c-54.667 0 -96.334 -23 -125.001 -69s-43 -114.333 -43 -205c0 -55.333 4.33301 -102.666 13 -141.999s21 -71.666 37 -96.999
s35.333 -44 58 -56s48 -18 76 -18c22 0 41.5 2.16699 58.5 6.5s32.333 10.5 46 18.5s26.167 17.5 37.5 28.5s22 23.167 32 36.5v405zM1299.71 915.988h-156.726l23.4277 465.223h269.019z" />
    <glyph glyph-name="Dcroat" unicode="&#x110;" horiz-adv-x="1479" 
d="M1376 717c0 -108.667 -16.6689 -206.665 -50.002 -293.998s-83 -162.833 -149 -226.5s-145.167 -112.334 -237.5 -146.001s-191.166 -50.5 -296.499 -50.5h-428v631h-133v235h133v568h449c102 0 196.5 -12.833 283.5 -38.5s162.333 -66.834 226 -123.501
s113.334 -130.667 149.001 -222s53.5 -202.333 53.5 -333zM1081 717.002c0 73.333 -8.16797 137.332 -24.501 191.999s-41.666 100.334 -75.999 137.001s-78.5 64 -132.5 82s-119 27 -195 27h-159v-289h192v-235h-192v-352h149c75.333 0 140.5 10.5 195.5 31.5
s100.5 50.667 136.5 89s62.667 84.5 80 138.5s26 113.667 26 179z" />
    <glyph glyph-name="dcroat" unicode="&#x111;" horiz-adv-x="1200" 
d="M553 244c22 0 41.501 2.16504 58.501 6.49805s32.333 10.5 46 18.5s26.167 17.5 37.5 28.5s22 23.167 32 36.5v405c-44 61.333 -107.333 92 -190 92c-54.667 0 -96.334 -23 -125.001 -69s-43 -114.333 -43 -205c0 -55.333 4.33301 -102.666 13 -141.999
s21 -71.666 37 -96.999s35.333 -44 58 -56s48 -18 76 -18zM1010 1493v-193h149v-215h-149v-1085h-283v68c-26.667 -24 -58.334 -45.167 -95.001 -63.5s-80.667 -27.5 -132 -27.5c-57.333 0 -111.333 11.167 -162 33.5s-95 56.833 -133 103.5s-68 106.167 -90 178.5
s-33 158.5 -33 258.5c0 80 9.33301 153.5 28 220.5s45.667 124.667 81 173s79 86 131 113s111.333 40.5 178 40.5c24.667 0 48.334 -2.5 71.001 -7.5s43.667 -11.5 63 -19.5s36.833 -17 52.5 -27s29.167 -20 40.5 -30v338z" />
    <glyph glyph-name="Emacron" unicode="&#x112;" horiz-adv-x="1331" 
d="M1210 0h-1026v1434h996v-281h-709v-248h576v-278h-576v-346h739v-281zM389 1556v215h594v-215h-594z" />
    <glyph glyph-name="emacron" unicode="&#x113;" horiz-adv-x="1102" 
d="M1014 537c0 -20.667 -0.333984 -38.3301 -1.00098 -52.9971s-1.66699 -27.334 -3 -38.001h-643c2.66699 -36.667 10.834 -67.834 24.501 -93.501s30.667 -46.5 51 -62.5s43.166 -27.667 68.499 -35s51 -11 77 -11c19.333 0 37.333 1.5 54 4.5s33.5 8 50.5 15
s32 15.167 45 24.5s24.5 19.666 34.5 30.999l201 -167c-21.333 -28 -46.666 -52.833 -75.999 -74.5s-61 -40 -95 -55s-69.167 -26.333 -105.5 -34s-72.5 -11.5 -108.5 -11.5c-59.333 0 -112.5 7.16699 -159.5 21.5s-88.167 33.5 -123.5 57.5s-66.666 51.833 -93.999 83.5
s-50.333 67 -69 106s-33.334 82.667 -44.001 131s-16 101.833 -16 160.5c0 82 12.167 157.5 36.5 226.5s58 128.167 101 177.5s93.667 87.833 152 115.5s121.5 41.5 189.5 41.5c72 0 136 -14.833 192 -44.5s103.333 -70 142 -121s68.167 -110.5 88.5 -178.5
s30.5 -140.333 30.5 -217zM738.999 659.004c-2 24 -7.16699 47.665 -15.5 70.998s-20.333 44 -36 62s-35 32.5 -58 43.5s-50.5 16.5 -82.5 16.5c-26 0 -49.167 -5 -69.5 -15s-38 -23.667 -53 -41s-27 -37.666 -36 -60.999s-14.833 -48.666 -17.5 -75.999h368zM253.999 1249
v215h594v-215h-594z" />
    <glyph glyph-name="Ebreve" unicode="&#x114;" horiz-adv-x="1331" 
d="M1210 0h-1026v1434h996v-281h-709v-248h576v-278h-576v-346h739v-281zM688 1504c-56 0 -105.833 7.33301 -149.5 22s-81.5 36 -113.5 64s-57.833 62.167 -77.5 102.5s-33.167 86.5 -40.5 138.5h172c13.333 -45.333 37 -78.833 71 -100.5s81.333 -32.5 142 -32.5
c62 0 109.833 10.333 143.5 31s57.5 54.667 71.5 102h166c-7.33301 -52 -21.5 -98.167 -42.5 -138.5s-48 -74.5 -81 -102.5s-71.5 -49.333 -115.5 -64s-92.667 -22 -146 -22z" />
    <glyph glyph-name="ebreve" unicode="&#x115;" horiz-adv-x="1102" 
d="M1014 537c0 -20.667 -0.333984 -38.3301 -1.00098 -52.9971s-1.66699 -27.334 -3 -38.001h-643c2.66699 -36.667 10.834 -67.834 24.501 -93.501s30.667 -46.5 51 -62.5s43.166 -27.667 68.499 -35s51 -11 77 -11c19.333 0 37.333 1.5 54 4.5s33.5 8 50.5 15
s32 15.167 45 24.5s24.5 19.666 34.5 30.999l201 -167c-21.333 -28 -46.666 -52.833 -75.999 -74.5s-61 -40 -95 -55s-69.167 -26.333 -105.5 -34s-72.5 -11.5 -108.5 -11.5c-59.333 0 -112.5 7.16699 -159.5 21.5s-88.167 33.5 -123.5 57.5s-66.666 51.833 -93.999 83.5
s-50.333 67 -69 106s-33.334 82.667 -44.001 131s-16 101.833 -16 160.5c0 82 12.167 157.5 36.5 226.5s58 128.167 101 177.5s93.667 87.833 152 115.5s121.5 41.5 189.5 41.5c72 0 136 -14.833 192 -44.5s103.333 -70 142 -121s68.167 -110.5 88.5 -178.5
s30.5 -140.333 30.5 -217zM738.999 659.004c-2 24 -7.16699 47.665 -15.5 70.998s-20.333 44 -36 62s-35 32.5 -58 43.5s-50.5 16.5 -82.5 16.5c-26 0 -49.167 -5 -69.5 -15s-38 -23.667 -53 -41s-27 -37.666 -36 -60.999s-14.833 -48.666 -17.5 -75.999h368zM548.999 1219
c-56 0 -105.833 7.33301 -149.5 22s-81.5 36 -113.5 64s-57.833 62.167 -77.5 102.5s-33.167 86.5 -40.5 138.5h172c13.333 -45.333 37 -78.833 71 -100.5s81.333 -32.5 142 -32.5c62 0 109.833 10.333 143.5 31s57.5 54.667 71.5 102h166
c-7.33301 -52 -21.5 -98.167 -42.5 -138.5s-48 -74.5 -81 -102.5s-71.5 -49.333 -115.5 -64s-92.667 -22 -146 -22z" />
    <glyph glyph-name="Edotaccent" unicode="&#x116;" horiz-adv-x="1331" 
d="M1210 0h-1026v1434h996v-281h-709v-248h576v-278h-576v-346h739v-281zM844 1683c0 -21.333 -4.33301 -41.333 -13 -60s-20.167 -35.334 -34.5 -50.001s-31.166 -26.167 -50.499 -34.5s-39.333 -12.5 -60 -12.5c-22 0 -42.833 4.16699 -62.5 12.5
s-36.834 19.833 -51.501 34.5s-26.334 31.334 -35.001 50.001s-13 38.667 -13 60c0 22 4.33301 42.667 13 62s20.334 36.333 35.001 51s31.834 26.167 51.501 34.5s40.5 12.5 62.5 12.5c20.667 0 40.667 -4.16699 60 -12.5s36.166 -19.833 50.499 -34.5
s25.833 -31.667 34.5 -51s13 -40 13 -62z" />
    <glyph glyph-name="edotaccent" unicode="&#x117;" horiz-adv-x="1102" 
d="M1014 537c0 -20.667 -0.333984 -38.3301 -1.00098 -52.9971s-1.66699 -27.334 -3 -38.001h-643c2.66699 -36.667 10.834 -67.834 24.501 -93.501s30.667 -46.5 51 -62.5s43.166 -27.667 68.499 -35s51 -11 77 -11c19.333 0 37.333 1.5 54 4.5s33.5 8 50.5 15
s32 15.167 45 24.5s24.5 19.666 34.5 30.999l201 -167c-21.333 -28 -46.666 -52.833 -75.999 -74.5s-61 -40 -95 -55s-69.167 -26.333 -105.5 -34s-72.5 -11.5 -108.5 -11.5c-59.333 0 -112.5 7.16699 -159.5 21.5s-88.167 33.5 -123.5 57.5s-66.666 51.833 -93.999 83.5
s-50.333 67 -69 106s-33.334 82.667 -44.001 131s-16 101.833 -16 160.5c0 82 12.167 157.5 36.5 226.5s58 128.167 101 177.5s93.667 87.833 152 115.5s121.5 41.5 189.5 41.5c72 0 136 -14.833 192 -44.5s103.333 -70 142 -121s68.167 -110.5 88.5 -178.5
s30.5 -140.333 30.5 -217zM738.999 659.004c-2 24 -7.16699 47.665 -15.5 70.998s-20.333 44 -36 62s-35 32.5 -58 43.5s-50.5 16.5 -82.5 16.5c-26 0 -49.167 -5 -69.5 -15s-38 -23.667 -53 -41s-27 -37.666 -36 -60.999s-14.833 -48.666 -17.5 -75.999h368zM708.999 1376
c0 -21.333 -4.33301 -41.333 -13 -60s-20.167 -35.334 -34.5 -50.001s-31.166 -26.167 -50.499 -34.5s-39.333 -12.5 -60 -12.5c-22 0 -42.833 4.16699 -62.5 12.5s-36.834 19.833 -51.501 34.5s-26.334 31.334 -35.001 50.001s-13 38.667 -13 60c0 22 4.33301 42.667 13 62
s20.334 36.333 35.001 51s31.834 26.167 51.501 34.5s40.5 12.5 62.5 12.5c20.667 0 40.667 -4.16699 60 -12.5s36.166 -19.833 50.499 -34.5s25.833 -31.667 34.5 -51s13 -40 13 -62z" />
    <glyph glyph-name="Eogonek" unicode="&#x118;" horiz-adv-x="1331" 
d="M1210 0h-1026v1434h996v-281h-709v-248h576v-278h-576v-346h739v-281zM1210 0c-41.333 -2.66699 -77.002 -9 -107.002 -19s-54.667 -22.167 -74 -36.5s-33.666 -29.666 -42.999 -45.999s-14 -32.5 -14 -48.5c0 -24.667 8 -43.667 24 -57s39.333 -20 70 -20
c14 0 28.333 2.33301 43 7s27.667 10.334 39 17.001l62 -123c-41.333 -27.333 -81.333 -48.5 -120 -63.5s-82.667 -22.5 -132 -22.5c-34 0 -64.5 5 -91.5 15s-50 23.5 -69 40.5s-33.5 36.333 -43.5 58s-15 44.167 -15 67.5c0 29.333 5.33301 56.166 16 80.499
s24.834 46 42.501 65s37.667 35.667 60 50s45.5 26.166 69.5 35.499h283z" />
    <glyph glyph-name="eogonek" unicode="&#x119;" horiz-adv-x="1102" 
d="M772 319l201.003 -166.995c-26.667 -32 -54.667 -58.333 -84 -79s-58.5 -38.167 -87.5 -52.5s-56.833 -26.833 -83.5 -37.5s-51.334 -22.334 -74.001 -35.001s-41 -28 -55 -46s-21 -40.333 -21 -67c0 -20 7.66699 -35.333 23 -46s36.666 -16 63.999 -16
c8 0 16.833 1.16699 26.5 3.5s28.167 9.16602 55.5 20.499l62 -123c-48 -31.333 -91.167 -53.5 -129.5 -66.5s-79.166 -19.5 -122.499 -19.5c-34 0 -64.5 5 -91.5 15s-50 23.5 -69 40.5s-33.5 36.333 -43.5 58s-15 44.167 -15 67.5c0 48.667 14.833 92 44.5 130
s66.5 67 110.5 87c-62 11.333 -117.667 32.333 -167 63s-91.333 69.667 -126 117s-61.334 102.333 -80.001 165s-28 131.334 -28 206.001c0 82 12.167 157.5 36.5 226.5s58 128.167 101 177.5s93.667 87.833 152 115.5s121.5 41.5 189.5 41.5c72 0 136 -14.833 192 -44.5
s103.333 -70 142 -121s68.167 -110.5 88.5 -178.5s30.5 -140.333 30.5 -217c0 -20.667 -0.333008 -38.334 -1 -53.001s-1.66699 -27.334 -3 -38.001h-643c2.66699 -36.667 10.834 -67.834 24.501 -93.501s30.667 -46.5 51 -62.5s43.166 -27.667 68.499 -35s51 -11 77 -11
c39.333 0 74.666 6.66699 105.999 20s57.333 31.666 78 54.999zM739.003 659.005c-2 24 -7.16699 47.665 -15.5 70.998s-20.333 44 -36 62s-35 32.5 -58 43.5s-50.5 16.5 -82.5 16.5c-26 0 -49.167 -5 -69.5 -15s-38 -23.667 -53 -41s-27 -37.666 -36 -60.999
s-14.833 -48.666 -17.5 -75.999h368z" />
    <glyph glyph-name="Ecaron" unicode="&#x11a;" horiz-adv-x="1331" 
d="M1210 0h-1026v1434h996v-281h-709v-248h576v-278h-576v-346h739v-281zM817 1526h-286l-250 327h190l205 -153l205 153h186z" />
    <glyph glyph-name="ecaron" unicode="&#x11b;" horiz-adv-x="1102" 
d="M1014 537c0 -20.667 -0.333984 -38.3301 -1.00098 -52.9971s-1.66699 -27.334 -3 -38.001h-643c2.66699 -36.667 10.834 -67.834 24.501 -93.501s30.667 -46.5 51 -62.5s43.166 -27.667 68.499 -35s51 -11 77 -11c19.333 0 37.333 1.5 54 4.5s33.5 8 50.5 15
s32 15.167 45 24.5s24.5 19.666 34.5 30.999l201 -167c-21.333 -28 -46.666 -52.833 -75.999 -74.5s-61 -40 -95 -55s-69.167 -26.333 -105.5 -34s-72.5 -11.5 -108.5 -11.5c-59.333 0 -112.5 7.16699 -159.5 21.5s-88.167 33.5 -123.5 57.5s-66.666 51.833 -93.999 83.5
s-50.333 67 -69 106s-33.334 82.667 -44.001 131s-16 101.833 -16 160.5c0 82 12.167 157.5 36.5 226.5s58 128.167 101 177.5s93.667 87.833 152 115.5s121.5 41.5 189.5 41.5c72 0 136 -14.833 192 -44.5s103.333 -70 142 -121s68.167 -110.5 88.5 -178.5
s30.5 -140.333 30.5 -217zM738.999 659.004c-2 24 -7.16699 47.665 -15.5 70.998s-20.333 44 -36 62s-35 32.5 -58 43.5s-50.5 16.5 -82.5 16.5c-26 0 -49.167 -5 -69.5 -15s-38 -23.667 -53 -41s-27 -37.666 -36 -60.999s-14.833 -48.666 -17.5 -75.999h368zM693.999 1219
h-286l-250 327h190l205 -153l205 153h186z" />
    <glyph glyph-name="Gcircumflex" unicode="&#x11c;" horiz-adv-x="1430" 
d="M1311 555c0 -92 -14.4961 -174.001 -43.4961 -246.001s-69 -132.5 -120 -181.5s-111.833 -86.333 -182.5 -112s-147.334 -38.5 -230.001 -38.5c-94 0 -179.333 17.333 -256 52s-142.5 84 -197.5 148s-97.5 141.667 -127.5 233s-45 193.666 -45 306.999
c0 108.667 15.667 208.334 47 299.001s75 168.667 131 234s123 116 201 152s163.667 54 257 54c143.333 0 258.666 -32.167 345.999 -96.5s153 -151.5 197 -261.5l-272 -113c-13.333 26.667 -27.833 51.334 -43.5 74.001s-34.167 42.334 -55.5 59.001s-46.333 29.667 -75 39
s-62.334 14 -101.001 14c-54 0 -101.833 -11.167 -143.5 -33.5s-77 -53.5 -106 -93.5s-51 -87.833 -66 -143.5s-22.5 -116.834 -22.5 -183.501c0 -66 7.66699 -127 23 -183s37.5 -104.5 66.5 -145.5s64.5 -73 106.5 -96s90 -34.5 144 -34.5c81.333 0 145.166 16 191.499 48
s75.5 83.667 87.5 155l2 14h-227v268h514v-188zM940.004 1516l-205 153l-205 -153h-186l250 327h286l250 -327h-190z" />
    <glyph glyph-name="gcircumflex" unicode="&#x11d;" horiz-adv-x="1151" 
d="M1010 166c0 -100 -11.5 -184.832 -34.5 -254.499s-56.833 -125.5 -101.5 -167.5c-41.333 -39.333 -92.833 -71.333 -154.5 -96s-136.167 -39.667 -223.5 -45l-84 225c62.667 5.33301 114.5 13.166 155.5 23.499s72.5 23.5 94.5 39.5c20 14.667 35.667 35.167 47 61.5
s17.333 62.5 18 108.5v7c-13.333 -12 -27.5 -23 -42.5 -33s-32 -19.833 -51 -29.5s-39.333 -16.834 -61 -21.501s-45.834 -7 -72.501 -7c-57.333 0 -111.333 11.167 -162 33.5s-95 56.833 -133 103.5s-68 106.167 -90 178.5s-33 158.5 -33 258.5
c0 80 9.33301 153.5 28 220.5s45.667 124.667 81 173s79 86 131 113s111.333 40.5 178 40.5c22.667 0 45.167 -2 67.5 -6s44 -10.5 65 -19.5s38.833 -18.167 53.5 -27.5s28.334 -19.666 41.001 -30.999v61h283v-909zM553 244.001c38.667 0 71.833 7.49902 99.5 22.499
s52.5 37.5 74.5 67.5v405c-10.667 14.667 -21.5 27 -32.5 37s-24.5 19.333 -40.5 28s-33.667 15.334 -53 20.001s-40.666 7 -63.999 7c-54.667 0 -96.334 -23 -125.001 -69s-43 -114.333 -43 -205c0 -107.333 16.167 -186.333 48.5 -237s77.5 -76 135.5 -76zM777.999 1200
l-205 153l-205 -153h-186l250 327h286l250 -327h-190z" />
    <glyph glyph-name="Gbreve" unicode="&#x11e;" horiz-adv-x="1430" 
d="M1311 555c0 -92 -14.4961 -174.001 -43.4961 -246.001s-69 -132.5 -120 -181.5s-111.833 -86.333 -182.5 -112s-147.334 -38.5 -230.001 -38.5c-94 0 -179.333 17.333 -256 52s-142.5 84 -197.5 148s-97.5 141.667 -127.5 233s-45 193.666 -45 306.999
c0 108.667 15.667 208.334 47 299.001s75 168.667 131 234s123 116 201 152s163.667 54 257 54c143.333 0 258.666 -32.167 345.999 -96.5s153 -151.5 197 -261.5l-272 -113c-13.333 26.667 -27.833 51.334 -43.5 74.001s-34.167 42.334 -55.5 59.001s-46.333 29.667 -75 39
s-62.334 14 -101.001 14c-54 0 -101.833 -11.167 -143.5 -33.5s-77 -53.5 -106 -93.5s-51 -87.833 -66 -143.5s-22.5 -116.834 -22.5 -183.501c0 -66 7.66699 -127 23 -183s37.5 -104.5 66.5 -145.5s64.5 -73 106.5 -96s90 -34.5 144 -34.5c81.333 0 145.166 16 191.499 48
s75.5 83.667 87.5 155l2 14h-227v268h514v-188zM737.004 1524c-56 0 -105.833 7.33301 -149.5 22s-81.5 36 -113.5 64s-57.833 62.167 -77.5 102.5s-33.167 86.5 -40.5 138.5h172c13.333 -45.333 37 -78.833 71 -100.5s81.333 -32.5 142 -32.5c62 0 109.833 10.333 143.5 31
s57.5 54.667 71.5 102h166c-7.33301 -52 -21.5 -98.167 -42.5 -138.5s-48 -74.5 -81 -102.5s-71.5 -49.333 -115.5 -64s-92.667 -22 -146 -22z" />
    <glyph glyph-name="gbreve" unicode="&#x11f;" horiz-adv-x="1151" 
d="M1010 166c0 -100 -11.5 -184.832 -34.5 -254.499s-56.833 -125.5 -101.5 -167.5c-41.333 -39.333 -92.833 -71.333 -154.5 -96s-136.167 -39.667 -223.5 -45l-84 225c62.667 5.33301 114.5 13.166 155.5 23.499s72.5 23.5 94.5 39.5c20 14.667 35.667 35.167 47 61.5
s17.333 62.5 18 108.5v7c-13.333 -12 -27.5 -23 -42.5 -33s-32 -19.833 -51 -29.5s-39.333 -16.834 -61 -21.501s-45.834 -7 -72.501 -7c-57.333 0 -111.333 11.167 -162 33.5s-95 56.833 -133 103.5s-68 106.167 -90 178.5s-33 158.5 -33 258.5
c0 80 9.33301 153.5 28 220.5s45.667 124.667 81 173s79 86 131 113s111.333 40.5 178 40.5c22.667 0 45.167 -2 67.5 -6s44 -10.5 65 -19.5s38.833 -18.167 53.5 -27.5s28.334 -19.666 41.001 -30.999v61h283v-909zM553 244.001c38.667 0 71.833 7.49902 99.5 22.499
s52.5 37.5 74.5 67.5v405c-10.667 14.667 -21.5 27 -32.5 37s-24.5 19.333 -40.5 28s-33.667 15.334 -53 20.001s-40.666 7 -63.999 7c-54.667 0 -96.334 -23 -125.001 -69s-43 -114.333 -43 -205c0 -107.333 16.167 -186.333 48.5 -237s77.5 -76 135.5 -76zM572.999 1219
c-56 0 -105.833 7.33301 -149.5 22s-81.5 36 -113.5 64s-57.833 62.167 -77.5 102.5s-33.167 86.5 -40.5 138.5h172c13.333 -45.333 37 -78.833 71 -100.5s81.333 -32.5 142 -32.5c62 0 109.833 10.333 143.5 31s57.5 54.667 71.5 102h166
c-7.33301 -52 -21.5 -98.167 -42.5 -138.5s-48 -74.5 -81 -102.5s-71.5 -49.333 -115.5 -64s-92.667 -22 -146 -22z" />
    <glyph glyph-name="Gdotaccent" unicode="&#x120;" horiz-adv-x="1430" 
d="M1311 555c0 -92 -14.4961 -174.001 -43.4961 -246.001s-69 -132.5 -120 -181.5s-111.833 -86.333 -182.5 -112s-147.334 -38.5 -230.001 -38.5c-94 0 -179.333 17.333 -256 52s-142.5 84 -197.5 148s-97.5 141.667 -127.5 233s-45 193.666 -45 306.999
c0 108.667 15.667 208.334 47 299.001s75 168.667 131 234s123 116 201 152s163.667 54 257 54c143.333 0 258.666 -32.167 345.999 -96.5s153 -151.5 197 -261.5l-272 -113c-13.333 26.667 -27.833 51.334 -43.5 74.001s-34.167 42.334 -55.5 59.001s-46.333 29.667 -75 39
s-62.334 14 -101.001 14c-54 0 -101.833 -11.167 -143.5 -33.5s-77 -53.5 -106 -93.5s-51 -87.833 -66 -143.5s-22.5 -116.834 -22.5 -183.501c0 -66 7.66699 -127 23 -183s37.5 -104.5 66.5 -145.5s64.5 -73 106.5 -96s90 -34.5 144 -34.5c81.333 0 145.166 16 191.499 48
s75.5 83.667 87.5 155l2 14h-227v268h514v-188zM895.004 1683c0 -21.333 -4.33301 -41.333 -13 -60s-20.167 -35.334 -34.5 -50.001s-31.166 -26.167 -50.499 -34.5s-39.333 -12.5 -60 -12.5c-22 0 -42.833 4.16699 -62.5 12.5s-36.834 19.833 -51.501 34.5
s-26.334 31.334 -35.001 50.001s-13 38.667 -13 60c0 22 4.33301 42.667 13 62s20.334 36.333 35.001 51s31.834 26.167 51.501 34.5s40.5 12.5 62.5 12.5c20.667 0 40.667 -4.16699 60 -12.5s36.166 -19.833 50.499 -34.5s25.833 -31.667 34.5 -51s13 -40 13 -62z" />
    <glyph glyph-name="gdotaccent" unicode="&#x121;" horiz-adv-x="1151" 
d="M1010 166c0 -100 -11.5 -184.832 -34.5 -254.499s-56.833 -125.5 -101.5 -167.5c-41.333 -39.333 -92.833 -71.333 -154.5 -96s-136.167 -39.667 -223.5 -45l-84 225c62.667 5.33301 114.5 13.166 155.5 23.499s72.5 23.5 94.5 39.5c20 14.667 35.667 35.167 47 61.5
s17.333 62.5 18 108.5v7c-13.333 -12 -27.5 -23 -42.5 -33s-32 -19.833 -51 -29.5s-39.333 -16.834 -61 -21.501s-45.834 -7 -72.501 -7c-57.333 0 -111.333 11.167 -162 33.5s-95 56.833 -133 103.5s-68 106.167 -90 178.5s-33 158.5 -33 258.5
c0 80 9.33301 153.5 28 220.5s45.667 124.667 81 173s79 86 131 113s111.333 40.5 178 40.5c22.667 0 45.167 -2 67.5 -6s44 -10.5 65 -19.5s38.833 -18.167 53.5 -27.5s28.334 -19.666 41.001 -30.999v61h283v-909zM553 244.001c38.667 0 71.833 7.49902 99.5 22.499
s52.5 37.5 74.5 67.5v405c-10.667 14.667 -21.5 27 -32.5 37s-24.5 19.333 -40.5 28s-33.667 15.334 -53 20.001s-40.666 7 -63.999 7c-54.667 0 -96.334 -23 -125.001 -69s-43 -114.333 -43 -205c0 -107.333 16.167 -186.333 48.5 -237s77.5 -76 135.5 -76zM735.999 1376
c0 -21.333 -4.33301 -41.333 -13 -60s-20.167 -35.334 -34.5 -50.001s-31.166 -26.167 -50.499 -34.5s-39.333 -12.5 -60 -12.5c-22 0 -42.833 4.16699 -62.5 12.5s-36.834 19.833 -51.501 34.5s-26.334 31.334 -35.001 50.001s-13 38.667 -13 60c0 22 4.33301 42.667 13 62
s20.334 36.333 35.001 51s31.834 26.167 51.501 34.5s40.5 12.5 62.5 12.5c20.667 0 40.667 -4.16699 60 -12.5s36.166 -19.833 50.499 -34.5s25.833 -31.667 34.5 -51s13 -40 13 -62z" />
    <glyph glyph-name="Gcommaaccent" unicode="&#x122;" horiz-adv-x="1430" 
d="M1311 555c0 -92 -14.4961 -174.001 -43.4961 -246.001s-69 -132.5 -120 -181.5s-111.833 -86.333 -182.5 -112s-147.334 -38.5 -230.001 -38.5c-94 0 -179.333 17.333 -256 52s-142.5 84 -197.5 148s-97.5 141.667 -127.5 233s-45 193.666 -45 306.999
c0 108.667 15.667 208.334 47 299.001s75 168.667 131 234s123 116 201 152s163.667 54 257 54c143.333 0 258.666 -32.167 345.999 -96.5s153 -151.5 197 -261.5l-272 -113c-13.333 26.667 -27.833 51.334 -43.5 74.001s-34.167 42.334 -55.5 59.001s-46.333 29.667 -75 39
s-62.334 14 -101.001 14c-54 0 -101.833 -11.167 -143.5 -33.5s-77 -53.5 -106 -93.5s-51 -87.833 -66 -143.5s-22.5 -116.834 -22.5 -183.501c0 -66 7.66699 -127 23 -183s37.5 -104.5 66.5 -145.5s64.5 -73 106.5 -96s90 -34.5 144 -34.5c81.333 0 145.166 16 191.499 48
s75.5 83.667 87.5 155l2 14h-227v268h514v-188zM734.004 -491.001h-149l22 392h233z" />
    <glyph glyph-name="gcommaaccent" unicode="&#x123;" horiz-adv-x="1151" 
d="M1010 166c0 -100 -11.5 -184.832 -34.5 -254.499s-56.833 -125.5 -101.5 -167.5c-41.333 -39.333 -92.833 -71.333 -154.5 -96s-136.167 -39.667 -223.5 -45l-84 225c62.667 5.33301 114.5 13.166 155.5 23.499s72.5 23.5 94.5 39.5c20 14.667 35.667 35.167 47 61.5
s17.333 62.5 18 108.5v7c-13.333 -12 -27.5 -23 -42.5 -33s-32 -19.833 -51 -29.5s-39.333 -16.834 -61 -21.501s-45.834 -7 -72.501 -7c-57.333 0 -111.333 11.167 -162 33.5s-95 56.833 -133 103.5s-68 106.167 -90 178.5s-33 158.5 -33 258.5
c0 80 9.33301 153.5 28 220.5s45.667 124.667 81 173s79 86 131 113s111.333 40.5 178 40.5c22.667 0 45.167 -2 67.5 -6s44 -10.5 65 -19.5s38.833 -18.167 53.5 -27.5s28.334 -19.666 41.001 -30.999v61h283v-909zM553 244.001c38.667 0 71.833 7.49902 99.5 22.499
s52.5 37.5 74.5 67.5v405c-10.667 14.667 -21.5 27 -32.5 37s-24.5 19.333 -40.5 28s-33.667 15.334 -53 20.001s-40.666 7 -63.999 7c-54.667 0 -96.334 -23 -125.001 -69s-43 -114.333 -43 -205c0 -107.333 16.167 -186.333 48.5 -237s77.5 -76 135.5 -76z
M580.746 1622.48h161.795l-23.8887 -425.113h-253.01z" />
    <glyph glyph-name="Hcircumflex" unicode="&#x124;" horiz-adv-x="1530" 
d="M1059 0v602h-588v-602h-287v1434h287v-549h588v549h287v-1434h-287zM967 1506l-205 153l-205 -153h-186l250 327h286l250 -327h-190z" />
    <glyph glyph-name="hcircumflex" unicode="&#x125;" horiz-adv-x="1196" 
d="M786 0v582.001c0 85.333 -13.5 148.166 -40.5 188.499s-74.167 60.5 -141.5 60.5c-29.333 0 -55.333 -4 -78 -12s-41.834 -21.333 -57.501 -40s-27.667 -43.5 -36 -74.5s-12.5 -69.833 -12.5 -116.5v-588h-283v1352l283 141v-489c11.333 12 26 23.833 44 35.5
s37.667 22 59 31s44.166 15.833 68.499 20.5s51.166 7 80.499 7c68.667 0 127.834 -11.5 177.501 -34.5s90.834 -55.667 123.501 -98s56.834 -93.833 72.501 -154.5s23.5 -129 23.5 -205v-606h-283zM801 1506l-205 153l-205 -153h-186l250 327h286l250 -327h-190z" />
    <glyph glyph-name="Hbar" unicode="&#x126;" horiz-adv-x="1530" 
d="M1059 0v602h-588v-602h-287v1010h-102v282h102v142h287v-142h588v142h287v-142h104v-282h-104v-1010h-287zM1059 885v125h-588v-125h588z" />
    <glyph glyph-name="hbar" unicode="&#x127;" horiz-adv-x="1196" 
d="M786 0l-0.00195312 582c0 48 -4 88 -12 120s-19.667 57.5 -35 76.5s-34.333 32.5 -57 40.5s-48.667 12 -78 12s-55.333 -4 -78 -12s-41.834 -21.333 -57.501 -40s-27.667 -43.5 -36 -74.5s-12.5 -69.833 -12.5 -116.5v-588h-283v1085h-149v215h149v52l283 141v-489
c24.667 25.333 58.667 47.333 102 66s93.333 28 150 28c68.667 0 127.834 -11.5 177.501 -34.5s90.834 -55.667 123.501 -98s56.834 -93.833 72.501 -154.5s23.5 -129 23.5 -205v-606h-283z" />
    <glyph glyph-name="Itilde" unicode="&#x128;" horiz-adv-x="696" 
d="M205 0v1434h287v-1434h-287zM751 1814c0 -45.333 -5.83105 -86.3311 -17.498 -122.998s-27.834 -67.667 -48.501 -93s-45.5 -44.833 -74.5 -58.5s-60.833 -20.5 -95.5 -20.5c-21.333 0 -40.333 1.16699 -57 3.5s-32.667 6 -48 11s-31 11.5 -47 19.5s-34.333 18 -55 30
c-15.333 9.33301 -32.5 18.5 -51.5 27.5s-37.167 13.5 -54.5 13.5c-19.333 0 -34.333 -7.33301 -45 -22s-19 -40 -25 -76h-184c0 45.333 5.66699 86.166 17 122.499s27.333 67.166 48 92.499s45.5 44.833 74.5 58.5s60.833 20.5 95.5 20.5c21.333 0 40.333 -1 57 -3
s32.667 -5.5 48 -10.5s31 -11.5 47 -19.5s34.333 -18 55 -30c16 -9.33301 33.333 -18.5 52 -27.5s37 -13.5 55 -13.5c19.333 0 34.166 7.33301 44.499 22s18.5 40 24.5 76h185z" />
    <glyph glyph-name="itilde" unicode="&#x129;" horiz-adv-x="578" 
d="M147 0v1075h283v-1075h-283zM692 1507c0 -45.333 -5.83105 -86.3311 -17.498 -122.998s-27.834 -67.667 -48.501 -93s-45.5 -44.833 -74.5 -58.5s-60.833 -20.5 -95.5 -20.5c-21.333 0 -40.333 1.16699 -57 3.5s-32.667 6 -48 11s-31 11.5 -47 19.5s-34.333 18 -55 30
c-15.333 9.33301 -32.5 18.5 -51.5 27.5s-37.167 13.5 -54.5 13.5c-19.333 0 -34.333 -7.33301 -45 -22s-19 -40 -25 -76h-184c0 45.333 5.66699 86.166 17 122.499s27.333 67.166 48 92.499s45.5 44.833 74.5 58.5s60.833 20.5 95.5 20.5c21.333 0 40.333 -1 57 -3
s32.667 -5.5 48 -10.5s31 -11.5 47 -19.5s34.333 -18 55 -30c16 -9.33301 33.333 -18.5 52 -27.5s37 -13.5 55 -13.5c19.333 0 34.166 7.33301 44.499 22s18.5 40 24.5 76h185z" />
    <glyph glyph-name="Imacron" unicode="&#x12a;" horiz-adv-x="696" 
d="M205 0v1434h287v-1434h-287zM52 1556v215h594v-215h-594z" />
    <glyph glyph-name="imacron" unicode="&#x12b;" horiz-adv-x="578" 
d="M147 0v1075h283v-1075h-283zM-7 1249v215h594v-215h-594z" />
    <glyph glyph-name="Ibreve" unicode="&#x12c;" horiz-adv-x="696" 
d="M205 0v1434h287v-1434h-287zM347 1504c-56 0 -105.833 7.33301 -149.5 22s-81.5 36 -113.5 64s-57.833 62.167 -77.5 102.5s-33.167 86.5 -40.5 138.5h172c13.333 -45.333 37 -78.833 71 -100.5s81.333 -32.5 142 -32.5c62 0 109.833 10.333 143.5 31
s57.5 54.667 71.5 102h166c-7.33301 -52 -21.5 -98.167 -42.5 -138.5s-48 -74.5 -81 -102.5s-71.5 -49.333 -115.5 -64s-92.667 -22 -146 -22z" />
    <glyph glyph-name="ibreve" unicode="&#x12d;" horiz-adv-x="578" 
d="M147 0v1075h283v-1075h-283zM288 1219c-56 0 -105.833 7.33301 -149.5 22s-81.5 36 -113.5 64s-57.833 62.167 -77.5 102.5s-33.167 86.5 -40.5 138.5h172c13.333 -45.333 37 -78.833 71 -100.5s81.333 -32.5 142 -32.5c62 0 109.833 10.333 143.5 31
s57.5 54.667 71.5 102h166c-7.33301 -52 -21.5 -98.167 -42.5 -138.5s-48 -74.5 -81 -102.5s-71.5 -49.333 -115.5 -64s-92.667 -22 -146 -22z" />
    <glyph glyph-name="Iogonek" unicode="&#x12e;" horiz-adv-x="696" 
d="M205 0v1434h287v-1434h-287zM489 0c-41.333 -2.66699 -77.002 -9 -107.002 -19s-54.667 -22.167 -74 -36.5s-33.666 -29.666 -42.999 -45.999s-14 -32.5 -14 -48.5c0 -24.667 8 -43.667 24 -57s39.333 -20 70 -20c14 0 28.333 2.33301 43 7s27.667 10.334 39 17.001
l62 -123c-41.333 -27.333 -81.333 -48.5 -120 -63.5s-82.667 -22.5 -132 -22.5c-34 0 -64.5 5 -91.5 15s-50 23.5 -69 40.5s-33.5 36.333 -43.5 58s-15 44.167 -15 67.5c0 29.333 5.33301 56.166 16 80.499s24.834 46 42.501 65s37.667 35.667 60 50
s45.5 26.166 69.5 35.499h283z" />
    <glyph glyph-name="iogonek" unicode="&#x12f;" horiz-adv-x="578" 
d="M451 1325c0 -22 -4.33301 -42.833 -13 -62.5s-20.334 -36.834 -35.001 -51.501s-31.834 -26.334 -51.501 -35.001s-40.5 -13 -62.5 -13s-42.833 4.33301 -62.5 13s-36.834 20.334 -51.501 35.001s-26.334 31.834 -35.001 51.501s-13 40.5 -13 62.5
s4.33301 42.833 13 62.5s20.334 36.834 35.001 51.501s31.834 26.334 51.501 35.001s40.5 13 62.5 13s42.833 -4.33301 62.5 -13s36.834 -20.334 51.501 -35.001s26.334 -31.834 35.001 -51.501s13 -40.5 13 -62.5zM147 0v1075h283v-1075h-283zM430 0
c-41.333 -2.66699 -77.002 -9 -107.002 -19s-54.667 -22.167 -74 -36.5s-33.666 -29.666 -42.999 -45.999s-14 -32.5 -14 -48.5c0 -24.667 8 -43.667 24 -57s39.333 -20 70 -20c14 0 28.333 2.33301 43 7s27.667 10.334 39 17.001l62 -123
c-41.333 -27.333 -81.333 -48.5 -120 -63.5s-82.667 -22.5 -132 -22.5c-34 0 -64.5 5 -91.5 15s-50 23.5 -69 40.5s-33.5 36.333 -43.5 58s-15 44.167 -15 67.5c0 29.333 5.33301 56.166 16 80.499s24.834 46 42.501 65s37.667 35.667 60 50s45.5 26.166 69.5 35.499h283z
" />
    <glyph glyph-name="Idotaccent" unicode="&#x130;" horiz-adv-x="696" 
d="M205 0v1434h287v-1434h-287zM509 1683c0 -21.333 -4.33301 -41.333 -13 -60s-20.167 -35.334 -34.5 -50.001s-31.166 -26.167 -50.499 -34.5s-39.333 -12.5 -60 -12.5c-22 0 -42.833 4.16699 -62.5 12.5s-36.834 19.833 -51.501 34.5s-26.334 31.334 -35.001 50.001
s-13 38.667 -13 60c0 22 4.33301 42.667 13 62s20.334 36.333 35.001 51s31.834 26.167 51.501 34.5s40.5 12.5 62.5 12.5c20.667 0 40.667 -4.16699 60 -12.5s36.166 -19.833 50.499 -34.5s25.833 -31.667 34.5 -51s13 -40 13 -62z" />
    <glyph glyph-name="dotlessi" unicode="&#x131;" horiz-adv-x="578" 
d="M147 0v1075h283v-1075h-283z" />
    <glyph glyph-name="IJ" unicode="&#x132;" horiz-adv-x="2028" 
d="M205 0v1434h287v-1434h-287zM1853 598c0 -202 -46.6709 -356 -140.004 -462s-227.666 -159 -402.999 -159c-71.333 0 -136.666 10.333 -195.999 31s-112.166 49.667 -158.499 87s-85.666 82 -117.999 134s-57.5 109.333 -75.5 172l280 76c16 -42 31.167 -74.5 45.5 -97.5
s32.333 -43.833 54 -62.5s46.167 -32.5 73.5 -41.5s59 -13.5 95 -13.5c45.333 0 84.166 7.16699 116.499 21.5s58.833 35.833 79.5 64.5s35.834 63 45.501 103s14.5 86.333 14.5 139v844h287v-836z" />
    <glyph glyph-name="ij" unicode="&#x133;" horiz-adv-x="1155" 
d="M451 1325c0 -22 -4.33301 -42.833 -13 -62.5s-20.334 -36.834 -35.001 -51.501s-31.834 -26.334 -51.501 -35.001s-40.5 -13 -62.5 -13s-42.833 4.33301 -62.5 13s-36.834 20.334 -51.501 35.001s-26.334 31.834 -35.001 51.501s-13 40.5 -13 62.5
s4.33301 42.833 13 62.5s20.334 36.834 35.001 51.501s31.834 26.334 51.501 35.001s40.5 13 62.5 13s42.833 -4.33301 62.5 -13s36.834 -20.334 51.501 -35.001s26.334 -31.834 35.001 -51.501s13 -40.5 13 -62.5zM147 0v1075h283v-1075h-283zM1029 1325
c0 -22 -4.33301 -42.833 -13 -62.5s-20.334 -36.834 -35.001 -51.501s-31.834 -26.334 -51.501 -35.001s-40.5 -13 -62.5 -13s-42.833 4.33301 -62.5 13s-36.834 20.334 -51.501 35.001s-26.334 31.834 -35.001 51.501s-13 40.5 -13 62.5s4.33301 42.833 13 62.5
s20.334 36.834 35.001 51.501s31.834 26.334 51.501 35.001s40.5 13 62.5 13s42.833 -4.33301 62.5 -13s36.834 -20.334 51.501 -35.001s26.334 -31.834 35.001 -51.501s13 -40.5 13 -62.5zM1008 80c0 -75.333 -6.50098 -140 -19.501 -194s-35.5 -99.5 -67.5 -136.5
s-75.167 -67 -129.5 -90s-122.833 -41.167 -205.5 -54.5l-98 217c48.667 9.33301 88.334 19.5 119.001 30.5s54.667 25.5 72 43.5s29.333 40.667 36 68s10 62 10 104v1007h283v-995z" />
    <glyph glyph-name="Jcircumflex" unicode="&#x134;" horiz-adv-x="1331" 
d="M1157 598c0 -202 -46.6709 -356 -140.004 -462s-227.666 -159 -402.999 -159c-71.333 0 -136.666 10.333 -195.999 31s-112.166 49.667 -158.499 87s-85.666 82 -117.999 134s-57.5 109.333 -75.5 172l280 76c16 -42 31.167 -74.5 45.5 -97.5s32.333 -43.833 54 -62.5
s46.167 -32.5 73.5 -41.5s59 -13.5 95 -13.5c45.333 0 84.166 7.16699 116.499 21.5s58.833 35.833 79.5 64.5s35.834 63 45.501 103s14.5 86.333 14.5 139v844h287v-836zM1217 1506l-205 153l-205 -153h-186l250 327h286l250 -327h-190z" />
    <glyph glyph-name="jcircumflex" unicode="&#x135;" horiz-adv-x="578" 
d="M430 80c0 -75.333 -6.50098 -140 -19.501 -194s-35.5 -99.5 -67.5 -136.5s-75.167 -67 -129.5 -90s-122.833 -41.167 -205.5 -54.5l-98 217c48.667 9.33301 88.334 19.5 119.001 30.5s54.667 25.5 72 43.5s29.333 40.667 36 68s10 62 10 104v1007h283v-995zM491.999 1219
l-205 153l-205 -153h-186l249 327h287l250 -327h-190z" />
    <glyph glyph-name="Kcommaaccent" unicode="&#x136;" horiz-adv-x="1475" 
d="M1434 0h-344l-390 692l-229 -270v-422h-287v1434h287v-623l510 623h346l-420 -496zM759 -481h-149l22 392h233z" />
    <glyph glyph-name="kcommaaccent" unicode="&#x137;" horiz-adv-x="1128" 
d="M762 0l-205 496l-137 -170v-326h-283v1352l283 141v-786l285 368h333l-276 -342l309 -733h-309zM595 -491h-149l22 392h233z" />
    <glyph glyph-name="kgreenlandic" unicode="&#x138;" horiz-adv-x="1128" 
d="M762 0l-205 496l-137 -170v-326h-283v1075h283v-368l285 368h333l-276 -342l309 -733h-309z" />
    <glyph glyph-name="Lacute" unicode="&#x139;" 
d="M184 0v1434h287v-1151h719v-283h-1006zM433 1526h-239l178 327h358z" />
    <glyph glyph-name="lacute" unicode="&#x13a;" horiz-adv-x="578" 
d="M147 0v1352l283 141v-1493h-283zM361 1526h-239l178 327h358z" />
    <glyph glyph-name="Lcommaaccent" unicode="&#x13b;" 
d="M184 0v1434h287v-1151h719v-283h-1006zM667 -491h-149l22 392h233z" />
    <glyph glyph-name="lcommaaccent" unicode="&#x13c;" horiz-adv-x="578" 
d="M147 0v1352l283 141v-1493h-283zM303 -491h-149l22 392h233z" />
    <glyph glyph-name="Lcaron" unicode="&#x13d;" 
d="M184 0v1434h287v-1151h719v-283h-1006zM833.196 1169.98h-155.198l23.2002 466.559h266.396z" />
    <glyph glyph-name="lcaron" unicode="&#x13e;" horiz-adv-x="772" 
d="M147 0v1352l283 141v-1493h-283zM718.708 915.988h-156.726l23.4277 465.223h269.019z" />
    <glyph glyph-name="Ldot" unicode="&#x13f;" 
d="M184 0v1434h287v-1151h719v-283h-1006zM1026 754c0 -26 -5.16699 -50.833 -15.5 -74.5s-24.166 -44.167 -41.499 -61.5s-37.833 -31.166 -61.5 -41.499s-48.5 -15.5 -74.5 -15.5s-50.667 5.16699 -74 15.5s-43.666 24.166 -60.999 41.499s-31.166 37.833 -41.499 61.5
s-15.5 48.5 -15.5 74.5s5.16699 50.667 15.5 74s24.166 43.666 41.499 60.999s37.666 31.166 60.999 41.499s48 15.5 74 15.5s50.833 -5.16699 74.5 -15.5s44.167 -24.166 61.5 -41.499s31.166 -37.666 41.499 -60.999s15.5 -48 15.5 -74z" />
    <glyph glyph-name="ldot" unicode="&#x140;" horiz-adv-x="1016" 
d="M147 0v1352l283 141v-1493h-283zM930 752c0 -26 -5.16699 -50.833 -15.5 -74.5s-24.166 -44.167 -41.499 -61.5s-37.833 -31.166 -61.5 -41.499s-48.5 -15.5 -74.5 -15.5s-50.667 5.16699 -74 15.5s-43.666 24.166 -60.999 41.499s-31.166 37.833 -41.499 61.5
s-15.5 48.5 -15.5 74.5s5.16699 50.667 15.5 74s24.166 43.666 41.499 60.999s37.666 31.166 60.999 41.499s48 15.5 74 15.5s50.833 -5.16699 74.5 -15.5s44.167 -24.166 61.5 -41.499s31.166 -37.666 41.499 -60.999s15.5 -48 15.5 -74z" />
    <glyph glyph-name="Lslash" unicode="&#x141;" horiz-adv-x="1300" 
d="M215 0v483l-133 -102v276l133 103v674h283v-498l237 176v-276l-237 -177v-376h723v-283h-1006z" />
    <glyph glyph-name="lslash" unicode="&#x142;" horiz-adv-x="659" 
d="M469 641v-641h-279v489l-118 -81v276l118 82v586l279 141v-578l119 84v-276z" />
    <glyph glyph-name="Nacute" unicode="&#x143;" horiz-adv-x="1530" 
d="M1346 0h-256l-623 925v-925h-283v1434h275l604 -902v902h283v-1434zM835 1526h-239l178 327h358z" />
    <glyph glyph-name="nacute" unicode="&#x144;" horiz-adv-x="1196" 
d="M786 0l-0.00195312 581.999c0 84.667 -13.5 147.334 -40.5 188.001s-74.167 61 -141.5 61c-29.333 0 -55.333 -4 -78 -12s-41.834 -21.333 -57.501 -40s-27.667 -43.5 -36 -74.5s-12.5 -69.833 -12.5 -116.5v-588h-283v1075h283v-71c12 12 26.5 23.667 43.5 35
s36.833 21.833 59.5 31.5s46.5 16.667 71.5 21s50.833 6.5 77.5 6.5c68.667 0 127.834 -11.5 177.501 -34.5s90.834 -55.667 123.501 -98s56.834 -93.833 72.501 -154.5s23.5 -129 23.5 -205v-606h-283zM607.998 1219h-239l178 327h358z" />
    <glyph glyph-name="Ncommaaccent" unicode="&#x145;" horiz-adv-x="1530" 
d="M1346 0h-256l-623 925v-925h-283v1434h275l604 -902v902h283v-1434zM786 -481h-149l22 392h233z" />
    <glyph glyph-name="ncommaaccent" unicode="&#x146;" horiz-adv-x="1196" 
d="M786 0l-0.00195312 581.999c0 84.667 -13.5 147.334 -40.5 188.001s-74.167 61 -141.5 61c-29.333 0 -55.333 -4 -78 -12s-41.834 -21.333 -57.501 -40s-27.667 -43.5 -36 -74.5s-12.5 -69.833 -12.5 -116.5v-588h-283v1075h283v-71c12 12 26.5 23.667 43.5 35
s36.833 21.833 59.5 31.5s46.5 16.667 71.5 21s50.833 6.5 77.5 6.5c68.667 0 127.834 -11.5 177.501 -34.5s90.834 -55.667 123.501 -98s56.834 -93.833 72.501 -154.5s23.5 -129 23.5 -205v-606h-283zM619.998 -491.001h-149l22 392h233z" />
    <glyph glyph-name="Ncaron" unicode="&#x147;" horiz-adv-x="1530" 
d="M1346 0h-256l-623 925v-925h-283v1434h275l604 -902v902h283v-1434zM907 1526h-286l-250 327h190l205 -153l205 153h186z" />
    <glyph glyph-name="ncaron" unicode="&#x148;" horiz-adv-x="1196" 
d="M786 0l-0.00195312 581.999c0 84.667 -13.5 147.334 -40.5 188.001s-74.167 61 -141.5 61c-29.333 0 -55.333 -4 -78 -12s-41.834 -21.333 -57.501 -40s-27.667 -43.5 -36 -74.5s-12.5 -69.833 -12.5 -116.5v-588h-283v1075h283v-71c12 12 26.5 23.667 43.5 35
s36.833 21.833 59.5 31.5s46.5 16.667 71.5 21s50.833 6.5 77.5 6.5c68.667 0 127.834 -11.5 177.501 -34.5s90.834 -55.667 123.501 -98s56.834 -93.833 72.501 -154.5s23.5 -129 23.5 -205v-606h-283zM740.998 1219h-286l-250 327h190l205 -153l205 153h186z" />
    <glyph glyph-name="napostrophe" unicode="&#x149;" horiz-adv-x="1675" 
d="M1265 0l-0.00195312 581.999c0 84.667 -13.5 147.334 -40.5 188.001s-74.167 61 -141.5 61c-29.333 0 -55.333 -4 -78 -12s-41.834 -21.333 -57.501 -40s-27.667 -43.5 -36 -74.5s-12.5 -69.833 -12.5 -116.5v-588h-283v1075h283v-71c12 12 26.5 23.667 43.5 35
s36.833 21.833 59.5 31.5s46.5 16.667 71.5 21s50.833 6.5 77.5 6.5c68.667 0 127.834 -11.5 177.501 -34.5s90.834 -55.667 123.501 -98s56.834 -93.833 72.501 -154.5s23.5 -129 23.5 -205v-606h-283zM318.998 857.999h-194l29 576h333z" />
    <glyph glyph-name="Eng" unicode="&#x14a;" horiz-adv-x="1530" 
d="M1346 80c0 -75.333 -6.50098 -140 -19.501 -194s-35.667 -99.5 -68 -136.5s-75.666 -67 -129.999 -90s-122.5 -41.167 -204.5 -54.5l-99 217c46 8.66699 83.833 18.167 113.5 28.5s53.5 23.5 71.5 39.5s31 35.833 39 59.5s12.667 53.5 14 89.5l-596 886v-925h-283v1434
h275l604 -902v902h283v-1354z" />
    <glyph glyph-name="eng" unicode="&#x14b;" horiz-adv-x="1196" 
d="M420 0h-283.003v1075h283v-71c24.667 25.333 58.667 47.333 102 66s93.333 28 150 28c68.667 0 127.834 -11.5 177.501 -34.5s90.834 -55.667 123.501 -98s56.834 -93.833 72.501 -154.5s23.5 -129 23.5 -205v-526c0 -75.333 -6.5 -140 -19.5 -194
s-35.5 -99.5 -67.5 -136.5s-75.167 -67 -129.5 -90s-122.833 -41.167 -205.5 -54.5l-98 217c48.667 9.33301 88.334 19.5 119.001 30.5s54.667 25.5 72 43.5s29.333 40.667 36 68s10 62 10 104v514c0 48 -4 88 -12 120s-19.667 57.5 -35 76.5s-34.333 32.5 -57 40.5
s-48.667 12 -78 12s-55.333 -4 -78 -12s-41.834 -21.333 -57.501 -40s-27.667 -43.5 -36 -74.5s-12.5 -69.833 -12.5 -116.5v-588z" />
    <glyph glyph-name="Omacron" unicode="&#x14c;" horiz-adv-x="1473" 
d="M1368 719c0 -116 -15.5 -219.833 -46.5 -311.5s-74.333 -169.334 -130 -233.001s-122.334 -112.5 -200.001 -146.5s-163.167 -51 -256.5 -51c-94 0 -179.667 16.667 -257 50s-143.666 81.666 -198.999 144.999s-98.333 140.666 -129 231.999s-46 195 -46 311
s15.5 219.833 46.5 311.5s74.5 169.334 130.5 233.001s123 112.334 201 146.001s163.667 50.5 257 50.5s178.5 -16.667 255.5 -50s143.167 -81.666 198.5 -144.999s98.333 -140.5 129 -231.5s46 -194.5 46 -310.5zM1073 715c0 72.667 -8.33301 137.333 -25 194
s-40 104.334 -70 143.001s-65.833 68.167 -107.5 88.5s-87.5 30.5 -137.5 30.5s-95.667 -9.83301 -137 -29.5s-76.5 -48.667 -105.5 -87s-51.5 -85.666 -67.5 -141.999s-24 -120.833 -24 -193.5s8.33301 -137.334 25 -194.001s40 -104.5 70 -143.5s65.833 -68.667 107.5 -89
s87.5 -30.5 137.5 -30.5s95.667 10 137 30s76.5 49.167 105.5 87.5s51.5 85.666 67.5 141.999s24 120.833 24 193.5zM438 1556v215h594v-215h-594z" />
    <glyph glyph-name="omacron" unicode="&#x14d;" horiz-adv-x="1137" 
d="M1055 537c0 -82.667 -12.167 -158.334 -36.5 -227.001s-58.333 -127.667 -102 -177s-95.334 -87.666 -155.001 -114.999s-124.5 -41 -194.5 -41s-134.667 13.667 -194 41s-110.5 65.666 -153.5 114.999s-76.667 108.333 -101 177s-36.5 144.334 -36.5 227.001
c0 82 12.167 157.5 36.5 226.5s58 128.167 101 177.5s94.167 87.833 153.5 115.5s124 41.5 194 41.5s134.833 -13.833 194.5 -41.5s111.334 -66.167 155.001 -115.5s77.667 -108.5 102 -177.5s36.5 -144.5 36.5 -226.5zM768 537c0 40.667 -4.16699 78.4961 -12.5 113.496
s-20.833 65.5 -37.5 91.5s-37.5 46.333 -62.5 61s-54.5 22 -88.5 22s-63.333 -7.33301 -88 -22s-45.167 -34.834 -61.5 -60.501s-28.5 -56 -36.5 -91s-12 -73.167 -12 -114.5s4 -79.666 12 -114.999s20.167 -65.666 36.5 -90.999s36.833 -45.166 61.5 -59.499
s54 -21.5 88 -21.5s63.5 7.83301 88.5 23.5s45.833 36.834 62.5 63.501s29.167 57.334 37.5 92.001s12.5 70.667 12.5 108zM270 1249v215h594v-215h-594z" />
    <glyph glyph-name="Obreve" unicode="&#x14e;" horiz-adv-x="1473" 
d="M1368 719c0 -116 -15.5 -219.833 -46.5 -311.5s-74.333 -169.334 -130 -233.001s-122.334 -112.5 -200.001 -146.5s-163.167 -51 -256.5 -51c-94 0 -179.667 16.667 -257 50s-143.666 81.666 -198.999 144.999s-98.333 140.666 -129 231.999s-46 195 -46 311
s15.5 219.833 46.5 311.5s74.5 169.334 130.5 233.001s123 112.334 201 146.001s163.667 50.5 257 50.5s178.5 -16.667 255.5 -50s143.167 -81.666 198.5 -144.999s98.333 -140.5 129 -231.5s46 -194.5 46 -310.5zM1073 715c0 72.667 -8.33301 137.333 -25 194
s-40 104.334 -70 143.001s-65.833 68.167 -107.5 88.5s-87.5 30.5 -137.5 30.5s-95.667 -9.83301 -137 -29.5s-76.5 -48.667 -105.5 -87s-51.5 -85.666 -67.5 -141.999s-24 -120.833 -24 -193.5s8.33301 -137.334 25 -194.001s40 -104.5 70 -143.5s65.833 -68.667 107.5 -89
s87.5 -30.5 137.5 -30.5s95.667 10 137 30s76.5 49.167 105.5 87.5s51.5 85.666 67.5 141.999s24 120.833 24 193.5zM735 1524c-56 0 -105.833 7.33301 -149.5 22s-81.5 36 -113.5 64s-57.833 62.167 -77.5 102.5s-33.167 86.5 -40.5 138.5h172
c13.333 -45.333 37 -78.833 71 -100.5s81.333 -32.5 142 -32.5c62 0 109.833 10.333 143.5 31s57.5 54.667 71.5 102h166c-7.33301 -52 -21.5 -98.167 -42.5 -138.5s-48 -74.5 -81 -102.5s-71.5 -49.333 -115.5 -64s-92.667 -22 -146 -22z" />
    <glyph glyph-name="obreve" unicode="&#x14f;" horiz-adv-x="1137" 
d="M1055 537c0 -82.667 -12.167 -158.334 -36.5 -227.001s-58.333 -127.667 -102 -177s-95.334 -87.666 -155.001 -114.999s-124.5 -41 -194.5 -41s-134.667 13.667 -194 41s-110.5 65.666 -153.5 114.999s-76.667 108.333 -101 177s-36.5 144.334 -36.5 227.001
c0 82 12.167 157.5 36.5 226.5s58 128.167 101 177.5s94.167 87.833 153.5 115.5s124 41.5 194 41.5s134.833 -13.833 194.5 -41.5s111.334 -66.167 155.001 -115.5s77.667 -108.5 102 -177.5s36.5 -144.5 36.5 -226.5zM768 537c0 40.667 -4.16699 78.4961 -12.5 113.496
s-20.833 65.5 -37.5 91.5s-37.5 46.333 -62.5 61s-54.5 22 -88.5 22s-63.333 -7.33301 -88 -22s-45.167 -34.834 -61.5 -60.501s-28.5 -56 -36.5 -91s-12 -73.167 -12 -114.5s4 -79.666 12 -114.999s20.167 -65.666 36.5 -90.999s36.833 -45.166 61.5 -59.499
s54 -21.5 88 -21.5s63.5 7.83301 88.5 23.5s45.833 36.834 62.5 63.501s29.167 57.334 37.5 92.001s12.5 70.667 12.5 108zM565 1219c-56 0 -105.833 7.33301 -149.5 22s-81.5 36 -113.5 64s-57.833 62.167 -77.5 102.5s-33.167 86.5 -40.5 138.5h172
c13.333 -45.333 37 -78.833 71 -100.5s81.333 -32.5 142 -32.5c62 0 109.833 10.333 143.5 31s57.5 54.667 71.5 102h166c-7.33301 -52 -21.5 -98.167 -42.5 -138.5s-48 -74.5 -81 -102.5s-71.5 -49.333 -115.5 -64s-92.667 -22 -146 -22z" />
    <glyph glyph-name="Ohungarumlaut" unicode="&#x150;" horiz-adv-x="1473" 
d="M1368 719c0 -116 -15.5 -219.833 -46.5 -311.5s-74.333 -169.334 -130 -233.001s-122.334 -112.5 -200.001 -146.5s-163.167 -51 -256.5 -51c-94 0 -179.667 16.667 -257 50s-143.666 81.666 -198.999 144.999s-98.333 140.666 -129 231.999s-46 195 -46 311
s15.5 219.833 46.5 311.5s74.5 169.334 130.5 233.001s123 112.334 201 146.001s163.667 50.5 257 50.5s178.5 -16.667 255.5 -50s143.167 -81.666 198.5 -144.999s98.333 -140.5 129 -231.5s46 -194.5 46 -310.5zM1073 715c0 72.667 -8.33301 137.333 -25 194
s-40 104.334 -70 143.001s-65.833 68.167 -107.5 88.5s-87.5 30.5 -137.5 30.5s-95.667 -9.83301 -137 -29.5s-76.5 -48.667 -105.5 -87s-51.5 -85.666 -67.5 -141.999s-24 -120.833 -24 -193.5s8.33301 -137.334 25 -194.001s40 -104.5 70 -143.5s65.833 -68.667 107.5 -89
s87.5 -30.5 137.5 -30.5s95.667 10 137 30s76.5 49.167 105.5 87.5s51.5 85.666 67.5 141.999s24 120.833 24 193.5zM979 1526h-240l178 327h359zM528 1526h-239l178 327h358z" />
    <glyph glyph-name="ohungarumlaut" unicode="&#x151;" horiz-adv-x="1137" 
d="M1055 537c0 -82.667 -12.167 -158.334 -36.5 -227.001s-58.333 -127.667 -102 -177s-95.334 -87.666 -155.001 -114.999s-124.5 -41 -194.5 -41s-134.667 13.667 -194 41s-110.5 65.666 -153.5 114.999s-76.667 108.333 -101 177s-36.5 144.334 -36.5 227.001
c0 82 12.167 157.5 36.5 226.5s58 128.167 101 177.5s94.167 87.833 153.5 115.5s124 41.5 194 41.5s134.833 -13.833 194.5 -41.5s111.334 -66.167 155.001 -115.5s77.667 -108.5 102 -177.5s36.5 -144.5 36.5 -226.5zM768 537c0 40.667 -4.16699 78.4961 -12.5 113.496
s-20.833 65.5 -37.5 91.5s-37.5 46.333 -62.5 61s-54.5 22 -88.5 22s-63.333 -7.33301 -88 -22s-45.167 -34.834 -61.5 -60.501s-28.5 -56 -36.5 -91s-12 -73.167 -12 -114.5s4 -79.666 12 -114.999s20.167 -65.666 36.5 -90.999s36.833 -45.166 61.5 -59.499
s54 -21.5 88 -21.5s63.5 7.83301 88.5 23.5s45.833 36.834 62.5 63.501s29.167 57.334 37.5 92.001s12.5 70.667 12.5 108zM838 1219h-240l178 327h359zM387 1219h-239l178 327h358z" />
    <glyph glyph-name="OE" unicode="&#x152;" horiz-adv-x="2161" 
d="M1321 627l-0.00195312 -345.995h719v-281h-965v129c-17.333 -23.333 -37.666 -44.5 -60.999 -63.5s-49.5 -35 -78.5 -48s-60.5 -23 -94.5 -30s-70.667 -10.5 -110 -10.5c-94 0 -180.333 17.667 -259 53s-145.667 87.666 -201 156.999s-96.166 149.166 -122.499 239.499
s-39.5 187.166 -39.5 290.499c0 122.667 17.833 233.167 53.5 331.5s83.667 177.666 144 237.999s126 103.666 197 129.999s146.833 39.5 227.5 39.5c44 0 83 -3.66699 117 -11s64.833 -17.5 92.5 -30.5s52 -28 73 -45s41.5 -38.5 61.5 -64.5v129h934v-281h-688v-248h573
v-278h-573zM1059 717.005c0 63.333 -5.66699 120.996 -17 172.996s-29.833 99.667 -55.5 143s-60.167 77.166 -103.5 101.499s-94 36.5 -152 36.5c-50 0 -95.333 -9.5 -136 -28.5s-75.334 -48.167 -104.001 -87.5s-50.5 -87.166 -65.5 -143.499
s-22.5 -121.166 -22.5 -194.499s7.5 -138.166 22.5 -194.499s36.833 -104.166 65.5 -143.499s63.334 -68.666 104.001 -87.999s86 -29 136 -29c58 0 108.667 12.333 152 37s77.833 58.667 103.5 102s44.167 91 55.5 143s17 109.667 17 173z" />
    <glyph glyph-name="oe" unicode="&#x153;" horiz-adv-x="1761" 
d="M1673 537c0 -20.667 -0.336914 -38.332 -1.00391 -52.999s-1.66699 -27.334 -3 -38.001h-643c2.66699 -36.667 10.834 -67.834 24.501 -93.501s30.834 -46.5 51.501 -62.5s43.667 -27.667 69 -35s50.666 -11 75.999 -11c39.333 0 74.833 6.66699 106.5 20
s57.834 31.666 78.501 54.999l200 -167c-44 -55.333 -100.667 -98.333 -170 -129s-141 -46 -215 -46c-40 0 -77.667 3.5 -113 10.5s-68 17.833 -98 32.5s-56.333 31.167 -79 49.5s-43.334 38.833 -62.001 61.5c-18 -25.333 -38 -47.166 -60 -65.499
s-46.667 -34.166 -74 -47.499s-57.166 -23.5 -89.499 -30.5s-67.166 -10.5 -104.499 -10.5c-70 0 -134.667 13.667 -194 41s-110.5 65.666 -153.5 114.999s-76.667 108.333 -101 177s-36.5 144.334 -36.5 227.001c0 82 12.167 157.5 36.5 226.5s58 128.167 101 177.5
s94.167 87.833 153.5 115.5s124 41.5 194 41.5c37.333 0 72 -3.66699 104 -11s62.333 -18 91 -32s53.667 -30.167 75 -48.5s41.333 -40.5 60 -66.5c38.667 48 84.334 86.333 137.001 115s115 43 187 43c71.333 0 135 -14.833 191 -44.5s103.333 -70 142 -121
s68.167 -110.5 88.5 -178.5s30.5 -140.333 30.5 -217zM1399 659.002c-2 24 -7.16699 47.667 -15.5 71s-20.333 44 -36 62s-35.167 32.5 -58.5 43.5s-51 16.5 -83 16.5c-48 0 -87.833 -17.667 -119.5 -53s-50.5 -82 -56.5 -140h369zM767.996 537.002
c0 40.667 -4.16699 78.4961 -12.5 113.496s-20.833 65.5 -37.5 91.5s-37.5 46.333 -62.5 61s-54.5 22 -88.5 22s-63.333 -7.33301 -88 -22s-45.167 -34.834 -61.5 -60.501s-28.5 -56 -36.5 -91s-12 -73.167 -12 -114.5s4 -79.666 12 -114.999s20.167 -65.666 36.5 -90.999
s36.833 -45.166 61.5 -59.499s54 -21.5 88 -21.5s63.5 7.83301 88.5 23.5s45.833 36.834 62.5 63.501s29.167 57.334 37.5 92.001s12.5 70.667 12.5 108z" />
    <glyph glyph-name="Racute" unicode="&#x154;" horiz-adv-x="1462" 
d="M1016 0l-255.998 516.001h-289v-516h-287v1434h668c67.333 0 131 -9.33301 191 -28s112.5 -47 157.5 -85s80.5 -85.5 106.5 -142.5s39 -123.5 39 -199.5c0 -57.333 -6 -107.666 -18 -150.999s-29.833 -82.333 -53.5 -117s-51.834 -64.334 -84.501 -89.001
s-72.334 -46.334 -119.001 -65.001l275 -557h-330zM1051 973.001c0 34.667 -5 63.499 -15 86.499s-24.5 41.5 -43.5 55.5s-40.667 24.167 -65 30.5s-51.5 9.5 -81.5 9.5h-375v-369h375c36 0 66.5 4.16699 91.5 12.5s46 20.333 63 36s29.667 34.834 38 57.501
s12.5 49.667 12.5 81zM741.002 1526h-239l178 327h358z" />
    <glyph glyph-name="racute" unicode="&#x155;" horiz-adv-x="877" 
d="M766 745c-22.667 20.667 -47.667 37.5 -75 50.5s-57 19.5 -89 19.5c-66.667 0 -113.667 -19.167 -141 -57.5s-41 -96.833 -41 -175.5v-582h-283v1075h283v-71c11.333 12 24.833 23.667 40.5 35s33 21.833 52 31.5s39.5 16.667 61.5 21s44.333 6.5 67 6.5
c46 0 86 -7.83301 120 -23.5s60.333 -33.167 79 -52.5zM563 1219h-239l178 327h358z" />
    <glyph glyph-name="Rcommaaccent" unicode="&#x156;" horiz-adv-x="1462" 
d="M1016 0l-255.998 516.001h-289v-516h-287v1434h668c67.333 0 131 -9.33301 191 -28s112.5 -47 157.5 -85s80.5 -85.5 106.5 -142.5s39 -123.5 39 -199.5c0 -57.333 -6 -107.666 -18 -150.999s-29.833 -82.333 -53.5 -117s-51.834 -64.334 -84.501 -89.001
s-72.334 -46.334 -119.001 -65.001l275 -557h-330zM1051 973.001c0 34.667 -5 63.499 -15 86.499s-24.5 41.5 -43.5 55.5s-40.667 24.167 -65 30.5s-51.5 9.5 -81.5 9.5h-375v-369h375c36 0 66.5 4.16699 91.5 12.5s46 20.333 63 36s29.667 34.834 38 57.501
s12.5 49.667 12.5 81zM753.002 -481h-149l22 392h233z" />
    <glyph glyph-name="rcommaaccent" unicode="&#x157;" horiz-adv-x="877" 
d="M766 745c-22.667 20.667 -47.667 37.5 -75 50.5s-57 19.5 -89 19.5c-66.667 0 -113.667 -19.167 -141 -57.5s-41 -96.833 -41 -175.5v-582h-283v1075h283v-71c11.333 12 24.833 23.667 40.5 35s33 21.833 52 31.5s39.5 16.667 61.5 21s44.333 6.5 67 6.5
c46 0 86 -7.83301 120 -23.5s60.333 -33.167 79 -52.5zM296 -491h-149l22 392h233z" />
    <glyph glyph-name="Rcaron" unicode="&#x158;" horiz-adv-x="1462" 
d="M1016 0l-255.998 516.001h-289v-516h-287v1434h668c67.333 0 131 -9.33301 191 -28s112.5 -47 157.5 -85s80.5 -85.5 106.5 -142.5s39 -123.5 39 -199.5c0 -57.333 -6 -107.666 -18 -150.999s-29.833 -82.333 -53.5 -117s-51.834 -64.334 -84.501 -89.001
s-72.334 -46.334 -119.001 -65.001l275 -557h-330zM1051 973.001c0 34.667 -5 63.499 -15 86.499s-24.5 41.5 -43.5 55.5s-40.667 24.167 -65 30.5s-51.5 9.5 -81.5 9.5h-375v-369h375c36 0 66.5 4.16699 91.5 12.5s46 20.333 63 36s29.667 34.834 38 57.501
s12.5 49.667 12.5 81zM874.002 1526h-286l-250 327h190l205 -153l205 153h186z" />
    <glyph glyph-name="rcaron" unicode="&#x159;" horiz-adv-x="877" 
d="M766 745c-22.667 20.667 -47.667 37.5 -75 50.5s-57 19.5 -89 19.5c-66.667 0 -113.667 -19.167 -141 -57.5s-41 -96.833 -41 -175.5v-582h-283v1075h283v-71c11.333 12 24.833 23.667 40.5 35s33 21.833 52 31.5s39.5 16.667 61.5 21s44.333 6.5 67 6.5
c46 0 86 -7.83301 120 -23.5s60.333 -33.167 79 -52.5zM582 1219h-286l-250 327h190l205 -153l205 153h186z" />
    <glyph glyph-name="Sacute" unicode="&#x15a;" horiz-adv-x="1354" 
d="M1235 434c0 -68 -10.999 -129.999 -32.999 -185.999s-56 -104.167 -102 -144.5s-104.333 -71.5 -175 -93.5s-155 -33 -253 -33c-60 0 -117.667 6.16699 -173 18.5s-107 29.666 -155 51.999s-91.5 49.666 -130.5 81.999s-71.833 68.5 -98.5 108.5l207 184
c50 -58.667 106.333 -100.667 169 -126s128.334 -38 197.001 -38c48.667 0 88 3.5 118 10.5s55.167 16.667 75.5 29s34.833 26.833 43.5 43.5s13 41 13 73c0 22.667 -4 42.834 -12 60.501s-23.5 33.834 -46.5 48.501s-55.333 28.667 -97 42s-96.5 27.666 -164.5 42.999
c-66 15.333 -126.5 33 -181.5 53s-102.167 46 -141.5 78s-70 71.833 -92 119.5s-33 106.834 -33 177.501c0 64.667 13.333 123 40 175s63.167 96.167 109.5 132.5s100.666 64.166 162.999 83.499s128.833 29 199.5 29c54.667 0 106.5 -4.83301 155.5 -14.5
s97 -25.5 144 -47.5s86.833 -45.333 119.5 -70s67 -55.667 103 -93l-207 -201c-27.333 28 -51.333 49.667 -72 65s-44.334 29.5 -71.001 42.5s-54.667 23 -84 30s-62 10.5 -98 10.5c-38.667 0 -71 -3.83301 -97 -11.5s-47 -17.5 -63 -29.5s-27.5 -25.667 -34.5 -41
s-10.5 -31 -10.5 -47c0 -22.667 4.33301 -42 13 -58s24 -30.167 46 -42.5s51.5 -24 88.5 -35s84.167 -23.167 141.5 -36.5c81.333 -19.333 149 -39.5 203 -60.5s101.667 -47.833 143 -80.5s73.833 -74 97.5 -124s35.5 -109.333 35.5 -178zM686.001 1526h-239l178 327h358z
" />
    <glyph glyph-name="sacute" unicode="&#x15b;" horiz-adv-x="1100" 
d="M954 993l-90 -222.997c-53.333 28.667 -107.5 50.167 -162.5 64.5s-105.167 21.5 -150.5 21.5c-50 0 -86.667 -4.83301 -110 -14.5s-35 -28.167 -35 -55.5c0 -11.333 2.66699 -21.333 8 -30s16 -17.334 32 -26.001s38.5 -18.334 67.5 -29.001s67.5 -23.667 115.5 -39
c48 -16 93.667 -33.167 137 -51.5s81.333 -40.5 114 -66.5s58.667 -57.5 78 -94.5s29 -82.5 29 -136.5c0 -62 -11.5 -114.333 -34.5 -157s-54.333 -77.167 -94 -103.5s-86 -45.5 -139 -57.5s-109.833 -18 -170.5 -18c-82 0 -162.667 11.167 -242 33.5s-149 52.833 -209 91.5
l95 215c57.333 -32 116.5 -56.333 177.5 -73s125.833 -25 194.5 -25c53.333 0 90.666 6.5 111.999 19.5s32 33.833 32 62.5c0 12 -2.66699 22.833 -8 32.5s-14.166 18.667 -26.499 27s-28.5 16.5 -48.5 24.5s-45 16.333 -75 25c-64.667 19.333 -123 38.666 -175 57.999
s-96.5 42.5 -133.5 69.5s-65.5 59.667 -85.5 98s-30 85.833 -30 142.5c0 56 10.5 104.167 31.5 144.5s50.5 73.5 88.5 99.5s83.333 45.167 136 57.5s110.667 18.5 174 18.5c68 0 136.833 -9.5 206.5 -28.5s133.167 -44.5 190.5 -76.5zM579 1219h-239l178 327h358z" />
    <glyph glyph-name="Scircumflex" unicode="&#x15c;" horiz-adv-x="1354" 
d="M1235 434c0 -68 -10.999 -129.999 -32.999 -185.999s-56 -104.167 -102 -144.5s-104.333 -71.5 -175 -93.5s-155 -33 -253 -33c-60 0 -117.667 6.16699 -173 18.5s-107 29.666 -155 51.999s-91.5 49.666 -130.5 81.999s-71.833 68.5 -98.5 108.5l207 184
c50 -58.667 106.333 -100.667 169 -126s128.334 -38 197.001 -38c48.667 0 88 3.5 118 10.5s55.167 16.667 75.5 29s34.833 26.833 43.5 43.5s13 41 13 73c0 22.667 -4 42.834 -12 60.501s-23.5 33.834 -46.5 48.501s-55.333 28.667 -97 42s-96.5 27.666 -164.5 42.999
c-66 15.333 -126.5 33 -181.5 53s-102.167 46 -141.5 78s-70 71.833 -92 119.5s-33 106.834 -33 177.501c0 64.667 13.333 123 40 175s63.167 96.167 109.5 132.5s100.666 64.166 162.999 83.499s128.833 29 199.5 29c54.667 0 106.5 -4.83301 155.5 -14.5
s97 -25.5 144 -47.5s86.833 -45.333 119.5 -70s67 -55.667 103 -93l-207 -201c-27.333 28 -51.333 49.667 -72 65s-44.334 29.5 -71.001 42.5s-54.667 23 -84 30s-62 10.5 -98 10.5c-38.667 0 -71 -3.83301 -97 -11.5s-47 -17.5 -63 -29.5s-27.5 -25.667 -34.5 -41
s-10.5 -31 -10.5 -47c0 -22.667 4.33301 -42 13 -58s24 -30.167 46 -42.5s51.5 -24 88.5 -35s84.167 -23.167 141.5 -36.5c81.333 -19.333 149 -39.5 203 -60.5s101.667 -47.833 143 -80.5s73.833 -74 97.5 -124s35.5 -109.333 35.5 -178zM873.001 1516l-205 153l-205 -153
h-186l250 327h286l250 -327h-190z" />
    <glyph glyph-name="scircumflex" unicode="&#x15d;" horiz-adv-x="1100" 
d="M954 993l-90 -222.997c-53.333 28.667 -107.5 50.167 -162.5 64.5s-105.167 21.5 -150.5 21.5c-50 0 -86.667 -4.83301 -110 -14.5s-35 -28.167 -35 -55.5c0 -11.333 2.66699 -21.333 8 -30s16 -17.334 32 -26.001s38.5 -18.334 67.5 -29.001s67.5 -23.667 115.5 -39
c48 -16 93.667 -33.167 137 -51.5s81.333 -40.5 114 -66.5s58.667 -57.5 78 -94.5s29 -82.5 29 -136.5c0 -62 -11.5 -114.333 -34.5 -157s-54.333 -77.167 -94 -103.5s-86 -45.5 -139 -57.5s-109.833 -18 -170.5 -18c-82 0 -162.667 11.167 -242 33.5s-149 52.833 -209 91.5
l95 215c57.333 -32 116.5 -56.333 177.5 -73s125.833 -25 194.5 -25c53.333 0 90.666 6.5 111.999 19.5s32 33.833 32 62.5c0 12 -2.66699 22.833 -8 32.5s-14.166 18.667 -26.499 27s-28.5 16.5 -48.5 24.5s-45 16.333 -75 25c-64.667 19.333 -123 38.666 -175 57.999
s-96.5 42.5 -133.5 69.5s-65.5 59.667 -85.5 98s-30 85.833 -30 142.5c0 56 10.5 104.167 31.5 144.5s50.5 73.5 88.5 99.5s83.333 45.167 136 57.5s110.667 18.5 174 18.5c68 0 136.833 -9.5 206.5 -28.5s133.167 -44.5 190.5 -76.5zM752 1200l-205 153l-205 -153h-186
l250 327h286l250 -327h-190z" />
    <glyph glyph-name="Scedilla" unicode="&#x15e;" horiz-adv-x="1354" 
d="M1235 434c0 -68 -10.999 -129.999 -32.999 -185.999s-56 -104.167 -102 -144.5s-104.333 -71.5 -175 -93.5s-155 -33 -253 -33c-60 0 -117.667 6.16699 -173 18.5s-107 29.666 -155 51.999s-91.5 49.666 -130.5 81.999s-71.833 68.5 -98.5 108.5l207 184
c50 -58.667 106.333 -100.667 169 -126s128.334 -38 197.001 -38c48.667 0 88 3.5 118 10.5s55.167 16.667 75.5 29s34.833 26.833 43.5 43.5s13 41 13 73c0 22.667 -4 42.834 -12 60.501s-23.5 33.834 -46.5 48.501s-55.333 28.667 -97 42s-96.5 27.666 -164.5 42.999
c-66 15.333 -126.5 33 -181.5 53s-102.167 46 -141.5 78s-70 71.833 -92 119.5s-33 106.834 -33 177.501c0 64.667 13.333 123 40 175s63.167 96.167 109.5 132.5s100.666 64.166 162.999 83.499s128.833 29 199.5 29c54.667 0 106.5 -4.83301 155.5 -14.5
s97 -25.5 144 -47.5s86.833 -45.333 119.5 -70s67 -55.667 103 -93l-207 -201c-27.333 28 -51.333 49.667 -72 65s-44.334 29.5 -71.001 42.5s-54.667 23 -84 30s-62 10.5 -98 10.5c-38.667 0 -71 -3.83301 -97 -11.5s-47 -17.5 -63 -29.5s-27.5 -25.667 -34.5 -41
s-10.5 -31 -10.5 -47c0 -22.667 4.33301 -42 13 -58s24 -30.167 46 -42.5s51.5 -24 88.5 -35s84.167 -23.167 141.5 -36.5c81.333 -19.333 149 -39.5 203 -60.5s101.667 -47.833 143 -80.5s73.833 -74 97.5 -124s35.5 -109.333 35.5 -178zM633.001 76.001h113.998l-35 -162
c8.66699 4 19.334 7.33301 32.001 10s28.667 4 48 4c22 0 42.667 -2.83301 62 -8.5s36.333 -14.5 51 -26.5s26.167 -27.167 34.5 -45.5s12.5 -39.833 12.5 -64.5c0 -30.667 -5.83301 -57.167 -17.5 -79.5s-28.167 -40.833 -49.5 -55.5s-47 -25.5 -77 -32.5
s-63.333 -10.5 -100 -10.5c-55.333 0 -105.5 7.16699 -150.5 21.5s-84.167 31.5 -117.5 51.5l43 78c66 -32.667 126.667 -49 182 -49c36 0 63.5 5.83301 82.5 17.5s28.5 29.167 28.5 52.5c0 20.667 -6.5 34.667 -19.5 42s-27.833 11 -44.5 11
c-23.333 0.666992 -43.666 -4 -60.999 -14l-74 28z" />
    <glyph glyph-name="scedilla" unicode="&#x15f;" horiz-adv-x="1100" 
d="M954 993l-90 -222.997c-53.333 28.667 -107.5 50.167 -162.5 64.5s-105.167 21.5 -150.5 21.5c-50 0 -86.667 -4.83301 -110 -14.5s-35 -28.167 -35 -55.5c0 -11.333 2.66699 -21.333 8 -30s16 -17.334 32 -26.001s38.5 -18.334 67.5 -29.001s67.5 -23.667 115.5 -39
c48 -16 93.667 -33.167 137 -51.5s81.333 -40.5 114 -66.5s58.667 -57.5 78 -94.5s29 -82.5 29 -136.5c0 -62 -11.5 -114.333 -34.5 -157s-54.333 -77.167 -94 -103.5s-86 -45.5 -139 -57.5s-109.833 -18 -170.5 -18c-82 0 -162.667 11.167 -242 33.5s-149 52.833 -209 91.5
l95 215c57.333 -32 116.5 -56.333 177.5 -73s125.833 -25 194.5 -25c53.333 0 90.666 6.5 111.999 19.5s32 33.833 32 62.5c0 12 -2.66699 22.833 -8 32.5s-14.166 18.667 -26.499 27s-28.5 16.5 -48.5 24.5s-45 16.333 -75 25c-64.667 19.333 -123 38.666 -175 57.999
s-96.5 42.5 -133.5 69.5s-65.5 59.667 -85.5 98s-30 85.833 -30 142.5c0 56 10.5 104.167 31.5 144.5s50.5 73.5 88.5 99.5s83.333 45.167 136 57.5s110.667 18.5 174 18.5c68 0 136.833 -9.5 206.5 -28.5s133.167 -44.5 190.5 -76.5zM492 76.0029h113.998l-35 -162
c8.66699 4 19.334 7.33301 32.001 10s28.667 4 48 4c22 0 42.667 -2.83301 62 -8.5s36.333 -14.5 51 -26.5s26.167 -27.167 34.5 -45.5s12.5 -39.833 12.5 -64.5c0 -30.667 -5.83301 -57.167 -17.5 -79.5s-28.167 -40.833 -49.5 -55.5s-47 -25.5 -77 -32.5
s-63.333 -10.5 -100 -10.5c-55.333 0 -105.5 7.16699 -150.5 21.5s-84.167 31.5 -117.5 51.5l43 78c66 -32.667 126.667 -49 182 -49c36 0 63.5 5.83301 82.5 17.5s28.5 29.167 28.5 52.5c0 20.667 -6.5 34.667 -19.5 42s-27.833 11 -44.5 11
c-23.333 0.666992 -43.666 -4 -60.999 -14l-74 28z" />
    <glyph glyph-name="Scaron" unicode="&#x160;" horiz-adv-x="1354" 
d="M1235 434c0 -68 -10.999 -129.999 -32.999 -185.999s-56 -104.167 -102 -144.5s-104.333 -71.5 -175 -93.5s-155 -33 -253 -33c-60 0 -117.667 6.16699 -173 18.5s-107 29.666 -155 51.999s-91.5 49.666 -130.5 81.999s-71.833 68.5 -98.5 108.5l207 184
c50 -58.667 106.333 -100.667 169 -126s128.334 -38 197.001 -38c48.667 0 88 3.5 118 10.5s55.167 16.667 75.5 29s34.833 26.833 43.5 43.5s13 41 13 73c0 22.667 -4 42.834 -12 60.501s-23.5 33.834 -46.5 48.501s-55.333 28.667 -97 42s-96.5 27.666 -164.5 42.999
c-66 15.333 -126.5 33 -181.5 53s-102.167 46 -141.5 78s-70 71.833 -92 119.5s-33 106.834 -33 177.501c0 64.667 13.333 123 40 175s63.167 96.167 109.5 132.5s100.666 64.166 162.999 83.499s128.833 29 199.5 29c54.667 0 106.5 -4.83301 155.5 -14.5
s97 -25.5 144 -47.5s86.833 -45.333 119.5 -70s67 -55.667 103 -93l-207 -201c-27.333 28 -51.333 49.667 -72 65s-44.334 29.5 -71.001 42.5s-54.667 23 -84 30s-62 10.5 -98 10.5c-38.667 0 -71 -3.83301 -97 -11.5s-47 -17.5 -63 -29.5s-27.5 -25.667 -34.5 -41
s-10.5 -31 -10.5 -47c0 -22.667 4.33301 -42 13 -58s24 -30.167 46 -42.5s51.5 -24 88.5 -35s84.167 -23.167 141.5 -36.5c81.333 -19.333 149 -39.5 203 -60.5s101.667 -47.833 143 -80.5s73.833 -74 97.5 -124s35.5 -109.333 35.5 -178zM821.001 1536h-286l-250 327h190
l205 -153l205 153h186z" />
    <glyph glyph-name="scaron" unicode="&#x161;" horiz-adv-x="1100" 
d="M954 993l-90 -222.997c-53.333 28.667 -107.5 50.167 -162.5 64.5s-105.167 21.5 -150.5 21.5c-50 0 -86.667 -4.83301 -110 -14.5s-35 -28.167 -35 -55.5c0 -11.333 2.66699 -21.333 8 -30s16 -17.334 32 -26.001s38.5 -18.334 67.5 -29.001s67.5 -23.667 115.5 -39
c48 -16 93.667 -33.167 137 -51.5s81.333 -40.5 114 -66.5s58.667 -57.5 78 -94.5s29 -82.5 29 -136.5c0 -62 -11.5 -114.333 -34.5 -157s-54.333 -77.167 -94 -103.5s-86 -45.5 -139 -57.5s-109.833 -18 -170.5 -18c-82 0 -162.667 11.167 -242 33.5s-149 52.833 -209 91.5
l95 215c57.333 -32 116.5 -56.333 177.5 -73s125.833 -25 194.5 -25c53.333 0 90.666 6.5 111.999 19.5s32 33.833 32 62.5c0 12 -2.66699 22.833 -8 32.5s-14.166 18.667 -26.499 27s-28.5 16.5 -48.5 24.5s-45 16.333 -75 25c-64.667 19.333 -123 38.666 -175 57.999
s-96.5 42.5 -133.5 69.5s-65.5 59.667 -85.5 98s-30 85.833 -30 142.5c0 56 10.5 104.167 31.5 144.5s50.5 73.5 88.5 99.5s83.333 45.167 136 57.5s110.667 18.5 174 18.5c68 0 136.833 -9.5 206.5 -28.5s133.167 -44.5 190.5 -76.5zM678 1219h-286l-250 327h190l205 -153
l205 153h186z" />
    </font>
</defs>
</svg>
